<?xml version="1.0" encoding="UTF-8"?>
<svg width="23px" height="31px" viewBox="0 0 23 31" version="1.1" xmlns="http://www.w3.org/2000/svg" xmlns:xlink="http://www.w3.org/1999/xlink">
    <!-- Generator: Sketch 41.1 (35376) - http://www.bohemiancoding.com/sketch -->
    <title>Site map icon</title>
    <desc>Created with Sketch.</desc>
    <defs>
        <polygon id="path-1" points="22.0487904 0.000378151261 0.000255555556 0.000378151261 0.000255555556 29.8991597 22.0487904 29.8991597 22.0487904 0.000378151261"></polygon>
    </defs>
    <g id="Symbols" stroke="none" stroke-width="1" fill="none" fill-rule="evenodd">
        <g id="FOOTER" transform="translate(-149.000000, -10.000000)">
            <g id="Site-map-icon">
                <g transform="translate(149.000000, 10.000000)">
                    <g id="Page-1" transform="translate(0.000000, 0.522718)">
                        <mask id="mask-2" fill="white">
                            <use xlink:href="#path-1"></use>
                        </mask>
                        <g id="Clip-2"></g>
                        <path d="M2.11242222,7.46722689 C3.11803333,5.07226891 4.9312,3.16260504 7.25547778,2.00672269 L7.65542222,2.89285714 C6.65108889,3.40210084 5.76303333,4.05378151 5.01681111,4.82521008 C5.00275556,4.83781513 4.98742222,4.85294118 4.97336667,4.86680672 C4.95547778,4.88445378 4.93886667,4.90336134 4.92353333,4.92226891 C2.37947778,7.63109244 1.50803333,11.6609244 3.03242222,15.289916 C4.60664444,19.0411765 8.29558889,21.307563 12.1749222,21.307563 C12.8150889,21.307563 13.4616444,21.2457983 14.1030889,21.1184874 C14.1248111,21.1147059 14.1465333,21.1109244 14.1682556,21.1058824 C14.5822556,21.0214286 14.9924222,20.8991597 15.4013111,20.7579832 L15.8127556,21.6680672 C10.3962556,23.5752101 4.33703333,20.9798319 2.11242222,15.6806723 C1.00075556,13.0323529 1.00075556,10.1142857 2.11242222,7.46722689 M15.4537,3.71722689 C16.5142556,4.15084034 17.4585333,4.77478992 18.2469222,5.55252101 C18.4462556,5.8210084 18.5280333,6.15504202 18.4692556,6.47016807 C18.3938667,6.87478992 18.1012556,7.24663866 17.6220889,7.54537815 C16.5615333,8.20588235 16.6190333,8.97478992 16.6918667,9.27478992 C16.8835333,10.0512605 17.7856444,10.6184874 18.9905889,10.7218487 C20.1457,10.8214286 20.7577556,11.3659664 20.7628667,11.8537815 C20.7628667,11.8638655 20.7628667,11.8739496 20.7641444,11.8840336 C20.7245333,12.8760504 20.5073111,13.8630252 20.1112,14.8071429 C19.4735889,16.3247899 18.4309222,17.5991597 17.0969222,18.5168067 C17.0074778,18.5596639 16.9448667,18.6088235 16.9218667,18.6315126 L16.8707556,18.6642857 C16.7877,18.6088235 16.6586444,18.457563 16.6177556,18.3340336 C16.4835889,17.8663866 16.4222556,17.3457983 16.4350333,16.787395 C16.4490889,16.2163866 16.6688667,15.589916 16.8809778,14.9836134 C17.2017,14.0710084 17.5313667,13.1281513 17.1186444,12.3252101 C16.8707556,11.8436975 16.4120333,11.5071429 15.7182,11.2953782 C15.3783111,11.1920168 15.0422556,11.1478992 14.7125889,11.1478992 C13.6328667,11.1478992 12.6157556,11.6193277 11.7583667,12.0151261 C10.8537,12.4348739 10.2390889,12.6920168 9.98864444,12.455042 C9.51331111,12.002521 9.38425556,11.5411765 9.62831111,11.1579832 C9.79442222,10.8945378 10.0780889,10.7785714 10.1892556,10.8214286 C10.3822,10.8907563 10.5547,10.957563 10.7067556,11.0168067 C11.3533111,11.2689076 11.9589778,11.5058824 12.4790333,11.0495798 C13.1920333,10.4231092 12.5991444,9.71218487 12.3768111,9.44495798 C12.2682,9.31386555 12.1557556,9.1802521 12.0816444,9.04033613 C11.7200333,8.36722689 11.6893667,8.31176471 12.6540889,6.9592437 C13.1767,6.22815126 13.1652,5.56890756 13.0655333,5.14537815 C12.9237,4.54663866 12.4994778,4.00840336 11.9308667,3.70462185 C10.9840333,3.19789916 9.70114444,3.71848739 8.92681111,4.49621849 C8.7032,4.72058824 8.50258889,4.84033613 8.33647778,4.82521008 C8.20614444,4.81512605 8.05536667,4.70546218 7.92503333,4.52268908 C7.91353333,4.50504202 7.90331111,4.48865546 7.89436667,4.47478992 C7.87264444,4.44201681 7.84964444,4.40546218 7.84708889,4.40546218 C7.83175556,4.36512605 7.81642222,4.2302521 7.96847778,4.14831933 C8.25725556,3.9894958 8.55753333,3.84453782 8.87058889,3.71596639 L8.87314444,3.71596639 C10.9955333,2.8487395 13.3313111,2.85 15.4537,3.71722689 M19.5630333,7.2289916 C19.7687556,7.57436975 19.9514778,7.93487395 20.1099222,8.31176471 C20.3207556,8.81344538 20.4817556,9.3289916 20.5916444,9.84957983 C20.1853111,9.65420168 19.6895333,9.51680672 19.1004778,9.46638655 C18.3389222,9.40084034 17.9619778,9.09327731 17.9338667,8.97731092 C17.9287556,8.95966387 17.9785889,8.81470588 18.3044222,8.61176471 C19.0008111,8.17689076 19.3700889,7.67394958 19.5630333,7.2289916 M11.8069222,17.1592437 C11.1820889,16.4407563 10.7885333,15.8180672 10.4422556,15.2697479 C9.88514444,14.389916 9.44558889,13.6941176 8.47958889,13.3928571 C6.32781111,12.7235294 5.86142222,11.3281513 5.69531111,10.1848739 C5.54453333,9.15378151 5.88186667,8.5197479 6.23964444,7.84915966 C6.60764444,7.16344538 7.02164444,6.38697479 6.80697778,5.40756303 C6.80314444,5.25630252 6.77631111,5.1289916 6.7367,5.02310924 C6.76481111,5.0697479 6.79547778,5.11890756 6.83125556,5.17310924 C6.84403333,5.19579832 6.85808889,5.21722689 6.87214444,5.23739496 C7.22736667,5.73907563 7.71036667,6.03907563 8.23042222,6.08193277 C8.61631111,6.11092437 9.20664444,6.01512605 9.83786667,5.37983193 C10.3349222,4.88067227 11.0415333,4.66134454 11.3213667,4.81386555 C11.5168667,4.91722689 11.7507,5.13403361 11.8222556,5.43277311 C11.8810333,5.68361345 11.8107556,5.95336134 11.6101444,6.23319328 C10.6019778,7.64621849 10.2224778,8.27394958 10.9520889,9.63151261 C10.9827556,9.68823529 11.0159778,9.74369748 11.0492,9.79537815 C10.9201444,9.74495798 10.7795889,9.69201681 10.6275333,9.63655462 C9.90942222,9.37815126 9.01497778,9.74495798 8.54475556,10.4886555 C8.09753333,11.1957983 8.00681111,12.3214286 9.10186667,13.3613445 C10.0027,14.2222689 11.1731444,13.6789916 12.3014222,13.1571429 C13.3147,12.6869748 14.3612,12.2004202 15.3412556,12.5004202 C15.6824222,12.6037815 15.8970889,12.737395 15.9801444,12.894958 C16.1462556,13.2214286 15.9060333,13.9071429 15.6722,14.5714286 C15.4409222,15.2357143 15.1764222,15.9894958 15.1572556,16.7584034 C15.1419222,17.4428571 15.2185889,18.0882353 15.3949222,18.6983193 C15.4562556,18.8861345 15.5661444,19.0966387 15.7156444,19.2894958 C15.6287556,19.3285714 15.5418667,19.3651261 15.4537,19.4016807 C15.2594778,19.4810924 15.0627,19.5529412 14.8646444,19.6184874 C14.7266444,19.4042017 14.5081444,19.2239496 14.2308667,19.1054622 C13.6226444,18.8193277 12.8585333,18.3642857 11.8069222,17.1592437 M4.43031111,10.3651261 C4.7472,12.5420168 5.94575556,13.9260504 8.09497778,14.5953782 C8.58947778,14.7491597 8.83992222,15.1184874 9.35742222,15.9365546 C9.71008889,16.494958 10.1483667,17.1882353 10.8383667,17.9810924 C11.6293111,18.887395 12.3717,19.5226891 13.1894778,19.9878151 C9.44558889,20.4239496 5.72086667,18.3983193 4.21308889,14.8084034 C2.94553333,11.7907563 3.57931111,8.45546218 5.56881111,6.10714286 C5.52153333,6.49285714 5.33625556,6.83571429 5.11008889,7.26176471 C4.7127,8.00420168 4.2182,8.92941176 4.43031111,10.3651261 M12.4215333,24.892437 C12.4266444,26.1605042 13.6878111,26.6168067 14.7994778,27.0189076 C14.9770889,27.0844538 15.1585333,27.15 15.3412556,27.2193277 C15.8855889,27.4298319 16.4030889,27.6289916 16.8848111,27.889916 L17.0611444,27.9882353 C16.9244222,28.05 16.7238111,28.1218487 16.4350333,28.1987395 C15.9124222,28.3386555 15.2339222,28.4521008 14.4723667,28.5289916 C13.8590333,28.5907563 13.2060889,28.6260504 12.5263111,28.6348739 L12.1532,28.6386555 L11.7775333,28.6348739 C11.1028667,28.6260504 10.4499222,28.5907563 9.83531111,28.5289916 C9.08142222,28.4533613 8.4042,28.339916 7.8752,28.1987395 C7.58642222,28.1218487 7.38581111,28.0487395 7.24781111,27.9882353 L7.42797778,27.887395 C7.90075556,27.6315126 8.4157,27.4323529 8.97153333,27.2180672 L9.55675556,26.9962185 C10.8588111,26.5071429 11.8874222,26.1226891 11.8861444,24.9252101 C11.8874222,24.897479 11.8912556,23.7680672 11.8887,23.6596639 C11.8874222,23.6180672 11.8669778,23.5827731 11.8618667,23.542437 C11.9679222,23.544958 12.0714222,23.5651261 12.1774778,23.5651261 C12.2707556,23.5651261 12.3653111,23.5537815 12.4585889,23.5512605 C12.4483667,23.6155462 12.4202556,23.6710084 12.4164222,23.7390756 C12.4164222,23.7693277 12.4189778,24.6894958 12.4215333,24.892437 M10.3438667,23.4239496 L10.3425889,23.4428571 C10.4895333,23.4579832 10.6070889,23.5789916 10.6134778,23.7390756 C10.6134778,23.7655462 10.6122,24.747479 10.6096444,24.8647059 C10.6096444,25.194958 10.3847556,25.337395 9.10314444,25.8176471 L8.49236667,26.0495798 C7.93653333,26.2651261 7.36025556,26.4869748 6.81847778,26.7794118 C6.7137,26.8348739 6.60892222,26.8941176 6.48753333,26.9647059 L6.26136667,27.1021008 C5.82947778,27.4121849 5.73875556,27.757563 5.73875556,27.9932773 C5.73875556,28.9361345 7.09575556,29.2978992 7.54297778,29.4163866 C8.13714444,29.5739496 8.88592222,29.7012605 9.70625556,29.7831933 C10.3566444,29.847479 11.0479222,29.8865546 11.7570889,29.8953782 L12.1532,29.8991597 L12.5480333,29.8953782 C13.2610333,29.8865546 13.9523111,29.847479 14.6027,29.7831933 C15.4434778,29.697479 16.1705333,29.5739496 16.7685333,29.4163866 C17.2132,29.2966387 18.5702,28.9361345 18.5702,27.9932773 C18.5702,27.757563 18.4794778,27.4121849 18.1229778,27.1663866 C18.0884778,27.1323529 18.0501444,27.1021008 18.0067,27.0756303 L17.4943111,26.7819328 C16.9448667,26.4844538 16.3647556,26.2613445 15.8063667,26.0457983 C15.6172556,25.9726891 15.4268667,25.9033613 15.2390333,25.8352941 C14.3088111,25.4987395 13.6993111,25.2504202 13.6993111,24.8848739 C13.6993111,24.8684874 13.6980333,24.8508403 13.6967556,24.8344538 C13.6967556,24.6529412 13.6942,23.7668067 13.6942,23.7189076 C13.7031444,23.5815126 13.8104778,23.4642857 13.9497556,23.4441176 C13.9855333,23.4378151 14.0162,23.4189076 14.0494222,23.4063025 C14.9783667,23.262605 15.9060333,23.0231092 16.8132556,22.652521 C17.2323667,22.4810924 17.6693667,22.2680672 18.1485333,21.9995798 C18.4552,21.8281513 18.5638111,21.4436975 18.3900333,21.1411765 C18.2149778,20.8361345 17.8214222,20.7315126 17.5198667,20.9029412 C17.3320333,21.007563 17.1608111,21.0957983 16.9921444,21.1802521 L16.5794222,20.2689076 C18.7094778,19.2214286 20.3718667,17.4806723 21.2918667,15.289916 C22.3013111,12.8836134 22.3013111,10.2340336 21.2905889,7.8289916 C20.2811444,5.42268908 18.3823667,3.54957983 15.9430889,2.55252101 C13.6533111,1.61596639 11.1475889,1.57058824 8.8297,2.39369748 L8.42592222,1.50252101 C8.68403333,1.41176471 8.95364444,1.32352941 9.26542222,1.23781513 C9.60531111,1.14453782 9.80464444,0.796638655 9.70881111,0.461344538 C9.61425556,0.127310924 9.26414444,-0.0718487395 8.92297778,0.0239495798 C8.38247778,0.172689076 7.93397778,0.321428571 7.51231111,0.495378151 C4.51081111,1.72058824 2.17375556,4.02605042 0.931755556,6.98571429 C-0.310244444,9.94411765 -0.310244444,13.2037815 0.931755556,16.1634454 C2.61842222,20.1794118 6.2767,22.810084 10.3438667,23.4239496" id="Fill-1" fill="#FEFEFE" mask="url(#mask-2)"></path>
                    </g>
                </g>
            </g>
        </g>
    </g>
</svg>