<?xml version="1.0" encoding="UTF-8"?>
<svg width="271px" height="206px" viewBox="0 0 271 206" version="1.1" xmlns="http://www.w3.org/2000/svg" xmlns:xlink="http://www.w3.org/1999/xlink">
    <!-- Generator: Sketch 41.1 (35376) - http://www.bohemiancoding.com/sketch -->
    <title>The CP Logo</title>
    <desc>Created with Sketch.</desc>
    <defs></defs>
    <g id="Page-1" stroke="none" stroke-width="1" fill="none" fill-rule="evenodd">
        <g id="Homepage---Section-1" transform="translate(-584.000000, -348.000000)" fill="#FFFFFF">
            <g id="0.0a-home-" transform="translate(-427.000000, -151.000000)">
                <g id="The-CP-Logo" transform="translate(1011.699667, 498.369606)">
                    <polygon id="Fill-1" points="0.779617617 121.906708 0.906804382 128.887734 1.41343166 128.845548 1.58301402 122.621052 12.0222211 122.621052 12.0222211 150.713898 7.66890074 150.924124 7.62650515 151.345277 17.2630224 151.345277 17.3047114 150.924124 12.8673065 150.713898 12.8673065 122.621052 23.2641179 122.621052 23.4760959 128.803362 23.9834298 128.845548 24.1099099 121.906708"></polygon>
                    <path d="M17.2630224,151.872598 L7.62650515,151.872598 C7.4767074,151.872598 7.33468218,151.80932 7.23363936,151.698934 C7.13330314,151.589251 7.08454821,151.441601 7.09938667,151.293248 L7.14178226,150.872095 C7.16721961,150.61195 7.38061074,150.410162 7.64346339,150.397506 L11.4922762,150.211889 L11.4922762,123.148373 L2.09882701,123.148373 L1.94337652,128.860313 C1.93631059,129.128192 1.72715902,129.348964 1.45724044,129.37076 L0.950613157,129.412945 C0.805761563,129.429116 0.659496783,129.377087 0.551388033,129.278654 C0.442572689,129.180924 0.378979306,129.042414 0.376859527,128.896874 L0.249672762,121.916551 C0.247552982,121.774526 0.301960654,121.638125 0.401590287,121.53688 C0.50121992,121.436337 0.637592396,121.379387 0.779617617,121.379387 L24.1099099,121.379387 C24.2519352,121.379387 24.3883076,121.436337 24.4879373,121.53688 C24.5875669,121.638125 24.6419746,121.774526 24.6398548,121.916551 L24.5133746,128.855391 C24.5105482,129.000932 24.4469549,129.138738 24.3388461,129.237172 C24.2300308,129.334902 24.0844726,129.388337 23.939621,129.37076 L23.4322871,129.329277 C23.1644883,129.306778 22.9553367,129.088819 22.946151,128.821643 L22.7525445,123.148373 L13.3972513,123.148373 L13.3972513,150.211889 L17.3301488,150.397506 C17.4757069,150.404537 17.6113728,150.470628 17.7060563,150.579607 C17.8014464,150.68929 17.8466683,150.832721 17.8325365,150.976856 L17.7901409,151.397306 C17.7632903,151.667295 17.5350608,151.872598 17.2630224,151.872598" id="Fill-2"></path>
                    <path d="M26.9010942,151.345277 L26.9434897,150.924124 L30.3245379,150.714602 L30.3245379,119.29893 L26.6474272,119.29893 L26.6474272,118.836997 L30.1556622,118.5424 L31.0431432,118.5424 L31.1703299,119.593526 L31.1703299,134.817633 C32.8181051,132.209855 35.0156098,130.82265 38.2701778,130.82265 C43.8070416,130.82265 45.7091904,134.0604 45.7091904,138.644577 L45.7091904,150.714602 L49.3431989,150.924124 L49.3015099,151.345277 L44.8633984,151.345277 L44.8633984,138.728948 C44.8633984,134.481554 43.1732276,131.621365 38.2701778,131.621365 C36.6640916,131.621365 35.3540679,131.99963 34.1705244,132.504452 C33.0293765,133.514096 31.8882285,134.859819 31.1703299,136.28921 L31.1703299,150.714602 L34.846734,150.924124 L34.8043384,151.345277 L26.9010942,151.345277 Z" id="Fill-5"></path>
                    <path d="M30.8546241,135.241388 L30.8546241,135.751132 C30.929523,135.613325 31.0079548,135.476222 31.0906262,135.339119 C31.0680152,135.335603 31.0461108,135.330681 31.0234999,135.324354 C30.9613197,135.306776 30.9040856,135.278652 30.8546241,135.241388 M49.3009446,151.872387 L44.8635397,151.872387 C44.5710101,151.872387 44.3335949,151.636148 44.3335949,151.345066 L44.3335949,138.728737 C44.3335949,134.239479 42.407422,132.149178 38.2703191,132.149178 C36.968068,132.149178 35.788764,132.398074 34.4589557,132.955628 C33.2959034,133.996208 32.3222181,135.218889 31.6997095,136.415556 L31.6997095,150.2166 L34.8772589,150.397998 C35.0214039,150.405732 35.1556565,150.472526 35.2496334,150.581506 C35.3436103,150.691892 35.3888323,150.833917 35.3739938,150.977348 L35.3315982,151.397799 C35.3047477,151.667084 35.0765181,151.872387 34.8044798,151.872387 L26.9012355,151.872387 C26.7514377,151.872387 26.6087059,151.809109 26.5083697,151.698723 C26.4080335,151.588337 26.3585719,151.440687 26.374117,151.292334 L26.4165126,150.871181 C26.4419499,150.614551 26.6511015,150.414169 26.9104212,150.397998 L29.7947344,150.218709 L29.7947344,119.82604 L26.6475685,119.82604 C26.355039,119.82604 26.1176237,119.5898 26.1176237,119.298719 L26.1176237,118.836786 C26.1176237,118.562579 26.3281884,118.334073 26.6030532,118.311574 L30.1112881,118.016977 L31.0432845,118.014868 C31.3110833,118.014868 31.5371931,118.213844 31.5689898,118.478911 L31.6961765,119.530037 L31.6997095,133.201008 C33.3877605,131.226015 35.5103663,130.295118 38.2703191,130.295118 C43.5577556,130.295118 46.23857,133.103981 46.23857,138.644366 L46.23857,150.2166 L49.3737237,150.397998 C49.5185753,150.405732 49.652828,150.472526 49.7460983,150.581506 C49.8400752,150.691189 49.8852972,150.833917 49.8704587,150.976645 L49.8287697,151.397799 C49.8012126,151.667084 49.5736896,151.872387 49.3009446,151.872387" id="Fill-7"></path>
                    <path d="M53.1489096,140.831131 L68.3639797,140.537237 C68.3639797,134.691709 65.7015367,131.621295 61.4330075,131.579109 C59.8693169,131.579109 58.0512528,132.041746 56.1922062,133.177243 C54.4165377,135.111456 53.1913051,137.59338 53.1489096,140.831131 L53.1489096,140.831131 Z M53.1489096,141.588364 C53.3177853,147.349521 56.5299577,150.924053 61.6435723,150.924053 C64.4755976,150.924053 66.8426846,149.999484 68.6600422,148.737429 L68.9985003,149.284437 C67.2228317,150.798903 64.7292645,151.681989 61.6435723,151.681989 C55.7689569,151.681989 52.3038242,147.476078 52.3038242,141.125727 C52.3038242,134.943417 55.9809349,130.82258 61.4330075,130.82258 C66.3353508,130.82258 69.1673761,134.144701 69.1673761,140.284826 L68.9137091,141.378138 L53.1489096,141.588364 Z" id="Fill-9"></path>
                    <path d="M56.5331374,133.587991 C54.7977447,135.501815 53.8459637,137.75453 53.6982857,140.292701 L67.8266156,140.0199 C67.6845904,134.950588 65.4249055,132.145944 61.4277081,132.106571 C59.8357537,132.106571 58.1427566,132.618424 56.5331374,133.587991 M61.6439256,152.208748 C55.5559191,152.208748 51.773526,147.962057 51.773526,141.125868 C51.773526,134.647555 55.6555487,130.294696 61.4326542,130.294696 C66.6847611,130.294696 69.6969676,133.936023 69.6969676,140.284264 C69.6969676,140.32434 69.6927281,140.364417 69.6835423,140.403087 L69.4298754,141.497102 C69.3747611,141.734045 69.1641964,141.902084 68.9204218,141.9056 L53.7039385,142.108091 C54.0374504,147.310991 56.9761713,150.396873 61.6439256,150.396873 C64.0647137,150.396873 66.3858722,149.673389 68.3565604,148.305167 C68.4759747,148.222202 68.6250658,148.190562 68.7677976,148.220795 C68.911236,148.250325 69.0348898,148.338212 69.1112019,148.461254 L69.44966,149.008964 C69.5860325,149.229736 69.5408105,149.515896 69.3429645,149.685341 C67.4068992,151.336207 64.7444563,152.208748 61.6439256,152.208748" id="Fill-11"></path>
                    <path d="M105.135935,149.116468 C101.796575,151.092866 98.9652567,151.681357 94.9496879,151.681357 C86.6239009,151.681357 81.5943709,146.088239 81.5943709,136.836218 C81.5943709,126.743295 87.4272973,121.569925 95.1192702,121.569925 C99.2613192,121.569925 101.712491,122.032562 104.290849,123.084391 L104.417329,123.715067 L104.121267,129.518409 L103.529848,129.476224 L103.572244,123.883106 C101.543615,122.874166 98.7115898,122.326455 95.1616658,122.326455 C92.5409119,122.326455 90.1321359,123.042205 87.7226533,124.303557 C84.2151249,127.2896 82.4394563,130.948504 82.4394563,136.836218 C82.4394563,145.541232 87.004048,150.924124 94.9496879,150.924124 C98.8804655,150.924124 101.500513,150.377819 104.839872,148.485792 L105.135935,149.116468 Z" id="Fill-13"></path>
                    <path d="M94.9499705,152.209029 C86.3846485,152.209029 81.0647087,146.318503 81.0647087,136.836569 C81.0647087,127.094491 86.4496551,121.042956 95.1188463,121.042956 C99.1739843,121.042956 101.714187,121.463406 104.491098,122.596092 C104.655734,122.663589 104.775148,122.807723 104.810478,122.981388 L104.936958,123.612063 C104.945437,123.654952 104.948263,123.697841 104.946144,123.742136 L104.650788,129.545479 C104.643722,129.686801 104.579422,129.818982 104.472726,129.913197 C104.366031,130.007412 104.225419,130.054519 104.0841,130.044676 L103.491975,130.00249 C103.212871,129.982803 102.99736,129.750782 102.99948,129.472357 L103.039755,124.214616 C101.065534,123.311139 98.4179297,122.854128 95.1612419,122.854128 C92.7687175,122.854128 90.4984337,123.45457 88.0225314,124.743343 C84.4817932,127.776493 82.9696838,131.396727 82.9696838,136.836569 C82.9696838,145.327843 87.4480712,150.397154 94.9499705,150.397154 C98.9704855,150.397154 101.490197,149.777025 104.577302,148.027726 C104.706609,147.953901 104.859233,147.938433 105.000551,147.982728 C105.14187,148.027726 105.257045,148.128971 105.319931,148.262559 L105.615994,148.893235 C105.731169,149.139318 105.640725,149.431102 105.406842,149.569612 C102.155807,151.493279 99.3216623,152.209029 94.9499705,152.209029" id="Fill-15"></path>
                    <path d="M112.829745,123.08418 C113.421163,123.08418 114.054977,123.757042 114.054977,124.303346 C114.054977,124.850354 113.421163,125.481029 112.87214,125.481029 C112.280722,125.481029 111.688597,124.892539 111.688597,124.261863 C111.688597,123.757042 112.238326,123.08418 112.829745,123.08418 L112.829745,123.08418 Z M109.702363,151.345066 L109.744759,150.924616 L112.829745,150.714391 L112.829745,131.789897 L109.363905,131.578969 L109.406301,131.158518 L113.54835,131.158518 L113.67483,132.041605 L113.67483,150.714391 L117.055878,150.924616 L117.014189,151.345066 L109.702363,151.345066 Z" id="Fill-17"></path>
                    <path d="M112.829745,123.611501 C112.542161,123.611501 112.218542,124.03617 112.218542,124.261863 C112.218542,124.618332 112.586677,124.953709 112.87214,124.953709 C113.127927,124.953709 113.525032,124.559272 113.525032,124.303346 C113.525032,124.046717 113.130047,123.611501 112.829745,123.611501 M112.87214,126.00835 C111.975474,126.00835 111.158652,125.175886 111.158652,124.261863 C111.158652,123.494084 111.929545,122.556859 112.829745,122.556859 C113.698854,122.556859 114.584922,123.43854 114.584922,124.303346 C114.584922,125.148466 113.720759,126.00835 112.87214,126.00835 M117.014189,151.872387 L109.702363,151.872387 C109.552566,151.872387 109.409834,151.809109 109.309498,151.698723 C109.208455,151.588337 109.1597,151.440687 109.175245,151.292334 L109.217641,150.871181 C109.243078,150.615957 109.450816,150.415575 109.708723,150.398701 L112.2998,150.222224 L112.2998,132.285579 L109.331402,132.105587 C109.187964,132.096446 109.053711,132.030355 108.960441,131.920673 C108.86717,131.81099 108.822655,131.668965 108.836787,131.526237 L108.879182,131.105786 C108.90674,130.836501 109.134263,130.631197 109.406301,130.631197 L113.54835,130.631197 C113.811909,130.631197 114.035193,130.824548 114.072642,131.08399 L114.199829,131.967077 C114.203362,131.991685 114.204775,132.016997 114.204775,132.041605 L114.204775,150.218709 L117.089088,150.397998 C117.232527,150.406435 117.366779,150.473932 117.46005,150.582912 C117.55332,150.691892 117.597835,150.833917 117.583703,150.976645 L117.541308,151.397799 C117.514457,151.667084 117.286228,151.872387 117.014189,151.872387" id="Fill-19"></path>
                    <path d="M120.607145,151.345277 L120.64954,150.924124 L123.69213,150.714602 L123.69213,131.915259 L120.015726,131.915259 L120.015726,131.410437 L123.56565,131.158729 L124.326651,131.158729 L124.537216,132.504452 L124.537216,134.817633 C126.186404,132.209855 128.383909,130.82265 131.63777,130.82265 C137.174634,130.82265 139.076783,134.0604 139.076783,138.644577 L139.076783,150.714602 L142.711498,150.924124 L142.669102,151.345277 L138.230991,151.345277 L138.230991,138.728948 C138.230991,134.481554 136.54082,131.621365 131.63777,131.621365 C130.032391,131.621365 128.72166,131.99963 127.580512,132.504452 C126.396969,133.47191 125.298923,134.817633 124.537216,136.28921 L124.537216,150.714602 L127.918971,150.924124 L127.876575,151.345277 L120.607145,151.345277 Z" id="Fill-21"></path>
                    <path d="M124.222217,135.241388 L124.222217,135.756054 C124.299235,135.616138 124.379787,135.477628 124.462458,135.339822 C124.438434,135.336306 124.41441,135.331384 124.390386,135.324354 C124.328912,135.306776 124.271678,135.278652 124.222217,135.241388 M142.669244,151.872387 L138.231132,151.872387 C137.938603,151.872387 137.701187,151.636148 137.701187,151.345066 L137.701187,138.728737 C137.701187,134.239479 135.775014,132.149178 131.637912,132.149178 C130.331421,132.149178 129.129506,132.406511 127.861878,132.957737 C126.756766,133.873869 125.769656,135.096551 125.067302,136.418369 L125.067302,150.218709 L127.951615,150.397998 C128.095054,150.406435 128.229306,150.473932 128.322577,150.582912 C128.415847,150.691892 128.460362,150.833917 128.44623,150.976645 L128.403835,151.397799 C128.376984,151.667084 128.148755,151.872387 127.876716,151.872387 L120.607286,151.872387 C120.457488,151.872387 120.314756,151.809109 120.21442,151.698723 C120.114084,151.58904 120.065329,151.44139 120.080168,151.293037 L120.121857,150.871884 C120.147294,150.615957 120.355032,150.416279 120.612939,150.398701 L123.162327,150.222224 L123.162327,132.443072 L120.015161,132.443072 C119.722631,132.443072 119.485216,132.206832 119.485216,131.915751 L119.485216,131.410929 C119.485216,131.13391 119.700727,130.904701 119.977712,130.885014 L123.528342,130.632603 L124.326086,130.631197 C124.587525,130.631197 124.810102,130.821033 124.850378,131.077662 L125.060943,132.423385 C125.065182,132.450103 125.067302,132.47682 125.067302,132.504241 L125.067302,133.201008 C126.75606,131.225312 128.878665,130.295118 131.637912,130.295118 C136.925348,130.295118 139.606162,133.103981 139.606162,138.644366 L139.606162,150.2166 L142.742023,150.397998 C142.886874,150.405732 143.021127,150.472526 143.114397,150.581506 C143.208374,150.691892 143.253596,150.833917 143.238758,150.977348 L143.196362,151.397799 C143.169512,151.667084 142.941282,151.872387 142.669244,151.872387" id="Fill-23"></path>
                    <path d="M161.140295,148.359164 L161.140295,133.514026 C159.619,132.251971 157.251913,131.579109 154.969617,131.579109 C153.321842,131.579109 151.503778,132.083931 149.771211,132.967018 C147.869063,134.943417 146.516643,137.298784 146.516643,141.420324 C146.516643,146.845402 149.68642,150.924053 154.547074,150.924053 C156.279641,150.924053 157.547975,150.63016 159.06927,150.04167 C159.787876,149.57833 160.336899,149.158583 161.140295,148.359164 L161.140295,148.359164 Z M161.351566,151.345207 L161.140295,149.368808 C159.74548,150.63016 157.674456,151.681989 154.504679,151.681989 C149.43346,151.681989 145.671558,147.518263 145.671558,141.461807 C145.671558,134.354927 149.68642,130.82258 154.969617,130.82258 C157.886434,130.82258 159.74548,131.495441 161.140295,132.546567 L161.140295,119.29886 L157.463184,119.29886 L157.463184,118.836926 L160.971419,118.54233 L161.8589,118.54233 L161.98538,119.593456 L161.98538,150.714531 L165.662491,150.924053 L165.620095,151.345207 L161.351566,151.345207 Z" id="Fill-25"></path>
                    <path d="M161.371492,133.020875 C161.399756,133.043374 161.42802,133.065873 161.455577,133.089075 L161.455577,132.970252 C161.430846,132.988533 161.403996,133.004704 161.376438,133.018766 C161.374319,133.019469 161.372905,133.020172 161.371492,133.020875 M161.35736,148.886907 C161.39269,148.903078 161.425193,148.922062 161.455577,148.944561 L161.455577,148.791286 C161.422367,148.823629 161.389864,148.855268 161.35736,148.886907 M150.092853,133.396328 C148.502311,135.063365 147.04673,137.203585 147.04673,141.420043 C147.04673,146.705908 150.131009,150.397154 154.547216,150.397154 C156.072044,150.397154 157.276785,150.16443 158.82705,149.569612 C159.416349,149.187129 159.915204,148.815192 160.610491,148.138815 L160.610491,133.767562 C159.235461,132.724169 157.149598,132.106149 154.969758,132.106149 C153.456942,132.106149 151.772424,132.551911 150.092853,133.396328 M154.50482,152.209029 C149.079598,152.209029 145.141754,147.688834 145.141754,141.462229 C145.141754,134.574011 148.907189,130.294977 154.969758,130.294977 C157.285971,130.294977 159.106861,130.701366 160.610491,131.564766 L160.610491,119.825899 L157.463326,119.825899 C157.170796,119.825899 156.933381,119.589659 156.933381,119.298578 L156.933381,118.836645 C156.933381,118.563141 157.143945,118.333933 157.41881,118.311433 L160.927045,118.016837 L161.858335,118.014728 C162.12684,118.014728 162.35295,118.213703 162.384747,118.47877 L162.511934,119.530599 L162.515467,150.216459 L165.693016,150.397857 C165.837161,150.406295 165.97212,150.472386 166.066097,150.582068 C166.159367,150.691751 166.204589,150.833776 166.189751,150.977207 L166.147355,151.398361 C166.120505,151.667646 165.892275,151.872247 165.620237,151.872247 L161.351708,151.872247 C161.080376,151.872247 160.853559,151.669052 160.824589,151.401173 L160.71648,150.38942 C159.037615,151.59804 156.953165,152.209029 154.50482,152.209029" id="Fill-27"></path>
                    <path d="M169.467636,140.831131 L184.682707,140.537237 C184.682707,134.691709 182.020264,131.621295 177.751734,131.579109 C176.188044,131.579109 174.36998,132.041746 172.510933,133.177243 C170.735265,135.111456 169.510032,137.59338 169.467636,140.831131 L169.467636,140.831131 Z M169.467636,141.588364 C169.636512,147.349521 172.848685,150.924053 177.962299,150.924053 C180.794324,150.924053 183.161412,149.999484 184.978769,148.737429 L185.317227,149.284437 C183.541559,150.798903 181.047991,151.681989 177.962299,151.681989 C172.087684,151.681989 168.622551,147.476078 168.622551,141.125727 C168.622551,134.943417 172.299662,130.82258 177.751734,130.82258 C182.654078,130.82258 185.486103,134.144701 185.486103,140.284826 L185.232436,141.378138 L169.467636,141.588364 Z" id="Fill-29"></path>
                    <path d="M172.851864,133.587991 C171.116472,135.501815 170.164691,137.75453 170.017013,140.292701 L184.145342,140.0199 C184.003317,134.950588 181.743632,132.145944 177.746435,132.106571 C176.154481,132.106571 174.461483,132.618424 172.851864,133.587991 M177.962652,152.208748 C171.874646,152.208748 168.092253,147.962057 168.092253,141.125868 C168.092253,134.647555 171.974276,130.294696 177.751381,130.294696 C183.003488,130.294696 186.015695,133.936023 186.015695,140.284264 C186.015695,140.32434 186.011455,140.364417 186.002269,140.403087 L185.748602,141.497102 C185.693488,141.734045 185.482923,141.902084 185.239149,141.9056 L170.022665,142.108091 C170.356177,147.310991 173.294898,150.396873 177.962652,150.396873 C180.383441,150.396873 182.704599,149.673389 184.675287,148.305167 C184.794702,148.222202 184.943793,148.190562 185.086525,148.220795 C185.229963,148.250325 185.353617,148.338212 185.429929,148.461254 L185.768387,149.008964 C185.904759,149.229736 185.859537,149.515896 185.661691,149.685341 C183.725626,151.336207 181.063183,152.208748 177.962652,152.208748" id="Fill-31"></path>
                    <path d="M189.248429,151.345277 L189.290824,150.924124 L192.334121,150.714602 L192.334121,131.915259 L188.65701,131.915259 L188.65701,131.410437 L192.206934,131.158729 L192.967935,131.158729 C193.179206,132.377895 193.179206,133.514096 193.179206,134.733262 C195.376711,132.377895 198.927342,130.906318 202.56135,130.82265 L202.730933,131.453326 L202.56135,135.86876 L202.012327,135.827277 L201.885141,131.57918 C198.208736,131.915259 195.376711,133.092942 193.179206,135.784388 L193.179206,150.714602 L196.560255,150.924124 L196.517859,151.345277 L189.248429,151.345277 Z" id="Fill-33"></path>
                    <path d="M192.863854,135.156947 L192.863854,135.336236 C192.89777,135.295456 192.931687,135.256083 192.965603,135.216007 C192.92886,135.200539 192.894944,135.180149 192.863854,135.156947 M196.517647,151.872317 L189.248217,151.872317 C189.098419,151.872317 188.955687,151.809742 188.855351,151.698653 C188.755015,151.588267 188.70626,151.440617 188.721098,151.292264 L188.763494,150.871814 C188.788931,150.615887 188.99667,150.416208 189.254576,150.398631 L191.803964,150.222154 L191.803964,132.443002 L188.656798,132.443002 C188.364269,132.443002 188.126853,132.206762 188.126853,131.915681 L188.126853,131.410859 C188.126853,131.13384 188.341658,130.904631 188.619349,130.884944 L192.169273,130.632533 L192.967723,130.631127 C193.22563,130.631127 193.446087,130.816041 193.489895,131.069155 C193.635454,131.90865 193.684209,132.705256 193.701167,133.506081 C195.994062,131.55429 199.209767,130.371685 202.549126,130.295048 C202.797847,130.296454 203.010531,130.451135 203.073418,130.686671 L203.242294,131.317347 C203.256426,131.36797 203.262079,131.421405 203.259959,131.473434 L203.091083,135.888868 C203.08543,136.032299 203.021837,136.167294 202.914435,136.262211 C202.806326,136.357832 202.665714,136.400018 202.520862,136.395096 L201.971839,136.352911 C201.701921,136.332521 201.49065,136.111749 201.482877,135.843167 L201.372649,132.16317 C197.96263,132.568856 195.575052,133.759195 193.708939,135.973943 L193.708939,150.218639 L196.593253,150.397928 C196.736691,150.406365 196.870944,150.473862 196.964214,150.582842 C197.057484,150.692524 197.102,150.83455 197.087868,150.977278 L197.044766,151.398431 C197.017915,151.667013 196.790392,151.872317 196.517647,151.872317" id="Fill-35"></path>
                    <path d="M206.535513,140.831131 L221.750583,140.537237 C221.750583,134.691709 219.088846,131.621295 214.820317,131.579109 C213.25592,131.579109 211.438562,132.041746 209.578809,133.177243 C207.803847,135.111456 206.578615,137.59338 206.535513,140.831131 L206.535513,140.831131 Z M206.535513,141.588364 C206.705095,147.349521 209.916561,150.924053 215.030882,150.924053 C217.862907,150.924053 220.229994,149.999484 222.046645,148.737429 L222.385103,149.284437 C220.610141,150.798903 218.116574,151.681989 215.030882,151.681989 C209.156267,151.681989 205.691134,147.476078 205.691134,141.125727 C205.691134,134.943417 209.367538,130.82258 214.820317,130.82258 C219.721954,130.82258 222.553979,134.144701 222.553979,140.284826 L222.301019,141.378138 L206.535513,141.588364 Z" id="Fill-37"></path>
                    <path d="M209.919387,133.587991 C208.184701,135.501815 207.23292,137.75453 207.084535,140.292701 L221.213572,140.0199 C221.071547,134.950588 218.811862,132.145944 214.814664,132.106571 C213.22271,132.106571 211.529713,132.618424 209.919387,133.587991 M215.030882,152.208748 C208.942875,152.208748 205.161189,147.962057 205.161189,141.125868 C205.161189,134.647555 209.042505,130.294696 214.820317,130.294696 C220.071717,130.294696 223.083924,133.936023 223.083924,140.284264 C223.083924,140.32434 223.079684,140.364417 223.070499,140.402384 L222.816832,141.496399 C222.762424,141.733342 222.551859,141.902084 222.308085,141.9056 L207.090188,142.108091 C207.425113,147.310991 210.363834,150.396873 215.030882,150.396873 C217.452377,150.396873 219.772829,149.673389 221.743517,148.305167 C221.862931,148.222202 222.010609,148.190562 222.154754,148.220795 C222.297486,148.250325 222.421846,148.338212 222.498158,148.461254 L222.83591,149.008964 C222.972989,149.229033 222.927767,149.515896 222.729921,149.685341 C220.794562,151.336207 218.132119,152.208748 215.030882,152.208748" id="Fill-39"></path>
                    <polygon id="Fill-41" points="226.823851 151.345277 226.866953 150.924124 230.248001 150.714602 230.248001 119.29893 226.57089 119.29893 226.57089 118.836997 230.078419 118.5424 230.9659 118.5424 231.093087 119.593526 231.093087 150.714602 234.770197 150.924124 234.727802 151.345277"></polygon>
                    <path d="M234.727448,151.872598 L226.823498,151.872598 C226.674406,151.872598 226.530968,151.80932 226.430632,151.698934 C226.330295,151.588548 226.281541,151.440898 226.296379,151.292545 L226.339481,150.871392 C226.365625,150.614762 226.574777,150.41438 226.83339,150.397506 L229.717703,150.218217 L229.717703,119.826251 L226.570537,119.826251 C226.278008,119.826251 226.040592,119.590011 226.040592,119.29893 L226.040592,118.836997 C226.040592,118.56279 226.251157,118.334284 226.526022,118.311785 L230.034257,118.017188 L230.966253,118.015079 C231.234052,118.015079 231.460162,118.214055 231.491958,118.479122 L231.619145,119.530248 L231.622678,150.216811 L234.800934,150.397506 C234.945079,150.405943 235.080038,150.472737 235.173309,150.58242 C235.267286,150.691399 235.311801,150.834128 235.297669,150.977559 L235.254567,151.39801 C235.227716,151.667998 234.999487,151.872598 234.727448,151.872598" id="Fill-43"></path>
                    <polygon id="Fill-45" points="238.827596 151.345277 238.869992 150.924124 242.25104 150.714602 242.25104 119.29893 238.573929 119.29893 238.573929 118.836997 242.081458 118.5424 242.968939 118.5424 243.096126 119.593526 243.096126 150.714602 246.77253 150.924124 246.730841 151.345277"></polygon>
                    <path d="M246.730558,151.872598 L238.827314,151.872598 C238.678223,151.872598 238.535491,151.80932 238.434448,151.698934 C238.334112,151.589251 238.285357,151.441601 238.300195,151.293248 L238.342591,150.872095 C238.368028,150.614762 238.57718,150.41438 238.836499,150.397506 L241.720813,150.218217 L241.720813,119.826251 L238.573647,119.826251 C238.281117,119.826251 238.043702,119.590011 238.043702,119.29893 L238.043702,118.836997 C238.043702,118.56279 238.254267,118.334284 238.529131,118.311785 L242.037366,118.017188 L242.969363,118.015079 C243.237162,118.015079 243.463271,118.214055 243.495068,118.479122 L243.622255,119.530248 L243.625788,150.216811 L246.803337,150.397506 C246.947482,150.405943 247.081735,150.472737 247.175712,150.581717 C247.269689,150.690696 247.314204,150.833425 247.300072,150.976856 L247.257677,151.397306 C247.230826,151.667295 247.002596,151.872598 246.730558,151.872598" id="Fill-47"></path>
                    <path d="M265.116465,146.34051 L265.116465,141.630479 C261.692314,141.756333 255.141489,142.261155 252.22538,143.017685 C251.930024,143.817103 251.633961,145.036972 251.633961,146.467067 C251.633961,149.074141 253.282443,150.966872 256.747576,150.966872 C260.594269,150.966872 263.510379,148.485651 265.116465,146.34051 L265.116465,146.34051 Z M253.493714,137.256528 L252.817505,137.298713 L252.436651,132.336272 L252.563131,131.747079 C254.211613,131.242257 256.367429,130.822509 258.903391,130.822509 C263.720943,130.822509 265.960844,133.513955 265.960844,138.475694 L265.960844,150.714461 L269.723452,150.924686 L269.68035,151.345137 L265.327736,151.345137 L265.116465,147.434525 C263.340796,149.536778 260.508771,151.681919 256.705887,151.681919 C252.647922,151.681919 250.788876,149.368738 250.788876,146.677292 C250.788876,144.743079 251.210712,143.228613 251.591566,142.387712 C255.775304,141.462439 261.396959,141.083471 265.116465,140.915432 L265.116465,138.560768 C265.116465,134.270485 263.214316,131.536853 258.903391,131.536853 C256.917158,131.536853 254.718947,131.958007 253.535403,132.294086 L253.493714,137.256528 Z" id="Fill-49"></path>
                    <path d="M252.970553,132.371989 L253.001643,132.774862 L253.005882,132.29043 C253.005882,132.245432 253.012242,132.202543 253.022841,132.161061 L253.015775,132.16317 L252.970553,132.371989 Z M265.317561,146.946437 C265.357837,146.962608 265.395993,146.984404 265.431323,147.009715 L265.431323,146.800193 C265.39458,146.848003 265.35713,146.895814 265.317561,146.946437 L265.317561,146.946437 Z M252.632095,143.460494 C252.425769,144.087654 252.163623,145.145811 252.163623,146.466926 C252.163623,148.991739 253.834716,150.43941 256.748,150.43941 C260.794659,150.43941 263.512216,147.554613 264.586237,146.163189 L264.586237,142.179455 C261.018649,142.336245 255.396994,142.808022 252.632095,143.460494 L252.632095,143.460494 Z M256.705604,152.209099 C251.947406,152.209099 250.258648,149.229385 250.258648,146.677151 C250.258648,144.304207 250.852893,142.7349 251.10868,142.171018 C251.177219,142.019853 251.313592,141.908764 251.476815,141.872906 C254.654364,141.170515 259.062799,140.678348 264.586237,140.412579 L264.586237,138.560628 C264.586237,134.249955 262.674196,132.064737 258.903109,132.064737 C257.06738,132.064737 255.147566,132.42683 254.062239,132.700334 L254.023376,137.260606 C254.021257,137.538328 253.804333,137.765428 253.526642,137.783005 L252.850432,137.825191 C252.563555,137.84558 252.311301,137.626918 252.28869,137.337946 L251.907837,132.376208 C251.904304,132.326288 251.907837,132.274962 251.918436,132.225745 L252.044916,131.636552 C252.085898,131.449529 252.22439,131.29977 252.407398,131.243522 C254.462877,130.614253 256.64837,130.295048 258.903109,130.295048 C263.866926,130.295048 266.491212,133.123597 266.491212,138.476256 L266.491212,150.215826 L269.752846,150.397928 C269.897698,150.405662 270.031951,150.472456 270.125928,150.581435 C270.219904,150.691821 270.265126,150.83455 270.250288,150.977278 L270.207892,151.398431 C270.180335,151.667717 269.952106,151.872317 269.680067,151.872317 L265.327454,151.872317 C265.046229,151.872317 264.81376,151.653655 264.798215,151.37312 L264.654777,148.711907 C263.043038,150.307229 260.355864,152.209099 256.705604,152.209099 L256.705604,152.209099 Z" id="Fill-51"></path>
                    <path d="M77.9165536,171.165092 L77.9165536,186.430681 L84.2561073,186.430681 C86.6648833,186.430681 88.6935122,185.925859 90.300305,185.00129 C91.6527243,183.36097 92.2441428,181.636982 92.2441428,178.776793 C92.2441428,173.982392 89.4552196,171.165092 84.2985029,171.165092 L77.9165536,171.165092 Z M73.1830862,199.846429 L73.2254818,199.383792 L77.0714682,199.215753 L77.0714682,171.038535 L73.1830862,170.828309 L73.2254818,170.407859 L84.4673787,170.407859 C89.9194513,170.407859 93.1316237,173.604127 93.1316237,178.776793 C93.1316237,184.706693 90.2155139,187.187914 83.7487734,187.187914 L77.9165536,187.187914 L77.9165536,199.215753 L82.7348123,199.425978 L82.6924167,199.846429 L73.1830862,199.846429 Z" id="Fill-53"></path>
                    <path d="M78.4464985,185.90329 L84.2561073,185.90329 C86.4847021,185.90329 88.4002761,185.462449 89.951248,184.592018 C91.2188761,183.023414 91.7141979,181.382392 91.7141979,178.776723 C91.7141979,174.208015 89.0807253,171.692342 84.2985029,171.692342 L78.4464985,171.692342 L78.4464985,185.90329 Z M82.6924167,200.373679 L73.1830862,200.373679 C73.033995,200.373679 72.8919698,200.311104 72.7916336,200.202124 C72.6912974,200.092441 72.6418359,199.946198 72.6552611,199.798548 L72.6976567,199.335209 C72.7216809,199.072954 72.9371918,198.868354 73.2021642,198.857104 L76.5415234,198.710861 L76.5415234,171.537661 L73.1541159,171.35556 C73.0099709,171.347123 72.874305,171.281032 72.7803281,171.172052 C72.6863512,171.062369 72.6411293,170.918938 72.6559677,170.775507 L72.6983633,170.355056 C72.7252138,170.085771 72.9534434,169.880468 73.2254818,169.880468 L84.4673787,169.880468 C90.1384952,169.880468 93.6615686,173.289773 93.6615686,178.776723 C93.6615686,184.958331 90.6048467,187.715164 83.7487734,187.715164 L78.4464985,187.715164 L78.4464985,198.710861 L82.7581298,198.89929 C82.903688,198.905618 83.0400605,198.971709 83.1354506,199.080688 C83.2308407,199.190371 83.2760626,199.334505 83.2619308,199.47864 L83.2195352,199.898387 C83.1926846,200.168376 82.9651616,200.373679 82.6924167,200.373679 L82.6924167,200.373679 Z" id="Fill-55"></path>
                    <path d="M97.1059982,199.846429 L97.1483938,199.425978 L100.190984,199.215753 L100.190984,180.41641 L96.5145797,180.41641 L96.5145797,179.912291 L100.064504,179.65988 L100.825504,179.65988 C101.036069,180.879046 101.036069,182.015247 101.036069,183.234413 C103.23428,180.879046 106.784204,179.407469 110.419626,179.323801 L110.588502,179.954477 L110.419626,184.369911 L109.869897,184.328428 L109.743417,180.080331 C106.066306,180.41641 103.23428,181.594797 101.036069,184.286243 L101.036069,199.215753 L104.417824,199.425978 L104.375428,199.846429 L97.1059982,199.846429 Z" id="Fill-57"></path>
                    <path d="M100.72107,183.658098 L100.72107,183.83809 C100.754986,183.797311 100.788903,183.757234 100.823526,183.717158 C100.786783,183.70169 100.75216,183.6813 100.72107,183.658098 M104.37557,200.373468 L97.1061395,200.373468 C96.9563418,200.373468 96.8136099,200.310893 96.7132737,200.199804 C96.6129375,200.090121 96.5641826,199.942471 96.579021,199.794118 L96.62071,199.374371 C96.6461474,199.117741 96.8531792,198.918062 97.1110857,198.900485 L99.6611803,198.724008 L99.6611803,180.944153 L96.5140144,180.944153 C96.2214849,180.944153 95.9840696,180.707913 95.9840696,180.416832 L95.9840696,179.912713 C95.9840696,179.635694 96.1995805,179.406485 96.476565,179.386798 L100.026489,179.133684 L100.824939,179.132278 C101.083552,179.132278 101.304009,179.317192 101.347818,179.571009 C101.49267,180.409801 101.541425,181.206407 101.558383,182.007232 C103.851278,180.055441 107.06769,178.872836 110.407049,178.796199 C110.655063,178.799714 110.868454,178.952286 110.931341,179.187823 L111.100217,179.818498 C111.114349,179.869121 111.120001,179.922556 111.117881,179.974585 L110.949006,184.390019 C110.943353,184.533451 110.87976,184.668445 110.772357,184.763363 C110.664955,184.858983 110.522223,184.902575 110.378785,184.896247 L109.829762,184.854062 C109.559137,184.833672 109.347866,184.6129 109.340093,184.344318 L109.230571,180.664321 C105.820553,181.070007 103.432974,182.261049 101.566155,184.475797 L101.566155,198.720493 L104.450469,198.900485 C104.593907,198.908922 104.72816,198.975716 104.82143,199.084696 C104.9147,199.194379 104.959216,199.336404 104.945084,199.478429 L104.902688,199.898879 C104.875838,200.168165 104.647608,200.373468 104.37557,200.373468" id="Fill-59"></path>
                    <path d="M117.520958,181.636701 C115.407538,183.781139 114.477661,186.26236 114.477661,189.79541 C114.477661,195.262674 117.225602,199.4264 122.973031,199.4264 C124.621512,199.4264 126.481265,198.920875 128.341019,197.659523 C129.988794,195.472899 130.79219,193.706726 130.79219,189.836893 C130.79219,183.570914 127.199871,180.08005 122.804155,180.08005 C120.521859,180.08005 119.127044,180.627057 117.520958,181.636701 M131.679671,189.879782 C131.679671,196.062092 128.763561,200.18293 122.973031,200.18293 C116.633477,200.18293 113.547785,195.851164 113.547785,189.753225 C113.547785,182.940238 117.520958,179.32352 122.930635,179.32352 C127.664102,179.32352 131.679671,182.814384 131.679671,189.879782" id="Fill-61"></path>
                    <path d="M117.856307,182.05005 C115.860181,184.095352 115.00803,186.416268 115.00803,189.79534 C115.00803,195.495328 117.985614,198.899009 122.973454,198.899009 C124.64808,198.899009 126.374287,198.336533 127.969775,197.272048 C129.522866,195.197216 130.261963,193.531585 130.261963,189.836823 C130.261963,184.316827 127.264595,180.6073 122.803872,180.6073 C120.611314,180.6073 119.321075,181.135324 117.856307,182.05005 M122.973454,200.71018 C116.73989,200.71018 113.018264,196.613951 113.018264,189.753154 C113.018264,182.995009 116.816202,178.796129 122.931059,178.796129 C127.210894,178.796129 132.209333,181.699206 132.209333,189.879711 C132.209333,196.661059 128.756919,200.71018 122.973454,200.71018" id="Fill-63"></path>
                    <path d="M139.373269,171.585331 C139.964688,171.585331 140.598502,172.258193 140.598502,172.804497 C140.598502,173.351505 139.964688,173.982181 139.415665,173.982181 C138.824246,173.982181 138.232121,173.39369 138.232121,172.763015 C138.232121,172.258193 138.781851,171.585331 139.373269,171.585331 L139.373269,171.585331 Z M135.484887,205.608078 C137.936059,204.093612 139.373269,202.328141 139.373269,198.290269 L139.373269,180.291048 L135.90743,180.08012 L135.949826,179.659669 L140.091875,179.659669 L140.218355,180.542756 L140.218355,198.080747 C140.218355,201.864802 139.034811,204.303837 135.823345,206.112196 L135.484887,205.608078 Z" id="Fill-65"></path>
                    <path d="M139.373269,172.112652 C139.085686,172.112652 138.762066,172.537321 138.762066,172.763015 C138.762066,173.119484 139.130201,173.45486 139.415665,173.45486 C139.671452,173.45486 140.068557,173.060424 140.068557,172.804497 C140.068557,172.547868 139.673571,172.112652 139.373269,172.112652 M139.415665,174.509502 C138.518998,174.509502 137.702177,173.677038 137.702177,172.763015 C137.702177,171.995235 138.47307,171.05801 139.373269,171.05801 C140.242379,171.05801 141.128447,171.939691 141.128447,172.804497 C141.128447,173.649617 140.264283,174.509502 139.415665,174.509502 M135.823345,206.639517 C135.651643,206.639517 135.483474,206.556552 135.382431,206.404684 L135.043973,205.900565 C134.964128,205.781742 134.936571,205.635498 134.966954,205.495583 C134.997338,205.35637 135.083542,205.234734 135.205783,205.159503 C137.509277,203.737143 138.843324,202.156586 138.843324,198.290269 L138.843324,180.78673 L135.874927,180.606738 C135.731488,180.597597 135.597236,180.531507 135.503965,180.421824 C135.410695,180.312141 135.36618,180.170116 135.380311,180.027388 L135.422707,179.606937 C135.450264,179.337652 135.677787,179.132348 135.949826,179.132348 L140.091875,179.132348 C140.355434,179.132348 140.578717,179.325699 140.616167,179.585141 L140.743353,180.468228 C140.746886,180.492836 140.7483,180.518148 140.7483,180.542756 L140.7483,198.080747 C140.7483,202.191038 139.353485,204.730616 136.084078,206.571317 C136.002113,206.617721 135.912376,206.639517 135.823345,206.639517" id="Fill-67"></path>
                    <path d="M147.784059,189.332985 L162.99913,189.038388 C162.99913,183.19286 160.336687,180.122446 156.068157,180.08026 C154.504467,180.08026 152.686403,180.542897 150.827356,181.678394 C149.051688,183.613311 147.826455,186.094531 147.784059,189.332985 L147.784059,189.332985 Z M147.784059,190.089515 C147.952935,195.851375 151.165108,199.425908 156.278722,199.425908 C159.110747,199.425908 161.477835,198.500635 163.295192,197.23858 L163.63365,197.785588 C161.857982,199.300054 159.364414,200.183141 156.278722,200.183141 C150.404107,200.183141 146.938974,195.977229 146.938974,189.626879 C146.938974,183.444568 150.616085,179.323731 156.068157,179.323731 C160.970501,179.323731 163.802526,182.645853 163.802526,188.785978 L163.548859,189.87929 L147.784059,190.089515 Z" id="Fill-69"></path>
                    <path d="M151.168287,182.089142 C149.407457,184.030386 148.476874,186.229666 148.332729,188.794555 L162.461765,188.521051 C162.31974,183.45174 160.060055,180.647095 156.062858,180.607722 C154.470904,180.607722 152.777906,181.119575 151.168287,182.089142 M156.279075,200.709899 C150.191069,200.709899 146.408676,196.463208 146.408676,189.627019 C146.408676,183.148706 150.290699,178.795847 156.067804,178.795847 C161.319911,178.795847 164.332118,182.437174 164.332118,188.785415 C164.332118,188.825491 164.327878,188.865568 164.318692,188.904238 L164.065025,189.998253 C164.009911,190.235196 163.799346,190.403236 163.555572,190.406751 L148.339088,190.609242 C148.6726,195.812845 151.611321,198.898727 156.279075,198.898727 C158.699157,198.898727 161.020315,198.175243 162.99171,196.806318 C163.111125,196.723353 163.260216,196.69312 163.402948,196.721947 C163.546386,196.751477 163.67004,196.839363 163.746352,196.962405 L164.08481,197.510116 C164.221182,197.730887 164.17596,198.017047 163.978114,198.186493 C162.042049,199.837359 159.379606,200.709899 156.279075,200.709899" id="Fill-71"></path>
                    <path d="M183.836208,186.136084 L183.159998,186.093899 L183.583248,181.258717 C182.82154,180.795378 179.990221,180.080331 178.046384,180.080331 C175.848173,180.080331 174.284482,180.669524 172.298249,181.931579 C170.480891,183.950163 169.508619,186.178973 169.508619,189.500392 C169.508619,195.599034 172.255853,199.425978 177.580739,199.425978 C180.32868,199.425978 182.314913,198.836785 184.385937,197.449579 L184.723689,198.038069 C182.69506,199.468164 180.624036,200.183211 177.53905,200.183211 C171.875706,200.183211 168.663533,196.06167 168.663533,189.543281 C168.663533,183.150745 172.678396,179.323801 178.003988,179.323801 C180.371075,179.323801 182.864642,179.870106 184.301146,180.711007 L184.470022,181.468239 L183.836208,186.136084 Z" id="Fill-73"></path>
                    <path d="M177.538909,200.71018 C171.649455,200.71018 168.133447,196.535908 168.133447,189.542929 C168.133447,183.115239 172.100261,178.796129 178.003847,178.796129 C180.476923,178.796129 183.054575,179.369151 184.570217,180.256456 C184.696697,180.330984 184.786434,180.453322 184.818231,180.596754 L184.987813,181.353987 C185.001239,181.415156 185.003359,181.477731 184.995586,181.5389 L184.361065,186.206745 C184.324323,186.480952 184.079135,186.681334 183.803563,186.663054 L183.127354,186.620868 C182.984622,186.611728 182.851782,186.545637 182.758512,186.438063 C182.665242,186.33049 182.619313,186.190574 182.632032,186.047846 L183.024191,181.56843 C182.053332,181.155714 179.688365,180.6073 178.046242,180.6073 C176.112297,180.6073 174.642583,181.076967 172.645044,182.336913 C170.818501,184.386434 170.038422,186.533684 170.038422,189.500743 C170.038422,195.561419 172.717117,198.899009 177.581304,198.899009 C180.203471,198.899009 182.089368,198.352001 184.089734,197.011903 C184.211974,196.930344 184.363185,196.903626 184.505917,196.935969 C184.649355,196.969717 184.773009,197.061119 184.845788,197.187676 L185.18354,197.776167 C185.319206,198.011703 185.252786,198.311222 185.030209,198.468715 C182.800908,200.039428 180.560301,200.71018 177.538909,200.71018" id="Fill-75"></path>
                    <path d="M199.8563,199.468093 C198.588672,199.719801 197.574004,199.846358 196.306376,199.846358 C193.728017,199.846358 192.333202,198.080185 192.333202,195.304367 L192.333202,180.291189 L188.107069,180.164632 L188.148758,179.65981 L192.333202,179.65981 L192.671661,173.477499 L193.178288,173.436017 L193.178288,179.65981 L199.560944,179.65981 L199.517842,180.164632 L193.178288,180.291189 L193.178288,195.682632 C193.178288,197.995813 194.615498,199.173497 196.26398,199.173497 L199.813904,199.173497 L199.8563,199.468093 Z" id="Fill-77"></path>
                    <path d="M196.306093,200.373749 C193.486786,200.373749 191.802975,198.47891 191.802975,195.304438 L191.802975,180.802409 L188.091241,180.692023 C187.945683,180.687101 187.808604,180.623823 187.711094,180.516249 C187.614997,180.407973 187.566242,180.264542 187.578255,180.120407 L187.62065,179.616288 C187.643261,179.342785 187.872904,179.132559 188.149182,179.132559 L191.831239,179.132559 L192.14214,173.448743 C192.156272,173.185785 192.363303,172.973451 192.627569,172.952358 L193.134903,172.910172 C193.283288,172.896814 193.428846,172.948139 193.537661,173.047979 C193.646476,173.147115 193.708657,173.288437 193.708657,173.436087 L193.708657,179.132559 L199.560661,179.132559 C199.709046,179.132559 199.850364,179.194432 199.9507,179.302708 C200.051037,179.411688 200.101205,179.557228 200.089193,179.704175 L200.046091,180.208294 C200.02348,180.477579 199.800196,180.686398 199.528864,180.692023 L193.708657,180.808034 L193.708657,195.682702 C193.708657,197.87003 195.0851,198.646246 196.263697,198.646246 L199.813621,198.646246 C200.077181,198.646246 200.301171,198.838894 200.33862,199.099039 L200.381016,199.392933 C200.420585,199.670655 200.236164,199.930097 199.959886,199.984938 C198.553059,200.26477 197.528499,200.373749 196.306093,200.373749" id="Fill-79"></path>
                    <g id="Group" transform="translate(92.913250, 0.633088)">
                        <path d="M47.884582,47.5076082 C47.785659,47.5076082 47.6846161,47.4935463 47.5849865,47.4640163 C47.023245,47.3001953 46.7024517,46.7138144 46.8677945,46.1548542 L60.2930641,0.805254216 C60.4577003,0.246294029 61.0462924,-0.0750201911 61.6087406,0.0923163176 C62.1704821,0.256137353 62.4912754,0.842518228 62.3259326,1.40147841 L48.9006629,46.7510784 C48.764997,47.2101992 48.3424543,47.5076082 47.884582,47.5076082" id="Fill-81"></path>
                        <path d="M61.3091451,43.0109669 C61.0597177,43.0109669 60.8088771,42.9237831 60.6074981,42.7466033 C60.1694103,42.3606044 60.1277213,41.6947738 60.5149344,41.2581521 L71.1138315,29.3210124 C71.5017511,28.8836876 72.1716014,28.8443143 72.6103958,29.228907 C73.0484835,29.6149059 73.0901725,30.2814396 72.7029595,30.7180613 L62.1040624,42.6544979 C61.8942042,42.8907377 61.6023812,43.0109669 61.3091451,43.0109669" id="Fill-83"></path>
                        <path d="M71.9073356,47.5076082 C71.4120138,47.5076082 70.9696865,47.1609826 70.8693503,46.6596762 C70.7541756,46.0880603 71.1265502,45.5326155 71.7010104,45.4187142 L84.0663904,42.9578832 C84.6394374,42.8453881 85.1983526,43.2152158 85.3128207,43.7854255 C85.4279953,44.3570414 85.0556208,44.9124861 84.4811605,45.0263875 L72.1157806,47.4872185 C72.0458278,47.5005773 71.9758751,47.5076082 71.9073356,47.5076082" id="Fill-85"></path>
                        <path d="M81.8006994,61.5694997 C81.6777522,61.5694997 81.5526853,61.5484069 81.4311512,61.5034088 L54.2273153,51.4301728 C53.678999,51.2269785 53.3991882,50.6195048 53.6033936,50.0732003 C53.8068924,49.5275989 54.4180955,49.2512828 54.9664117,49.4530709 L82.1702477,59.5263069 C82.7185639,59.7295012 82.9983748,60.3369749 82.7941694,60.8825763 C82.6351859,61.3072454 82.2303081,61.5694997 81.8006994,61.5694997" id="Fill-87"></path>
                        <path d="M78.0903789,75.8071648 C77.8642691,75.8071648 77.6360395,75.7347461 77.4431396,75.5870962 L69.670615,69.6107923 C69.2070899,69.2550265 69.1222987,68.5920083 69.4798349,68.1314814 C69.8380776,67.6709544 70.5036883,67.5865831 70.9665068,67.9416458 L78.7390314,73.9179497 C79.2025565,74.2737155 79.2873476,74.9367337 78.9298115,75.3972607 C78.7213665,75.6665459 78.4076392,75.8071648 78.0903789,75.8071648" id="Fill-89"></path>
                        <path d="M66.6093002,93.9118501 C66.1881707,93.9118501 65.7896522,93.6608453 65.6243094,93.2481288 L52.0223914,59.3174878 C51.8054673,58.7761049 52.0704398,58.1630065 52.6145165,57.9471564 C53.15718,57.7327126 53.7747424,57.9949669 53.9916665,58.5363497 L67.5935845,92.4662877 C67.8105086,93.0076705 67.5455361,93.6207689 67.0014594,93.8373221 C66.8728595,93.8879449 66.74002,93.9118501 66.6093002,93.9118501" id="Fill-91"></path>
                        <path d="M43.9993796,83.8014907 C43.9456785,83.8014907 43.8912709,83.7972722 43.8368632,83.788835 C43.2581634,83.7002451 42.8617647,83.1623778 42.9507954,82.5858402 L45.0705748,68.875496 C45.158899,68.2996616 45.7036823,67.9059286 46.2788491,67.9945185 C46.8575489,68.0831084 47.2539476,68.6209758 47.1649169,69.1975133 L45.0451375,82.9078575 C44.9652924,83.4288506 44.5137794,83.8014907 43.9993796,83.8014907" id="Fill-93"></path>
                        <path d="M14.0095176,93.9118501 C13.7537309,93.9118501 13.4972376,93.8204478 13.2937387,93.6341277 C12.8620103,93.2410979 12.83304,92.5738611 13.2287322,92.1442703 L33.4775718,70.1711587 C33.8739706,69.7436772 34.5438209,69.7134441 34.9748427,70.1071771 C35.4065711,70.500207 35.4355414,71.1674437 35.0398492,71.5970345 L14.7910096,93.5701461 C14.581858,93.7965426 14.2963944,93.9118501 14.0095176,93.9118501" id="Fill-95"></path>
                        <path d="M9.34727473,65.9371232 C8.84276723,65.9371232 8.39549377,65.5771388 8.30504985,65.065989 C8.20330044,64.4922638 8.58768711,63.9452563 9.16426711,63.8433075 L43.0807379,57.8880965 C43.6559047,57.7861478 44.2070473,58.1693343 44.3087967,58.7437626 C44.4105462,59.3167847 44.0261595,59.8637923 43.4495795,59.965741 L9.53310873,65.9216551 C9.47022194,65.9322015 9.40874834,65.9371232 9.34727473,65.9371232" id="Fill-97"></path>
                        <path d="M37.8618409,49.5373016 C37.7007377,49.5373016 37.5375147,49.5007407 37.384184,49.4241034 L12.5587406,36.9273004 C12.0365682,36.6643431 11.8274167,36.0301518 12.0916825,35.5105649 C12.3559483,34.990978 12.9932953,34.7835651 13.5154677,35.0451163 L38.3409111,47.5412161 C38.8630834,47.8041735 39.072235,48.4390679 38.8079691,48.9586548 C38.6214286,49.3256702 38.2483474,49.5373016 37.8618409,49.5373016" id="Fill-99"></path>
                        <path d="M38.6981646,33.0879822 C38.2409988,33.0879822 37.8184561,32.7912763 37.6827902,32.3328586 L32.0293385,13.355633 C31.8632891,12.7973759 32.1833758,12.2102919 32.7444108,12.0443616 C33.3068589,11.8812437 33.8961576,12.1983393 34.0615004,12.7565964 L39.7142455,31.7338221 C39.8810015,32.2920791 39.5609148,32.8791631 38.9998798,33.0443903 C38.8995436,33.0739203 38.7977942,33.0879822 38.6981646,33.0879822" id="Fill-101"></path>
                        <path d="M15.0276477,53.1323648 L1.24908141,53.1323648 C0.663315695,53.1323648 0.189191697,52.6598852 0.189191697,52.0777229 C0.189191697,51.4955606 0.663315695,51.0230811 1.24908141,51.0230811 L15.0276477,51.0230811 C15.6134134,51.0230811 16.0875374,51.4955606 16.0875374,52.0777229 C16.0875374,52.6598852 15.6134134,53.1323648 15.0276477,53.1323648" id="Fill-103"></path>
                    </g>
                </g>
            </g>
        </g>
    </g>
</svg>