<?xml version="1.0" encoding="UTF-8"?>
<svg width="19px" height="28px" viewBox="0 0 19 28" version="1.1" xmlns="http://www.w3.org/2000/svg" xmlns:xlink="http://www.w3.org/1999/xlink">
    <!-- Generator: Sketch 41.1 (35376) - http://www.bohemiancoding.com/sketch -->
    <title>get involved icon</title>
    <desc>Created with Sketch.</desc>
    <defs></defs>
    <g id="Symbols" stroke="none" stroke-width="1" fill="none" fill-rule="evenodd">
        <g id="dropdown---logged-in" transform="translate(-20.000000, -155.000000)" fill="#FFFFFF">
            <g id="dropdown---logged-out" transform="translate(0.000000, -2.000000)">
                <g id="get-involved-icon" transform="translate(20.000000, 157.000000)">
                    <path d="M2.90709237,14.3189652 L2.90709237,12.2443232 L4.89776462,12.2443232 C5.24274463,12.2443232 5.5223795,11.9646354 5.5223795,11.6196554 C5.5223795,11.2746754 5.24274463,10.9950405 4.89776462,10.9950405 L2.90709237,10.9950405 L2.90709237,8.68404478 L6.0220185,8.68404478 C6.36699851,8.68404478 6.6466863,8.40440991 6.6466863,8.05942989 C6.6466863,7.71444988 6.36699851,7.43481501 6.0220185,7.43481501 L2.90709237,7.43481501 L2.90709237,5.36006711 L16.8888889,5.36006711 L13.8183022,9.47755172 C13.6532198,9.69893153 13.653061,10.0024822 13.8180377,10.2240207 L16.8673541,14.3190182 L2.90709237,14.3190182 L2.90709237,14.3189652 Z M2.28247749,1.5788322 C2.48872474,1.5788322 2.65650566,1.74661312 2.65650566,1.95280746 C2.65650566,2.15905472 2.48867183,2.32683564 2.28247749,2.32683564 C2.07617732,2.32683564 1.90850222,2.15905472 1.90850222,1.95280746 C1.90844931,1.74661312 2.07617732,1.5788322 2.28247749,1.5788322 L2.28247749,1.5788322 Z M15.0980617,9.85120952 L18.6346888,5.10884547 C18.7759084,4.91942393 18.798184,4.66650914 18.6922561,4.45534116 C18.5863281,4.24417318 18.3702394,4.11078443 18.1338858,4.11078443 L2.90703946,4.11078443 L2.90703946,3.31426156 C3.4221814,3.07700843 3.78081246,2.55615211 3.78081246,1.95280746 C3.78081246,1.12665441 3.10868346,0.454472491 2.28247749,0.454472491 C1.45627152,0.454472491 0.784089606,1.12665441 0.784089606,1.95280746 C0.784089606,2.5560992 1.14266776,3.07690261 1.65770387,3.31420865 L1.65770387,26.2956448 L0.866101726,26.2956448 C0.521174624,26.2956448 0.241433929,26.5753326 0.241433929,26.9203126 C0.241433929,27.2652926 0.521174624,27.5449275 0.866101726,27.5449275 L3.69880034,27.5449275 C4.04372744,27.5449275 4.32346814,27.2652926 4.32346814,26.9203126 C4.32346814,26.5753326 4.04372744,26.2956448 3.69880034,26.2956448 L2.90703946,26.2956448 L2.90703946,15.5682479 L18.1112399,15.5682479 C18.3473819,15.5682479 18.5634177,15.4350179 18.6693985,15.2238499 C18.7753793,15.0127878 18.7532625,14.7599788 18.6122016,14.5705044 L15.0980617,9.85120952 Z" id="get-involved"></path>
                </g>
            </g>
        </g>
    </g>
</svg>