<?xml version="1.0" encoding="UTF-8"?>
<svg width="19px" height="26px" viewBox="0 0 19 26" version="1.1" xmlns="http://www.w3.org/2000/svg" xmlns:xlink="http://www.w3.org/1999/xlink">
    <!-- Generator: Sketch 41.1 (35376) - http://www.bohemiancoding.com/sketch -->
    <title>account icon</title>
    <desc>Created with Sketch.</desc>
    <defs></defs>
    <g id="Symbols" stroke="none" stroke-width="1" fill="none" fill-rule="evenodd">
        <g id="dropdown---logged-in" transform="translate(-20.000000, -307.000000)" fill="#FFFFFF">
            <g id="dropdown---logged-out" transform="translate(0.000000, -2.000000)">
                <g id="account-icon" transform="translate(20.000000, 309.000000)">
                    <path d="M17.3940383,24.2197271 L1.14642739,24.2197271 L1.14642739,20.5743951 C1.14642739,19.1222868 2.32778267,17.9409315 3.77979191,17.9409315 C3.80040184,17.9409315 4.33626004,17.9275053 4.66691071,17.8323826 C5.22803588,19.871329 7.10126059,21.3381021 9.27025761,21.3381021 C11.4392051,21.3381021 13.3124298,19.871329 13.873555,17.8323826 C14.1958329,17.9203216 14.7400143,17.9409315 14.7605747,17.9409315 C16.2126335,17.9409315 17.3939887,19.1222868 17.3939887,20.5743951 L17.3939887,24.2197271 L17.3940383,24.2197271 Z M7.93095892,14.4772246 C8.36327203,14.6298669 8.81247934,14.7089377 9.26708685,14.7089377 C9.73090938,14.7089377 10.1809589,14.6278356 10.609259,14.4760851 C10.8625729,15.7525136 11.681669,16.8274998 12.7937135,17.4274173 C12.4025707,19.0285512 10.954079,20.1917242 9.27030715,20.1917242 C7.58648573,20.1917242 6.13804359,19.0285512 5.74685125,17.4273677 C6.85844984,16.8275989 7.67744687,15.7530586 7.93095892,14.4772246 L7.93095892,14.4772246 Z M5.4531102,9.51265893 C5.75453043,9.30145669 6.07779918,9.12919532 6.41830892,9.00058143 C6.85636903,8.83748553 7.32009247,8.74701983 7.79674666,8.73176055 C7.89375205,8.72873842 8.17689088,8.73443588 8.22038973,8.73443588 C9.48884178,8.73428725 10.6291258,8.09319951 11.2181438,7.03976452 C11.2804194,6.92839162 11.3396235,6.81464066 11.3955576,6.6990566 C12.1363261,7.12324465 12.7649785,7.75006398 13.2244412,8.521351 C13.2160685,8.55340538 13.2098756,8.58640109 13.2071507,8.62058583 C13.0955301,10.0006089 12.6180832,11.2687637 11.8627491,12.1915536 C11.1389739,13.0756998 10.2171749,13.5626094 9.26708685,13.5626094 C7.50042936,13.5626094 5.93466915,11.8785898 5.4531102,9.51265893 L5.4531102,9.51265893 Z M3.78687658,9.4651471 C3.68258835,9.10937808 3.60421116,8.74157009 3.55243862,8.36385347 C3.51557855,8.11058913 3.49323461,7.84761435 3.48406913,7.55981846 C3.43001761,5.86831786 3.91484641,4.26634164 4.84927887,3.04891899 C5.75770119,1.86553244 6.98478475,1.19055722 8.304613,1.14839604 C8.34880545,1.14695929 9.28730044,1.09077741 10.2699879,1.58219544 C10.3544589,1.62445571 10.4536442,1.64471884 10.5472311,1.64164716 C10.5579324,1.64130036 10.9334691,1.62391073 10.9419905,1.62396028 C12.0531432,1.6313422 13.1153969,2.15862944 13.9331058,3.10871751 C14.777667,4.09001774 15.2676979,5.40984599 15.3129307,6.82504471 C15.3420125,7.73326887 15.185605,8.61206442 14.8631784,9.39811528 C14.7692943,9.09565464 14.6539084,8.80008049 14.5171694,8.5127305 C13.8438787,7.08019169 12.7113233,5.97092163 11.3281295,5.38918652 C11.1840086,5.32854576 11.0212595,5.32948708 10.8779313,5.39166367 C10.7344545,5.45384027 10.6226357,5.57200057 10.5684355,5.71859861 C10.4710833,5.98162294 10.3529726,6.23790941 10.2174722,6.48027426 C9.81879884,7.19334814 9.01773642,7.61674349 8.12923042,7.58642311 C8.00651215,7.58226149 7.88240668,7.58206332 7.76003522,7.58597722 C7.1589783,7.60524949 6.5728834,7.71969406 6.01567213,7.92723011 C5.46376196,8.13570749 4.95059451,8.43167798 4.48687107,8.80627338 C4.46883738,8.81965002 3.96533083,9.26479479 3.78687658,9.4651471 L3.78687658,9.4651471 Z M14.891418,16.7979721 C14.8713531,16.7958418 12.1073929,16.8671343 11.6859297,13.9153563 C12.6983926,13.2033723 13.5087196,12.05531 13.9667951,10.64784 C13.9850765,10.7843313 13.9999394,10.9216152 14.0083618,11.0602864 C14.0227293,11.298341 14.1830012,11.5026072 14.4107508,11.5732556 C14.4667345,11.5905462 14.5238082,11.5989685 14.5803864,11.5989685 C14.754035,11.5989685 14.9222338,11.5197986 15.0327149,11.3779072 C16.0069305,10.1266466 16.5133601,8.49672807 16.4588131,6.78853145 C16.4052075,5.11248829 15.8168832,3.54013885 14.8020423,2.36101301 C13.7677309,1.15939461 12.4043047,0.490959068 10.9613619,0.477830145 C10.8877408,0.474609844 10.6749037,0.482437654 10.6332379,0.485360697 C9.88156995,0.138806695 9.08635361,-0.0231497064 8.26795111,0.00266225001 C6.5983981,0.0560201713 5.06142243,0.890028758 3.93991522,2.3510053 C2.84456677,3.77799528 2.27576241,5.64086548 2.33823626,7.5965299 C2.34883849,7.92772554 2.37499724,8.23276242 2.41740614,8.5242245 C2.53160299,9.35768811 2.76108664,10.1558275 3.0996642,10.8965464 C3.18775184,11.0893186 3.37502477,11.2177839 3.58662336,11.2304174 C3.79886601,11.2429518 3.99951557,11.13797 4.10999669,10.9571376 C4.18000109,10.8426435 4.27343939,10.693717 4.37752944,10.5545999 C4.41542992,10.5033724 4.4543708,10.4536806 4.49370802,10.404732 C4.80067708,11.4544513 5.30685896,12.3979501 5.96464273,13.1283145 C6.24010238,13.4341937 6.53869866,13.6984566 6.85418913,13.919072 C6.37565231,16.8958693 3.66896399,16.7958913 3.64889904,16.7980217 C1.62516239,16.8673325 7.10542736e-14,18.5341111 7.10542736e-14,20.5744447 L7.10542736e-14,24.7929408 C7.10542736e-14,25.1095212 0.256583727,25.3661049 0.573164152,25.3661049 L17.9671034,25.3661049 C18.2836342,25.3661049 18.5402675,25.1095212 18.5402675,24.7929408 L18.5402675,20.5744447 C18.5403666,18.5340615 16.9151051,16.8672334 14.891418,16.7979721 L14.891418,16.7979721 Z" id="Fill-1"></path>
                </g>
            </g>
        </g>
    </g>
</svg>