<?xml version="1.0" encoding="UTF-8"?>
<svg width="23px" height="18px" viewBox="0 0 23 18" version="1.1" xmlns="http://www.w3.org/2000/svg" xmlns:xlink="http://www.w3.org/1999/xlink">
    <!-- Generator: Sketch 41.1 (35376) - http://www.bohemiancoding.com/sketch -->
    <title>resource kit icon</title>
    <desc>Created with Sketch.</desc>
    <defs></defs>
    <g id="Symbols" stroke="none" stroke-width="1" fill="none" fill-rule="evenodd">
        <g id="dropdown---logged-in" transform="translate(-18.000000, -259.000000)" fill="#FFFFFF">
            <g id="resource-kit-icon" transform="translate(18.000000, 259.000000)">
                <g id="resource-kit">
                    <path d="M9.16172656,14.5033534 L13.8382285,14.5033534 L13.8382285,13.338812 L9.16172656,13.338812 L9.16172656,14.5033534 Z M14.036334,12.443594 L8.96366602,12.443594 C8.58133594,12.443594 8.2703418,12.7559098 8.2703418,13.1398647 L8.2703418,14.7023008 C8.2703418,15.0862556 8.58133594,15.3985714 8.96366602,15.3985714 L14.0363789,15.3985714 C14.418709,15.3985714 14.729748,15.0862556 14.729748,14.7023008 L14.729748,13.1398647 C14.7296582,12.7559098 14.4186641,12.443594 14.036334,12.443594 L14.036334,12.443594 Z" id="Fill-1"></path>
                    <path d="M22.0095041,16.3960737 C22.0095041,16.7120436 21.7535393,16.9690511 21.4389514,16.9690511 L1.56111152,16.9690511 C1.24647871,16.9690511 0.990513867,16.7119985 0.990513867,16.3960737 L0.990513867,9.38514135 C0.990513867,9.06926165 1.24643379,8.81216391 1.56111152,8.81216391 L6.81243379,8.81216391 C6.82716816,8.81216391 6.84068965,8.82091579 6.84679902,8.83449474 L7.4889123,10.2649308 C7.65476387,10.6344045 8.0226291,10.8730962 8.42620723,10.8730962 L14.5737658,10.8730962 C14.9773439,10.8730962 15.3452541,10.6343594 15.5110607,10.2649759 L16.1532639,8.83449474 L16.1532639,8.83444962 C16.1593732,8.82091579 16.1728049,8.81216391 16.1875842,8.81216391 L21.4388615,8.81216391 C21.7534943,8.81216391 22.0094592,9.06926165 22.0094592,9.38514135 L22.0094592,16.3960737 L22.0095041,16.3960737 Z M4.44482637,2.38309624 C4.54545137,2.18329173 4.74634199,2.05923158 4.96910957,2.05923158 L5.6043498,2.05923158 L5.6043498,2.8488406 L5.01174043,2.8488406 C4.76556855,2.8488406 4.56602559,3.04918647 4.56602559,3.29644962 L4.56602559,5.69766767 L4.01460957,5.69766767 C3.7684377,5.69766767 3.56889473,5.89801353 3.56889473,6.14527669 L3.56889473,7.81742707 L1.70773652,7.81742707 L4.44482637,2.38309624 Z M5.45745527,5.69766767 L17.5425178,5.69766767 L17.5425178,3.74405865 L5.45745527,3.74405865 L5.45745527,5.69766767 Z M6.49577949,2.8488406 L16.5041936,2.8488406 L16.5041936,0.895231579 L6.49577949,0.895231579 L6.49577949,2.8488406 Z M18.5396936,6.59288571 L18.5396936,7.81742707 L16.1876291,7.81742707 C15.784051,7.81742707 15.4161408,8.05620902 15.2503342,8.42563759 L14.6081311,9.85616391 C14.6020666,9.86965263 14.58859,9.87840451 14.5738107,9.87840451 L8.42620723,9.87840451 C8.41147285,9.87840451 8.39799629,9.86965263 8.39188691,9.8561188 L7.74977363,8.42568271 C7.58392207,8.05620902 7.21601191,7.81742707 6.81243379,7.81742707 L4.46032441,7.81742707 L4.46032441,6.59288571 L18.5396936,6.59288571 Z M17.3956232,2.05923158 L18.0309084,2.05923158 C18.2536311,2.05923158 18.4545217,2.18329173 18.5551467,2.38309624 L21.2922365,7.81747218 L19.4310783,7.81747218 L19.4310783,6.1453218 C19.4310783,5.89805865 19.2315803,5.69771278 18.9853635,5.69771278 L18.4339924,5.69771278 L18.4339924,3.29649474 C18.4339924,3.04923158 18.2344494,2.84888571 17.9882326,2.84888571 L17.3956232,2.84888571 L17.3956232,2.05923158 Z M22.774299,8.57396842 L22.7814416,8.5703594 L19.4390295,1.93408872 C19.1688244,1.39769774 18.6293127,1.06453985 18.0309084,1.06453985 L17.3956232,1.06453985 L17.3956232,0.447622556 C17.3956232,0.200359398 17.1960803,-3.15789474e-05 16.9499084,-3.15789474e-05 L6.05006465,-3.15789474e-05 C5.80389277,-3.15789474e-05 5.6043498,0.200359398 5.6043498,0.447622556 L5.6043498,1.06453985 L4.96910957,1.06453985 C4.37070527,1.06453985 3.83119355,1.39769774 3.56098848,1.93408872 L0.218531445,8.5703594 L0.225674023,8.57396842 C0.0825080078,8.81076541 -1.34765614e-05,9.0884797 -1.34765614e-05,9.38514135 L-1.34765614e-05,16.3960737 C-1.34765614e-05,17.2605248 0.700318555,17.963788 1.56111152,17.963788 L21.4389514,17.963788 C22.2996994,17.963788 22.9999865,17.2604797 22.9999865,16.3960737 L22.9999865,9.38514135 C22.9999865,9.0884797 22.91751,8.81076541 22.774299,8.57396842 L22.774299,8.57396842 Z" id="Fill-3"></path>
                </g>
            </g>
        </g>
    </g>
</svg>