<?xml version="1.0" encoding="UTF-8"?>
<svg width="25px" height="15px" viewBox="0 0 25 15" version="1.1" xmlns="http://www.w3.org/2000/svg" xmlns:xlink="http://www.w3.org/1999/xlink">
    <!-- Generator: Sketch 41.1 (35376) - http://www.bohemiancoding.com/sketch -->
    <title>Contact Us icon</title>
    <desc>Created with Sketch.</desc>
    <defs></defs>
    <g id="Symbols" stroke="none" stroke-width="1" fill="none" fill-rule="evenodd">
        <g id="dropdown---logged-in" transform="translate(-17.000000, -360.000000)" fill="#FFFFFF">
            <g id="dropdown---logged-out" transform="translate(0.000000, -2.000000)">
                <g id="Contact-Us-icon" transform="translate(17.000000, 362.000000)">
                    <path d="M16.61001,9.21269336 L22.6073924,13.8562999 L2.2095989,13.8842871 L8.2426794,9.21264494 C8.48621241,9.02404579 8.53044705,8.67415683 8.3416253,8.43103582 C8.15270654,8.18791481 7.80222466,8.143755 7.55869164,8.33230574 L1.13278623,13.3081276 L1.11678028,1.65250626 L12.1014238,9.23080275 C12.1968775,9.29670351 12.3077551,9.32958126 12.4186812,9.32958126 C12.5300924,9.32958126 12.641455,9.29631614 12.7371997,9.22988276 L23.7006475,1.62112956 L23.7174295,13.305755 L17.2940948,8.33225731 C17.0505618,8.14380342 16.7000799,8.18791481 16.5111611,8.43103582 C16.3221939,8.67415683 16.366477,9.02414263 16.61001,9.21269336 L16.61001,9.21269336 Z M22.4733304,1.11590657 L12.4177112,8.09465628 L2.34201179,1.14345802 L22.4733304,1.11590657 Z M24.815923,1.11271079 C24.815535,0.815116339 24.6990795,0.535437595 24.4879464,0.325291171 C24.2772984,0.115435271 23.9974367,0 23.6999685,0 L23.6983194,0 L1.11450064,0.0309409137 C0.816401879,0.031425122 0.536346191,0.147683547 0.325795144,0.358411022 C0.115292601,0.569090076 -0.000435295578,0.849107765 1.23043444e-06,1.1466538 L0.0176077796,13.8872408 C0.0183838258,14.5011201 0.51888515,15 1.13375629,15 L1.13516287,15 L23.7189331,14.9689622 C24.0170804,14.9685749 24.2971361,14.8523165 24.5076871,14.6415406 C24.7181897,14.4308615 24.8339176,14.1508438 24.833481,13.8532978 L24.815923,1.11271079 Z" id="Contact-Us"></path>
                </g>
            </g>
        </g>
    </g>
</svg>