<?xml version="1.0" encoding="UTF-8"?>
<svg width="25px" height="24px" viewBox="0 0 25 24" version="1.1" xmlns="http://www.w3.org/2000/svg" xmlns:xlink="http://www.w3.org/1999/xlink">
    <!-- Generator: Sketch 41.1 (35376) - http://www.bohemiancoding.com/sketch -->
    <title>boutique day icon</title>
    <desc>Created with Sketch.</desc>
    <defs></defs>
    <g id="Symbols" stroke="none" stroke-width="1" fill="none" fill-rule="evenodd">
        <g id="dropdown---logged-in" transform="translate(-17.000000, -110.000000)" fill="#FFFFFF">
            <g id="dropdown---logged-out" transform="translate(0.000000, -2.000000)">
                <g id="boutique-day-icon" transform="translate(17.500000, 112.000000)">
                    <path d="M12.0001781,16.6148055 C12.2531625,16.6148055 12.5061,16.6763026 12.7366781,16.7991541 L17.4336,19.3027105 C17.590725,19.3865442 17.7190687,19.3134986 17.766975,19.2783303 C17.8148344,19.2430669 17.9229281,19.1419343 17.8929281,18.9644293 L16.9958812,13.66176 C16.9078031,13.1411263 17.0779125,12.6101798 17.4509906,12.2413877 L21.2509125,8.48607683 C21.3781312,8.36037386 21.3493031,8.21409267 21.3310219,8.15706297 C21.3126937,8.09998574 21.2512406,7.96449267 21.0755062,7.93863921 L15.8241469,7.16498376 C15.3085687,7.08903921 14.8630219,6.76092832 14.6324906,6.28715406 L12.2840062,1.46263129 L12.2840062,1.46258376 C12.20535,1.30109465 12.0592875,1.28370059 12.0001781,1.28370059 C11.940975,1.28370059 11.7949125,1.30114218 11.7163031,1.46258376 L9.36781875,6.28705901 C9.13719375,6.76083327 8.69169375,7.08899168 8.17606875,7.16488871 L2.92480312,7.93854416 C2.74906875,7.96439762 2.68752187,8.09993822 2.6692875,8.15696792 C2.65100625,8.21404515 2.62217812,8.36027881 2.74935,8.48598178 L6.54927187,12.2413402 C6.92244375,12.6100848 7.09255312,13.1410788 7.004475,13.661665 L6.10742812,18.9643343 C6.07742812,19.1417917 6.18552187,19.2429719 6.23338125,19.2781877 C6.28124062,19.3134511 6.4095375,19.3863541 6.56675625,19.3025679 L11.2636781,16.7991065 C11.4942094,16.6763026 11.7471937,16.6148055 12.0001781,16.6148055 M17.5824281,20.6250392 C17.33085,20.6250867 17.0780531,20.5635422 16.8444281,20.4390273 L12.1475062,17.9354709 C12.0552094,17.8862828 11.9451,17.8862828 11.85285,17.9354709 L7.15592812,20.4390273 C6.6187875,20.7252689 5.979975,20.6785521 5.48900625,20.3167937 C4.99808437,19.9551778 4.75686562,19.3537996 4.85942812,18.7473838 L5.75642812,13.4447145 C5.77405312,13.3406352 5.739975,13.2343699 5.66539687,13.1606115 L1.86552187,9.40530059 C1.43089687,8.97581941 1.27742812,8.34549861 1.46502187,7.76032634 C1.65256875,7.17510653 2.14208437,6.75665109 2.74264687,6.66820752 L7.99400625,5.8945996 C8.09713125,5.87934416 8.18619375,5.81376 8.23236562,5.71904317 L10.58085,0.894520396 C10.8493969,0.34275802 11.3932406,9.5049505e-06 12.0001312,9.5049505e-06 C12.606975,9.5049505e-06 13.1508187,0.34275802 13.4193656,0.894520396 L15.76785,5.71894812 C15.8139281,5.81371248 15.9030844,5.87934416 16.0061625,5.89450455 L21.2575687,6.66816 C21.8581312,6.75660356 22.3476937,7.17505901 22.5352406,7.76023129 C22.7227406,8.34545109 22.5692719,8.97577188 22.1347406,9.40525307 L18.3348187,13.160564 C18.2602406,13.2343224 18.2261625,13.3405402 18.2437875,13.4446669 L19.1407875,18.7472887 C19.2434437,19.353657 19.0021781,19.9550352 18.5112094,20.3167461 C18.23385,20.5212451 17.9091937,20.6250392 17.5824281,20.6250392" id="Fill-1"></path>
                    <path d="M18.3514078,2.99312317 C18.2223609,2.99312317 18.0922359,2.9532499 17.9797828,2.87050931 C17.6968922,2.66216079 17.6342203,2.26076673 17.8397203,1.97395485 L18.5117672,1.03619644 C18.7172672,0.749479604 19.1131266,0.68584396 19.3960641,0.894192475 C19.6789547,1.10254099 19.7416266,1.50398257 19.5361266,1.79074693 L18.8640797,2.72855287 C18.7402359,2.90135287 18.5472047,2.99312317 18.3514078,2.99312317" id="Fill-3"></path>
                    <path d="M5.64591562,2.98939723 C5.45011875,2.98939723 5.2570875,2.89767446 5.13315,2.72473188 L4.46115,1.78697347 C4.25565,1.50020911 4.31832187,1.09876752 4.60116562,0.89041901 C4.88410312,0.68211802 5.28005625,0.745753663 5.48550937,1.03237545 L6.15750937,1.97018139 C6.36300937,2.25694574 6.3003375,2.65838733 6.01749375,2.86673584 C5.90518125,2.94952396 5.7749625,2.98939723 5.64591562,2.98939723" id="Fill-5"></path>
                    <path d="M0.633117188,15.5996198 C0.366257813,15.5996198 0.118101563,15.4272 0.0311484375,15.1558812 C-0.0768984375,14.8187881 0.105070313,14.4566495 0.437601563,14.3470574 L1.52496094,13.9888634 C1.85753906,13.8792713 2.21467969,14.0638099 2.32272656,14.400903 C2.43077344,14.7380911 2.24885156,15.1001822 1.91627344,15.2097267 L0.828914063,15.5679683 C0.763898438,15.589402 0.697945313,15.5996198 0.633117188,15.5996198" id="Fill-7"></path>
                    <path d="M12.0002438,23.9705347 C11.6506031,23.9705347 11.36715,23.6831525 11.36715,23.3286653 L11.36715,22.1694416 C11.36715,21.8149545 11.6506031,21.5275723 12.0002438,21.5275723 C12.3498844,21.5275723 12.6333375,21.8149545 12.6333375,22.1694416 L12.6333375,23.3286653 C12.6333375,23.6831525 12.3498844,23.9705347 12.0002438,23.9705347" id="Fill-10"></path>
                    <path d="M23.3667984,15.600518 C23.3019703,15.600518 23.2360641,15.5903002 23.1710484,15.5689141 L22.0836891,15.21072 C21.7511578,15.1011279 21.5691891,14.7390844 21.6772359,14.4018962 C21.7853297,14.0647081 22.1425641,13.8803121 22.4750016,13.9897616 L23.5623609,14.3479556 C23.8949391,14.4575477 24.0768609,14.8196388 23.9688141,15.1567794 C23.8818609,15.4280507 23.6337047,15.600518 23.3667984,15.600518" id="Fill-12"></path>
                </g>
            </g>
        </g>
    </g>
</svg>