<?xml version="1.0" encoding="UTF-8"?>
<svg width="23px" height="20px" viewBox="0 0 23 20" version="1.1" xmlns="http://www.w3.org/2000/svg" xmlns:xlink="http://www.w3.org/1999/xlink">
    <!-- Generator: Sketch 41.1 (35376) - http://www.bohemiancoding.com/sketch -->
    <title>Refer a Student icon</title>
    <desc>Created with Sketch.</desc>
    <defs></defs>
    <g id="Symbols" stroke="none" stroke-width="1" fill="none" fill-rule="evenodd">
        <g id="dropdown---logged-in" transform="translate(-18.000000, -207.000000)" fill="#FFFFFF">
            <g id="dropdown---logged-out" transform="translate(0.000000, -2.000000)">
                <g id="Refer-a-Student-icon" transform="translate(18.000000, 209.000000)">
                    <path d="M19.8149315,10.1954701 L19.8149315,6.23506579 C20.7388892,6.42040163 21.4370889,7.23774385 21.4370889,8.21528944 C21.4370889,9.19279207 20.7388892,10.0101773 19.8149315,10.1954701 L19.8149315,10.1954701 Z M18.7520128,14.8103927 C18.7520128,14.8181257 18.7520128,14.8242263 18.7405402,14.8309712 C18.7268761,14.8388761 18.7186691,14.8343652 18.7121378,14.8307134 C15.4450496,13.0039482 11.9029612,11.9073993 8.17696645,11.5673592 L8.17696645,4.86364932 C11.903262,4.52309364 15.4453934,3.42641586 18.7120519,1.5999084 C18.718755,1.59621371 18.727048,1.59170275 18.7405402,1.59960767 C18.7520128,1.60635262 18.7520128,1.61241019 18.7520128,1.62014325 L18.7520128,14.8103927 Z M9.52562754,18.88675 C9.52111582,18.8932372 9.51776425,18.8932372 9.51325253,18.8932372 L7.03451253,18.8932372 C7.02819612,18.8932372 7.02239534,18.8892418 7.02046174,18.8840005 L4.73306172,12.5723572 L7.24295408,12.5723572 L9.52738926,18.8728305 C9.52906504,18.8771696 9.53018223,18.8802629 9.52562754,18.88675 L9.52562754,18.88675 Z M1.56291109,9.72976765 L1.56291109,6.70240081 C1.56291109,6.52866457 1.70436431,6.3871924 1.87825896,6.3871924 L2.56043131,6.3871924 L2.56043131,10.045019 L1.87825896,10.045019 C1.70436431,10.045019 1.56291109,9.90363277 1.56291109,9.72976765 L1.56291109,9.72976765 Z M3.62335001,5.52001486 C3.62335001,5.19062917 3.89138926,4.92263544 4.22087387,4.92263544 L7.11404774,4.92263544 L7.11404774,11.5096619 C7.11404774,11.5096619 4.19560822,11.5085449 4.18301837,11.5077286 C4.0764558,11.4953987 4.05402609,11.4899426 3.97745573,11.4572919 C3.76905715,11.3638936 3.62330705,11.1549289 3.62330705,10.9122395 L3.62330705,5.52001486 L3.62335001,5.52001486 Z M22.5000076,8.21528944 C22.5000076,6.65046037 21.3274756,5.35517165 19.8149315,5.15931025 L19.8149315,1.62014325 C19.8149315,1.23035372 19.6143533,0.880045782 19.2783804,0.682938496 C18.9411184,0.485143827 18.5354502,0.481019525 18.1933328,0.67232701 C14.9266742,2.49887743 11.3731132,3.5655681 7.63139185,3.8429704 C7.60273168,3.84507551 4.22087387,3.85985426 4.22087387,3.85985426 C3.37146703,3.85985426 2.66948607,4.50096848 2.57233366,5.32445419 L1.87825896,5.32445419 C1.11831312,5.32445419 0.499992383,5.94262697 0.499992383,6.70240081 L0.499992383,9.72981061 C0.499992383,10.4896274 1.11831312,11.1078432 1.87825896,11.1078432 L2.57233366,11.1078432 C2.64224387,11.7004539 3.02539648,12.1982915 3.55137731,12.4309709 L6.02143761,19.2467673 C6.17582444,19.6710119 6.58291066,19.9560614 7.0345555,19.9560614 L9.5132955,19.9560614 C9.86469418,19.9560614 10.1947803,19.7843014 10.3963469,19.4965024 C10.5979564,19.2086604 10.6465111,18.8397072 10.5265853,18.5101067 L8.4044002,12.6572061 C11.8626135,13.016407 15.1521744,14.0577934 18.1933757,15.7582519 C18.3611688,15.8521227 18.5442588,15.8988648 18.7270909,15.8988648 C18.916884,15.8988218 19.1065053,15.8483851 19.2783374,15.7475974 C19.6143103,15.5504901 19.8149315,15.2001822 19.8149315,14.8103497 L19.8149315,11.2711827 C21.3274756,11.0753213 22.5000076,9.78003259 22.5000076,8.21528944 L22.5000076,8.21528944 Z" id="Refer-a-Student"></path>
                </g>
            </g>
        </g>
    </g>
</svg>