<?xml version="1.0" encoding="UTF-8"?>
<svg width="19px" height="25px" viewBox="0 0 19 25" version="1.1" xmlns="http://www.w3.org/2000/svg" xmlns:xlink="http://www.w3.org/1999/xlink">
    <!-- Generator: Sketch 41.1 (35376) - http://www.bohemiancoding.com/sketch -->
    <title>About icon</title>
    <desc>Created with Sketch.</desc>
    <defs></defs>
    <g id="Symbols" stroke="none" stroke-width="1" fill="none" fill-rule="evenodd">
        <g id="dropdown---logged-in" transform="translate(-20.000000, -60.000000)" fill="#FFFFFF">
            <g id="dropdown---logged-out" transform="translate(0.000000, -2.000000)">
                <g id="About-icon" transform="translate(20.000000, 62.000000)">
                    <path d="M1.60205861,21.7191451 L1.60205861,5.4305853 C2.00234055,5.76621972 2.48906131,6.00142047 3.02343237,6.09856124 L3.02343237,23.6127121 C2.20325632,23.3735889 1.60205861,22.6154939 1.60205861,21.7191451 L1.60205861,21.7191451 Z M3.57441325,1.10205861 L15.5929439,1.10205861 C15.1449633,1.63633282 14.874509,2.32430833 14.874509,3.07446167 C14.874509,3.82461502 15.1449633,4.51259053 15.5929439,5.04686474 L14.3674497,5.04686474 L11.2842715,5.04686474 L3.57441325,5.04686474 C2.48683375,5.04686474 1.60201018,4.16204117 1.60201018,3.07446167 C1.60201018,1.98688218 2.48683375,1.10205861 3.57441325,1.10205861 L3.57441325,1.10205861 Z M17.3979414,1.18094311 L17.3979414,4.96802867 C16.5777653,4.72895391 15.9765676,3.97081042 15.9765676,3.07446167 C15.9765676,2.17811293 16.5777653,1.42006629 17.3979414,1.18094311 L17.3979414,1.18094311 Z M11.8352524,6.1490202 L13.816372,6.1490202 L13.816372,9.38197725 L13.1583716,8.89201201 C12.9629763,8.74644614 12.6952339,8.74649456 12.4998386,8.89220571 L11.8352524,9.38778826 L11.8352524,6.1490202 Z M4.12544255,6.1490202 L10.7331454,6.1490202 L10.7331454,10.4861181 C10.7331454,10.6945882 10.8508184,10.8851894 11.0371098,10.9786499 C11.1152679,11.0178742 11.1998666,11.0371474 11.2841262,11.0371474 C11.4007339,11.0371474 11.5166152,11.0001991 11.6136591,10.927852 L12.8295167,10.0210918 L14.0383043,10.9212177 C14.2055162,11.0457187 14.4285622,11.0651856 14.6147083,10.9716767 C14.8009513,10.8781678 14.918479,10.6876634 14.918479,10.4792418 L14.918479,6.14897177 L17.3979414,6.14897177 L17.3979414,23.6914998 L4.12544255,23.6914998 L4.12544255,6.1490202 Z M17.9489707,0 L3.57441325,0 C1.8791955,0 0.5,1.3791955 0.5,3.07446167 L0.5,21.7190967 C0.5,23.4144113 1.8791955,24.7935584 3.57446167,24.7935584 L17.9489707,24.7935584 C18.2532741,24.7935584 18.5,24.5468809 18.5,24.2425291 C18.5,24.2308586 18.4989831,24.2194787 18.4982567,24.2079536 C18.4989831,24.1964284 18.5,24.1850001 18.5,24.1733296 L18.5,5.5979909 L18.5,0.551029303 C18.5,0.2466775 18.2532741,0 17.9489707,0 L17.9489707,0 Z" id="About"></path>
                </g>
            </g>
        </g>
    </g>
</svg>