<?xml version="1.0" encoding="UTF-8"?>
<svg width="21px" height="27px" viewBox="0 0 21 27" version="1.1" xmlns="http://www.w3.org/2000/svg" xmlns:xlink="http://www.w3.org/1999/xlink">
    <!-- Generator: Sketch 41.1 (35376) - http://www.bohemiancoding.com/sketch -->
    <title>Page 1</title>
    <desc>Created with Sketch.</desc>
    <defs></defs>
    <g id="Symbols" stroke="none" stroke-width="1" fill="none" fill-rule="evenodd">
        <g id="dropdown---logged-in" transform="translate(-20.000000, -351.000000)" fill="#FFFFFF">
            <g id="dropdown---logged-out" transform="translate(0.000000, -2.000000)">
                <g id="Page-1" transform="translate(20.000000, 353.454472)">
                    <path d="M10.4914027,1.1952312 C10.2668798,1.1952312 10.0423569,1.22778735 9.82405807,1.29305347 L1.3910653,3.81289966 C1.26653277,3.85012134 1.17954723,3.96788745 1.17954723,4.09944507 L1.17954723,11.1753069 C1.17954723,14.2077971 2.07025084,17.1273406 3.75526048,19.6184246 C5.40135687,22.0520354 7.69162193,23.9239373 10.3785593,25.0318206 C10.4513761,25.0618132 10.5314292,25.0618132 10.604246,25.0318206 C13.2911834,23.9239373 15.5814484,22.0519841 17.2275448,19.6184246 C18.9125545,17.1273406 19.8032581,14.2076946 19.8032581,11.1753069 L19.8032581,4.09944507 C19.8032581,3.96788745 19.7162725,3.85007007 19.5917906,3.81289966 L11.1586966,1.29310474 C10.9403978,1.22783862 10.7158749,1.1952312 10.4914027,1.1952312 M10.4914027,26.2499846 C10.3025545,26.2499846 10.1137063,26.212968 9.9339159,26.1388323 C7.03242434,24.9424578 4.55938337,22.9213616 2.78227735,20.294157 C0.962108675,17.6032756 5.06024094e-06,14.4500457 5.06024094e-06,11.1753582 L5.06024094e-06,4.09944507 C5.06024094e-06,3.44175952 0.434780964,2.85257007 1.05744361,2.66656421 L9.49038578,0.146769287 C10.1452822,-0.0489265137 10.8376243,-0.0489265137 11.4923183,0.146769287 L19.9253617,2.66661548 C20.5479737,2.85257007 20.9827496,3.44181079 20.9827496,4.09949634 L20.9827496,11.1753582 C20.9827496,14.4500457 20.020646,17.6032244 18.2004267,20.294157 C16.4233713,22.9214128 13.9502798,24.9424578 11.0487882,26.1388323 C10.869099,26.2128655 10.6802508,26.2499846 10.4914027,26.2499846" id="Fill-1"></path>
                    <path d="M4.50122096,6.39237231 L4.50122096,11.1753069 C4.50122096,13.5735417 5.21684024,15.8733391 6.57070771,17.826093 C7.59145952,19.2984514 8.94456795,20.5209221 10.4913824,21.369843 C12.0382475,20.5209221 13.3913559,19.2984514 14.4121077,17.826093 C15.7659246,15.8733391 16.4815945,13.5735417 16.4815945,11.1753069 L16.4815945,6.39237231 L10.4913824,4.60245044 L4.50122096,6.39237231 Z M10.4913824,22.6048748 C10.3506571,22.6048748 10.210033,22.5708831 10.0818065,22.5028484 C8.31188602,21.5636931 6.76395831,20.1840813 5.60556795,18.5130535 C4.1114812,16.3580413 3.3217294,13.8206609 3.3217294,11.1753069 L3.3217294,6.1689397 C3.3217294,5.77436938 3.58263542,5.42086597 3.95618241,5.30920093 L10.2411535,3.431198 C10.4049535,3.3822356 10.5778619,3.38228687 10.7415101,3.431198 L17.0266836,5.30920093 C17.40018,5.4208147 17.661086,5.77431812 17.661086,6.1689397 L17.661086,11.1753069 C17.661086,13.8206609 16.8713342,16.3580413 15.3771969,18.5130535 C14.2187559,20.18403 12.6708788,21.5636931 10.9010089,22.5028484 C10.7727318,22.5708831 10.6320571,22.6048748 10.4913824,22.6048748 L10.4913824,22.6048748 Z" id="Fill-4"></path>
                </g>
            </g>
        </g>
    </g>
</svg>