<?xml version="1.0" standalone="no"?>
<!DOCTYPE svg PUBLIC "-//W3C//DTD SVG 1.1//EN" "http://www.w3.org/Graphics/SVG/1.1/DTD/svg11.dtd" >
<svg xmlns="http://www.w3.org/2000/svg">
<metadata></metadata>
<defs>
<font id="st_marie_thinthin" horiz-adv-x="495" >
<font-face units-per-em="2048" ascent="1536" descent="-512" />
<missing-glyph horiz-adv-x="428" />
<glyph horiz-adv-x="0" />
<glyph horiz-adv-x="0" />
<glyph horiz-adv-x="682" />
<glyph unicode="&#xd;" horiz-adv-x="0" />
<glyph unicode=" "  horiz-adv-x="428" />
<glyph unicode="&#x09;" horiz-adv-x="428" />
<glyph unicode="&#xa0;" horiz-adv-x="428" />
<glyph unicode="!" d="M195 57q0 25 17 42.5t40 17.5q25 0 42 -17.5t17 -42.5q0 -23 -17 -40t-42 -17q-23 0 -40 17t-17 40zM229 1434h50l-3 -713l-4 -404h-36l-5 404z" />
<glyph unicode="&#x22;" horiz-adv-x="430" d="M82 1434h51l-8 -451h-35zM297 1434h51l-8 -451h-35z" />
<glyph unicode="#" horiz-adv-x="1503" d="M55 340l4 37h365l90 534h-393l4 37h395l84 486h41l-84 -486h514l84 486h41l-84 -486h332l-4 -37h-334l-90 -534h362l-4 -37h-364l-82 -483h-41l82 483h-514l-82 -483h-41l82 483h-363zM465 377h514l90 534h-514z" />
<glyph unicode="$" horiz-adv-x="1216" d="M201 88l35 373q5 0 15 -1t15 -1l-24 -371q157 -68 352 -68v699q-206 74 -291.5 162t-85.5 229q0 139 106 230t271 106v205h41v-201q173 0 340 -47l8 -23l-27 -250q-5 0 -15 1.5t-15 1.5l12 237q-49 17 -133 30t-143 13q-5 0 -14 -1t-13 -1v-666q340 -126 391 -339 q10 -48 10 -91q0 -130 -105 -224.5t-296 -104.5v-179h-41v177q-129 0 -210 18.5t-177 58.5zM262 1110q0 -90 33 -149.5t100.5 -102.5t198.5 -96v647q-59 -6 -113 -24t-105.5 -51t-82.5 -91t-31 -133zM635 23q151 10 276 92q84 101 84 200q0 128 -81.5 220.5t-278.5 166.5 v-679z" />
<glyph unicode="%" horiz-adv-x="2189" d="M164 1034q0 190 108 303t279 113q189 0 293 -110.5t104 -295.5q0 -193 -105 -301t-290 -108q-170 0 -279.5 110t-109.5 289zM205 1032q0 -158 99.5 -260t248.5 -102q85 0 146.5 22t117.5 68q90 121 90 282q0 169 -93 271t-265 102q-122 0 -232 -74q-112 -136 -112 -309z M733 -31l680 1512l33 -17l-678 -1509zM1241 387q0 190 108 303t279 113q189 0 293 -110.5t104 -295.5q0 -193 -105 -301t-290 -108q-170 0 -279.5 110t-109.5 289zM1282 385q0 -158 99.5 -260t248.5 -102q85 0 146.5 22t117.5 68q91 122 91 282q0 169 -93 271t-266 102 q-121 0 -231 -74q-113 -137 -113 -309z" />
<glyph unicode="&#x26;" horiz-adv-x="1705" d="M184 408q0 79 20.5 144t62 117.5t88.5 92t114 82.5q-49 123 -49 237q0 184 73.5 276.5t249.5 92.5q186 0 334 -68l-37 -233l-28 2l18 209q-112 53 -289 53q-126 0 -219 -72q-37 -60 -49 -116t-12 -144q0 -107 48.5 -224.5t133.5 -229.5t190 -215t228 -197 q88 100 146.5 236t80.5 288l-307 19v20h569l-2 -20l-221 -19q-21 -155 -81.5 -298t-153.5 -248q120 -89 247 -162l234 -11l-2 -20h-256q-124 71 -252 164q-180 -180 -414 -180q-122 0 -213.5 32.5t-145.5 91t-80 133.5t-26 167zM225 403q0 -82 22.5 -149t70.5 -121 t131 -83.5t196 -29.5q221 0 387 166q-185 141 -330 300.5t-217 320.5q-60 -39 -103.5 -75.5t-81 -85t-56.5 -109.5t-19 -134z" />
<glyph unicode="'" horiz-adv-x="215" d="M82 1434h51l-8 -451h-35z" />
<glyph unicode="(" horiz-adv-x="751" d="M238 651q0 264 83 507.5t216 397.5l32 -20q-121 -149 -201.5 -397t-80.5 -488q0 -483 286 -884l-34 -23q-157 211 -229 428.5t-72 478.5z" />
<glyph unicode=")" horiz-adv-x="751" d="M168 1534l35 22q157 -211 229 -426.5t72 -478.5q0 -262 -83.5 -508t-215.5 -399l-33 20q121 149 202 397.5t81 489.5q0 481 -287 883z" />
<glyph unicode="*" horiz-adv-x="671" d="M102 1235q4 12 9 22q20 29 104 -6l115 -47l6 129l-25 97q16 0 25 -3q29 -9 26 -100l-8 -123l123 35l84 53q4 -8 8 -24q0 -31 -86 -56l-125 -30l74 -105l78 -65q-16 -8 -21 -15q-28 -11 -81 70l-66 102l-82 -104l-37 -92q-6 4 -18 16q-23 26 39 94l80 99l-121 47z" />
<glyph unicode="+" horiz-adv-x="952" d="M123 508v37h334v334h37v-334h335v-37h-335v-336h-37v336h-334z" />
<glyph unicode="," d="M178 -104q53 60 68 104q-23 0 -40.5 17t-17.5 40q0 25 17.5 42.5t40.5 17.5q25 0 42 -19t17 -49q0 -34 -28.5 -84.5t-71.5 -95.5z" />
<glyph unicode="-" horiz-adv-x="911" d="M143 520v41h625v-41h-625z" />
<glyph unicode="." d="M188 57q0 25 17.5 42.5t40.5 17.5q25 0 42 -17.5t17 -42.5q0 -23 -17 -40t-42 -17q-23 0 -40.5 17t-17.5 40z" />
<glyph unicode="/" horiz-adv-x="550" d="M72 -143l366 1679h41l-366 -1679h-41z" />
<glyph unicode="0" horiz-adv-x="1384" d="M164 559q0 275 142 439.5t374 164.5q251 0 396 -164.5t145 -445.5q0 -256 -140 -412.5t-383 -156.5q-244 0 -389 158t-145 417zM205 559q0 -242 134 -390.5t361 -148.5q168 0 332 107q72 93 110 193t38 231q0 269 -132 422t-364 153q-153 0 -315 -106 q-86 -98 -125 -204.5t-39 -256.5z" />
<glyph unicode="1" horiz-adv-x="808" d="M145 0l2 20l244 11v1085l-246 10l2 21h517l-2 -21l-230 -10v-1085l234 -11l-2 -20h-519z" />
<glyph unicode="2" horiz-adv-x="1056" d="M82 53q99 44 200 105t199.5 140t175 162.5t123.5 178.5t47 182q0 137 -80 221t-251 84q-189 0 -322 -55l-8 -291l-27 2l-14 287l8 23q133 71 363 71q188 0 279 -93.5t91 -248.5q0 -89 -48 -187t-125 -184.5t-174 -167t-195.5 -141t-188.5 -98.5l2 -8l795 6l-2 -41h-846z " />
<glyph unicode="3" horiz-adv-x="1159" d="M164 -158l18 31q150 -88 318 -88q139 0 213 29t145 88q42 55 61 108t19 121q0 154 -126.5 245t-336.5 91l-2 27q105 0 178 14.5t144 50.5q52 58 79 117.5t27 136.5q0 57 -21.5 111t-63.5 100t-113 74t-162 28q-163 0 -322 -39l-8 -256l-31 3l-6 237l10 41q146 51 359 51 q96 0 173 -29.5t124.5 -79t72.5 -111.5t25 -130q0 -115 -75.5 -212t-188.5 -120v-8q57 -13 108 -39t95.5 -66t71 -100.5t26.5 -134.5q0 -79 -28 -147t-84 -122t-149 -85t-214 -31q-183 0 -336 94z" />
<glyph unicode="4" horiz-adv-x="1169" d="M119 39l364 1108h33v-23l-356 -1085h686v524l10 90h31v-614h231l-2 -39h-229v-186l-10 -80h-31v266h-723z" />
<glyph unicode="5" horiz-adv-x="1167" d="M156 -190l16 32q177 -86 360 -86q243 0 396 144q38 65 52.5 116.5t14.5 126.5q0 121 -60 210.5t-159.5 134t-224.5 44.5q-150 0 -336 -51l-4 37l16 629h764l-2 -37h-723l-16 -582q148 41 301 41q212 0 348.5 -112t136.5 -314q0 -194 -135 -309t-369 -115q-205 0 -376 91z " />
<glyph unicode="6" horiz-adv-x="1153" d="M133 684q0 159 41.5 296.5t111.5 231.5t165 147.5t200 53.5q186 0 338 -63l-20 -37q-131 63 -316 63q-94 0 -181 -49.5t-153 -137.5t-105.5 -220t-39.5 -287q204 123 424 123q219 0 329.5 -107.5t110.5 -310.5q0 -190 -115.5 -296.5t-324.5 -106.5q-222 0 -343.5 176 t-121.5 524zM174 641q6 -313 115.5 -467t310.5 -154q167 0 309 95q46 66 66 126t20 146q0 187 -101.5 284t-295.5 97q-100 0 -213 -33.5t-211 -93.5z" />
<glyph unicode="7" horiz-adv-x="1105" d="M88 1147h918l4 -35q-211 -313 -347.5 -666t-193.5 -712h-41l-4 18q66 350 201.5 702.5t332.5 655.5h-825l-6 -297l-29 2z" />
<glyph unicode="8" horiz-adv-x="1144" d="M133 346q0 136 91 230t233 143q-132 56 -207.5 147t-75.5 219q0 146 108 237t283 91q179 0 288.5 -101t109.5 -247q0 -121 -80.5 -219.5t-202.5 -153.5q163 -54 240 -139.5t77 -222.5q0 -71 -24.5 -131.5t-74.5 -109.5t-135 -77t-196 -28q-207 0 -320.5 102.5 t-113.5 259.5zM174 346q0 -143 103 -234.5t292 -91.5q173 0 318 97q69 100 69 211q0 144 -89 223t-283 127q-30 7 -78 22q-332 -114 -332 -354zM215 1083q0 -138 100.5 -229t274.5 -135l41 -10q125 43 208 138.5t83 213.5q0 140 -95 227.5t-270 87.5q-134 0 -266 -84 q-40 -52 -58 -99.5t-18 -109.5z" />
<glyph unicode="9" horiz-adv-x="1157" d="M117 743q0 208 105.5 314t344.5 106q226 0 331.5 -192t105.5 -563q0 -318 -121 -496t-359 -178q-202 0 -372 98l22 37q148 -98 350 -98q439 0 439 657q-164 -90 -428 -90q-188 0 -303 105t-115 300zM158 741q0 -182 102.5 -275t276.5 -93q264 0 424 92q-6 328 -100 496.5 t-294 168.5q-177 0 -311 -81q-53 -65 -75.5 -136t-22.5 -172z" />
<glyph unicode=":" d="M188 57q0 25 17.5 42.5t40.5 17.5q25 0 42 -17.5t17 -42.5q0 -23 -17 -40t-42 -17q-23 0 -40.5 17t-17.5 40zM188 924q0 24 17 41.5t41 17.5q25 0 42 -17t17 -42q0 -24 -17.5 -41t-41.5 -17q-23 0 -40.5 17.5t-17.5 40.5z" />
<glyph unicode=";" d="M178 -104q53 60 68 104q-23 0 -40.5 17t-17.5 40q0 25 17.5 42.5t40.5 17.5q25 0 42 -19t17 -49q0 -34 -28.5 -84.5t-71.5 -95.5zM188 924q0 24 17 41.5t41 17.5q25 0 42 -17t17 -42q0 -24 -17.5 -41t-41.5 -17q-23 0 -40.5 17.5t-17.5 40.5z" />
<glyph unicode="&#x3c;" horiz-adv-x="897" d="M123 471v41l590 461l22 -27l-579 -454l579 -455l-22 -27z" />
<glyph unicode="=" horiz-adv-x="952" d="M123 379v41h706v-41h-706zM123 645v41h706v-41h-706z" />
<glyph unicode="&#x3e;" horiz-adv-x="897" d="M162 37l579 455l-579 454l22 27l590 -461v-41l-590 -461z" />
<glyph unicode="?" horiz-adv-x="837" d="M78 1407q92 27 203 27q217 0 337.5 -143t120.5 -390q0 -69 -110 -137t-373 -160q-20 -23 -20 -72q-3 -98 36 -206l-36 -15q-43 122 -43 228q0 33 17 62.5t46 39.5q328 122 428 207q14 28 14 70q0 127 -46 234t-142.5 176t-228.5 69q-103 0 -152 -8l-4 -215h-29zM262 57 q0 25 17 42.5t40 17.5q25 0 42.5 -17.5t17.5 -42.5q0 -23 -17.5 -40t-42.5 -17q-23 0 -40 17t-17 40z" />
<glyph unicode="@" horiz-adv-x="1755" d="M164 541q0 136 52 261t145.5 221t233.5 153t304 57q310 0 501 -179.5t191 -473.5q0 -293 -151 -457h-279l-10 84q-112 -94 -277 -94q-159 0 -251.5 105.5t-92.5 293.5q0 193 93 311.5t272 118.5q138 0 256 -92l12 84h25v-770l233 -10q129 138 129 426q0 282 -178 447 t-473 165q-149 0 -250.5 -35t-222.5 -110q-108 -108 -164.5 -228.5t-56.5 -273.5q0 -305 195 -480.5t524 -175.5h264l2 -14q-140 -22 -285 -22q-220 0 -387.5 83t-260.5 239.5t-93 365.5zM571 512q0 -175 81 -268.5t222 -93.5q162 0 273 96v559q-103 100 -256 100 q-133 0 -240 -84q-80 -129 -80 -309z" />
<glyph unicode="A" horiz-adv-x="1490" d="M20 0l3 20l159 11l527 1403h67l531 -1401l163 -13l-2 -20h-409l2 20l203 11l-158 415h-727l-156 -415l205 -11l-2 -20h-406zM391 483h701l-347 918h-10z" />
<glyph unicode="B" horiz-adv-x="1259" d="M102 0l2 20l213 11v1372l-200 10l2 21h565q185 0 293 -104t108 -267q0 -125 -55.5 -215t-177.5 -123q123 -34 193.5 -127.5t70.5 -222.5q0 -77 -22.5 -141.5t-71 -118.5t-137.5 -84.5t-211 -30.5h-572zM358 41q72 -10 295 -10q132 0 219 29.5t150 89.5q30 50 42 97 q11 43 11 116v12q-1 149 -101 239.5t-259 90.5h-357v-664zM358 741h357q121 0 213 45q58 52 87 114.5t29 160.5q0 147 -97.5 242.5t-270.5 95.5h-318v-658z" />
<glyph unicode="C" horiz-adv-x="1406" d="M143 707q0 180 50 323t138.5 234t207.5 138.5t260 47.5q147 0 247 -17.5t197 -56.5l6 -30l-14 -283l-29 2l2 272q-152 76 -407 76q-177 0 -361 -96q-131 -112 -193.5 -256t-62.5 -354q0 -320 160 -503.5t447 -183.5q146 0 253 26t226 93l14 -30q-118 -70 -230 -97.5 t-263 -27.5q-302 0 -475 192.5t-173 530.5z" />
<glyph unicode="D" horiz-adv-x="1521" d="M102 0l2 20l203 11v1372l-190 10l2 21h485q371 0 572.5 -185t201.5 -530q0 -339 -181.5 -529t-532.5 -190h-562zM348 37q50 -6 316 -6q178 0 292 42t215 130q57 75 90.5 139.5t54.5 159t21 217.5q0 339 -190.5 510.5t-560.5 171.5q-175 0 -238 -8v-1356z" />
<glyph unicode="E" horiz-adv-x="1202" d="M143 1413l2 21h914l-6 -332l-25 2l-12 297h-635v-660h442l19 191l24 -2v-398l-24 3l-19 174h-442v-676h670l10 305l24 -2l5 -336h-945l2 20l193 11v1372z" />
<glyph unicode="F" horiz-adv-x="1153" d="M143 1413l2 21h906l-7 -330l-24 2l-12 291h-631v-662h416l14 164l24 -2v-385l-24 2l-14 184h-416v-667l264 -11l-2 -20h-494l2 20l189 11v1372z" />
<glyph unicode="G" horiz-adv-x="1529" d="M143 713q0 178 52.5 319t147.5 232t223.5 138.5t283.5 47.5q108 0 221.5 -25t196.5 -63l14 -29l-33 -286l-28 2l18 284q-63 33 -174.5 56.5t-214.5 23.5q-104 0 -188.5 -18t-182.5 -60q-154 -104 -224.5 -259.5t-70.5 -364.5q0 -314 162.5 -502.5t435.5 -188.5 q135 0 241 40t198 124v363l-328 12v23h532v-27l-163 -8v-547h-29l-10 137q-185 -153 -441 -153q-288 0 -463.5 200.5t-175.5 528.5z" />
<glyph unicode="H" horiz-adv-x="1542" d="M102 0l2 20l177 11v1372l-162 10l2 21h373l-2 -21l-170 -10v-651h897v651l-168 10l2 21h379l-2 -21l-170 -10v-1372l180 -11l-2 -20h-394l3 20l172 11v684h-897v-684l180 -11l-2 -20h-398z" />
<glyph unicode="I" horiz-adv-x="770" d="M164 1413l2 21h430l-2 -21l-191 -10v-1372l203 -11l-2 -20h-438l2 20l190 11v1372z" />
<glyph unicode="J" horiz-adv-x="770" d="M158 1413l2 21h446l-2 -21l-198 -10v-1241q0 -144 -46 -235t-170 -185l-20 22q109 88 149.5 172.5t40.5 215.5v1251z" />
<glyph unicode="K" horiz-adv-x="1363" d="M143 1413l2 21h424l-2 -21l-184 -10v-666h68l622 666l-151 10l2 21h338l-2 -21l-136 -10l-632 -674v-14q134 -160 348.5 -373.5t355.5 -310.5l127 -11l-2 -20h-150q-144 107 -359 320t-361 382h-68v-671l199 -11l-2 -20h-416l2 20l172 11v1372z" />
<glyph unicode="L" horiz-adv-x="1097" d="M143 0l2 20l193 11v1372l-170 10l2 21h436l-2 -21l-225 -10v-1370h625l14 346l26 -2l3 -377h-904z" />
<glyph unicode="M" horiz-adv-x="2043" d="M123 0l2 20l172 11l119 1372l-164 10l2 21h414l-2 -21l-174 -10l542 -1311h4l525 1311l-146 10l2 21h357l-2 -21l-146 -10l125 -1372l168 -11v-20h-389l2 20l172 11l-113 1345l-532 -1335h-53l-553 1337l-113 -1347l172 -11l-2 -20h-389z" />
<glyph unicode="N" horiz-adv-x="1771" d="M143 1413l2 21h248l1028 -1371v1340l-196 10l2 21h432l-2 -21l-195 -10v-1403h-39l-1032 1372v-1341l219 -11l-2 -20h-461l3 20l200 11v1372z" />
<glyph unicode="O" horiz-adv-x="1626" d="M143 698q0 169 49.5 310.5t137 238t209 150t264.5 53.5q163 0 292.5 -54t214 -151.5t129 -231.5t44.5 -296q0 -348 -180.5 -540.5t-497.5 -192.5q-139 0 -260.5 50.5t-210.5 141.5t-140 226t-51 296zM184 696q0 -147 48.5 -273t131.5 -213t197.5 -136t243.5 -49 q152 0 262.5 42t212.5 130q79 113 120.5 235t41.5 283q0 155 -41.5 282t-121 219t-202.5 142.5t-278 50.5q-124 0 -221.5 -36.5t-194.5 -112.5q-94 -113 -146.5 -246t-52.5 -318z" />
<glyph unicode="P" horiz-adv-x="1232" d="M143 0l2 23l187 8v1372l-189 10l2 21h545q197 0 308.5 -109t111.5 -299q0 -215 -109.5 -312.5t-345.5 -97.5h-282v-585l233 -11l-2 -20h-461zM373 653h307q172 0 293 70q50 61 72 130.5t22 172.5q0 176 -99.5 273.5t-285.5 97.5h-309v-744z" />
<glyph unicode="Q" horiz-adv-x="1626" d="M143 698q0 169 49.5 310.5t137 238t209 150t264.5 53.5q163 0 292.5 -54t214 -151.5t129 -231.5t44.5 -296q0 -251 -96 -423t-273 -251q102 -129 309 -236q186 -97 463 -129l-6 -36q-118 11 -244.5 44.5t-222.5 82.5q-223 115 -340 258q-124 -43 -268 -43 q-139 0 -260.5 50.5t-210.5 141.5t-140 226t-51 296zM184 696q0 -147 48.5 -273t131.5 -213t197.5 -136t243.5 -49q152 0 262.5 42t212.5 130q79 113 120.5 235t41.5 283q0 155 -41.5 282t-121 219t-202.5 142.5t-278 50.5q-124 0 -221.5 -36.5t-194.5 -112.5 q-94 -113 -146.5 -246t-52.5 -318z" />
<glyph unicode="R" horiz-adv-x="1396" d="M150 1413l2 21h536q214 0 329.5 -114t115.5 -304q0 -156 -101 -257.5t-264 -127.5q60 -140 174 -323t201 -277l139 -11l-2 -20h-162q-89 100 -208 289.5t-187 337.5q-16 -2 -51 -2h-285v-594l188 -11l-2 -20h-413l2 20l184 11v1372zM387 662h188q176 0 265.5 24.5 t169.5 93.5q88 113 88 234q0 175 -107.5 280t-320.5 105h-283v-737z" />
<glyph unicode="S" horiz-adv-x="1245" d="M205 88l35 373l30 -2l-24 -371q153 -68 346 -68q179 0 323 95q84 101 84 200q0 130 -83 223.5t-285 168.5q-229 86 -319.5 171.5t-90.5 231.5q0 103 59.5 181t160 118.5t225.5 40.5q148 0 313 -47l8 -23l-26 -250l-31 3l12 237q-49 17 -133 30t-143 13q-172 0 -314 -90 q-86 -96 -86 -213q0 -136 76 -206.5t295 -155.5q216 -85 309.5 -187.5t93.5 -245.5q0 -65 -28.5 -123.5t-82 -105.5t-141 -74.5t-196.5 -27.5q-126 0 -207 18.5t-174 58.5z" />
<glyph unicode="T" horiz-adv-x="1253" d="M61 1434h1131l-6 -338l-25 2l-10 301h-504v-1368l215 -11l-2 -20h-467l2 20l211 11v1368h-506l-8 -303l-24 -2z" />
<glyph unicode="U" horiz-adv-x="1579" d="M135 1413l2 21h400l-2 -21l-175 -10v-846q0 -138 22 -235t73.5 -166.5t139 -102.5t216.5 -33q215 0 344 109q52 77 74 172t22 256v846l-174 10l2 21h387l-2 -21l-176 -10v-862q0 -114 -13 -198t-45 -154t-86 -113.5t-137 -67.5t-196 -24q-137 0 -232.5 36t-152 109 t-82 173.5t-25.5 238.5v862z" />
<glyph unicode="V" horiz-adv-x="1554" d="M20 1413l3 21h440l-2 -21l-232 -10l547 -1366h4l537 1366l-201 10l2 21h416l-2 -21l-174 -10l-553 -1403h-57l-564 1403z" />
<glyph unicode="W" horiz-adv-x="2236" d="M20 1413l3 21h409l-2 -21l-201 -10l461 -1370h2l387 1124l-86 246l-182 10l2 21h477l-2 -21l-250 -10l482 -1370h4l469 1370l-217 10l2 21h438l-2 -21l-180 -10l-482 -1403h-65l-387 1098l-377 -1098h-66l-473 1403z" />
<glyph unicode="X" horiz-adv-x="1460" d="M20 0l3 20l151 11l510 721l-494 651l-133 10l2 21h344l-2 -21l-159 -10l471 -621l446 621l-176 10l2 21h375l-2 -21l-150 -10l-473 -651l549 -721l156 -11l-2 -20h-389l2 20l180 11l-524 690l-488 -690l174 -11l-2 -20h-371z" />
<glyph unicode="Y" horiz-adv-x="1382" d="M20 1413l3 21h415l-2 -21l-203 -10l451 -737h4l467 737l-190 10l2 21h395l-2 -21l-162 -10l-496 -785v-587l195 -11l-2 -20h-444l2 20l209 11v592l-478 780z" />
<glyph unicode="Z" horiz-adv-x="1478" d="M184 39l1061 1358h-971l-10 -350l-28 2l-15 385h1067l6 -39l-1058 -1358h995l16 356l29 -2l2 -391h-1090z" />
<glyph unicode="[" horiz-adv-x="671" d="M256 -176v1659h252v-37h-211v-1585h211v-37h-252z" />
<glyph unicode="\" horiz-adv-x="550" d="M72 1536h41l366 -1679h-41z" />
<glyph unicode="]" horiz-adv-x="671" d="M164 -139h211v1585h-211v37h252v-1659h-252v37z" />
<glyph unicode="^" horiz-adv-x="989" d="M225 1155l248 322h41l248 -322l-37 -10l-231 287l-232 -287z" />
<glyph unicode="_" horiz-adv-x="1116" d="M41 -211h1034v-37h-1034v37z" />
<glyph unicode="`" horiz-adv-x="1126" d="M360 1466l50 11l247 -322l-36 -10z" />
<glyph unicode="a" horiz-adv-x="1132" d="M113 227q0 120 39 209q242 54 655 72v115q0 162 -74.5 252t-226.5 90q-128 0 -260 -37l-2 -242l-33 -2l-18 242l6 28q144 45 307 45q342 0 342 -372v-596l182 -11l-2 -20h-211l-10 190q-75 -89 -178 -147.5t-230 -58.5q-140 0 -213 69t-73 174zM154 238q0 -100 62.5 -160 t184.5 -60q127 0 231.5 66.5t174.5 159.5v229q-152 -6 -340.5 -24t-284.5 -43q-28 -78 -28 -168z" />
<glyph unicode="b" horiz-adv-x="1140" d="M61 1561v22l170 14h43l7 -51v-690q69 64 166 103.5t186 39.5q79 0 146 -27.5t122 -84.5t86 -155.5t31 -229.5q0 -235 -118.5 -376.5t-342.5 -141.5q-204 0 -317 69v1508h-179zM281 80q126 -60 276 -60q169 0 303 99q59 78 86 163.5t27 217.5q0 238 -93.5 350.5 t-248.5 112.5q-96 0 -219 -52q-69 -46 -131 -110v-721z" />
<glyph unicode="c" horiz-adv-x="1024" d="M123 502q0 228 127 362.5t325 134.5q87 0 170.5 -18t135.5 -49l8 -37l-31 -227l-33 2l21 235q-30 19 -115.5 38.5t-152.5 19.5q-77 0 -140.5 -21.5t-138.5 -69.5q-68 -76 -101.5 -163t-33.5 -205q0 -227 100.5 -355.5t290.5 -128.5q99 0 177 23t153 74l16 -29 q-75 -54 -156.5 -79t-191.5 -25q-204 0 -317 139t-113 379z" />
<glyph unicode="d" horiz-adv-x="1153" d="M123 481q0 251 125 384.5t325 133.5q187 0 299 -84v646h-178v22l170 14h43l6 -51v-1515l179 -11l-2 -20h-207l-11 96q-125 -112 -321 -112q-186 0 -307 138.5t-121 358.5zM164 483q0 -201 107 -332t282 -131q109 0 219 43q52 35 100 82v723q-55 45 -134.5 70t-164.5 25 q-118 0 -251 -68q-77 -80 -117.5 -175.5t-40.5 -236.5z" />
<glyph unicode="e" horiz-adv-x="1052" d="M123 498q0 225 122 363t320 138q180 0 277.5 -118.5t97.5 -341.5l-12 -54l-764 -10q6 -211 115.5 -333t295.5 -122t340 107l17 -27q-135 -116 -357 -116q-211 0 -331.5 139.5t-120.5 374.5zM164 512l737 14q0 211 -89 323t-247 114q-126 0 -254 -78q-144 -158 -147 -373z " />
<glyph unicode="f" horiz-adv-x="778" d="M82 958l2 25h207v168q0 183 87.5 284t239.5 101q124 0 228 -35l14 -37l-18 -194l-29 2l12 201q-101 32 -207 32q-107 0 -212 -80q-37 -49 -55.5 -109.5t-18.5 -164.5v-168h309l-2 -25l-307 -12v-915l205 -11l-2 -20h-400l2 20l154 11v915z" />
<glyph unicode="g" horiz-adv-x="1097" d="M119 -223q0 74 25 128t73 105q-55 38 -55 133q0 112 102 248q-112 85 -112 266q0 146 93.5 244t248.5 98q167 0 260 -96l102 58l35 172h29l-25 -195l-125 -53q68 -83 68 -221q0 -164 -90.5 -253t-249.5 -89q-123 0 -201 47q-94 -137 -94 -226q0 -123 143 -123h426 q117 0 170 -41t53 -131q0 -150 -134.5 -241.5t-354.5 -91.5q-189 0 -288 73t-99 189zM160 -225q0 -97 91.5 -160.5t256.5 -63.5q205 0 326.5 80t121.5 217q0 71 -42.5 103.5t-145.5 32.5h-440q-43 0 -76 10q-92 -95 -92 -219zM193 655q0 -138 80 -218.5t223 -80.5 q124 0 225 68q40 47 58 99.5t18 140.5q0 141 -81 220t-222 79q-85 0 -197 -56q-104 -104 -104 -252z" />
<glyph unicode="h" horiz-adv-x="1263" d="M102 1561v22l170 14h43l7 -51v-741q61 97 144.5 145.5t199.5 48.5q360 0 360 -381v-587l176 -11l-2 -20h-215v614q0 166 -74.5 256.5t-244.5 90.5q-101 0 -199 -43q-95 -84 -145 -185v-702l178 -11l-2 -20h-383l2 20l164 11v1530h-179z" />
<glyph unicode="i" horiz-adv-x="598" d="M123 963l2 20h201l6 -43v-909l164 -11l-2 -20h-355l2 20l150 11v921zM236 1319q0 20 17 38.5t38 18.5t40 -19t19 -40q0 -20 -18.5 -38.5t-38.5 -18.5q-22 0 -39.5 18t-17.5 41z" />
<glyph unicode="j" horiz-adv-x="575" d="M102 -281q97 60 143 139t46 218v876l-168 11l2 20h201l6 -43v-854q0 -141 -49 -233.5t-164 -157.5zM236 1319q0 20 17 38.5t38 18.5t40 -19t19 -40q0 -20 -18.5 -38.5t-38.5 -18.5q-22 0 -39.5 18t-17.5 41z" />
<glyph unicode="k" horiz-adv-x="1079" d="M102 1561v22l170 14h43l7 -51v-1005h77l365 411l-129 11l2 20h293l-2 -20l-115 -11l-375 -420v-16q78 -107 205 -243t244 -242l151 -11l-2 -20h-170q-115 101 -245 241.5t-222 262.5h-77v-473l178 -11l-2 -20h-383l2 20l164 11v1530h-179z" />
<glyph unicode="l" horiz-adv-x="622" d="M123 1561v22l170 14h43l6 -51v-1515l178 -11l-2 -20h-383l2 20l164 11v1530h-178z" />
<glyph unicode="m" horiz-adv-x="1925" d="M82 946v25l172 12h37l10 -63v-113q62 97 142.5 144.5t195.5 47.5q276 0 336 -227q66 115 149.5 171t208.5 56q190 0 272.5 -100.5t82.5 -280.5v-587l176 -11l-2 -20h-215v614q0 167 -72.5 257t-241.5 90q-95 0 -190 -43q-101 -88 -156 -203q6 -47 6 -97v-587l176 -11 l-2 -20h-215v614q0 167 -72 257t-241 90q-95 0 -190 -43q-95 -82 -148 -185v-702l164 -11l-2 -20h-352l2 20l147 11v915h-178z" />
<glyph unicode="n" horiz-adv-x="1243" d="M82 946v25l172 12h37l10 -65v-113q61 97 144.5 145.5t199.5 48.5q361 0 361 -381v-587l176 -11l-2 -20h-215v614q0 347 -320 347q-101 0 -196 -43q-92 -76 -148 -185v-702l164 -11l-2 -20h-352l2 20l147 11v915h-178z" />
<glyph unicode="o" horiz-adv-x="1124" d="M123 492q0 242 126 374.5t329 132.5q87 0 163 -32.5t134.5 -95t92 -162t33.5 -224.5q0 -232 -107.5 -366.5t-313.5 -134.5q-223 0 -340 138.5t-117 369.5zM168 489q0 -209 105.5 -339t306.5 -130q133 0 260 86q64 85 91 166t27 215q0 221 -110.5 348.5t-276.5 127.5 q-79 0 -136 -18t-120 -58q-76 -78 -111.5 -173.5t-35.5 -224.5z" />
<glyph unicode="p" horiz-adv-x="1183" d="M82 946v25l172 12h37l10 -147q134 163 367 163q55 0 108.5 -15.5t105.5 -52t91.5 -90t63.5 -135t24 -180.5q0 -254 -105.5 -398t-298.5 -144q-222 0 -356 104v-528l164 -11l-2 -20h-352l2 20l147 11v1386h-178zM301 133q129 -113 354 -113q72 0 127 18.5t111 63.5 q66 82 96.5 174.5t30.5 241.5q0 97 -21.5 175t-57 127.5t-84 82.5t-98.5 46.5t-104 13.5q-133 0 -243 -60q-67 -58 -111 -125v-645z" />
<glyph unicode="q" horiz-adv-x="1155" d="M123 500q0 219 126.5 359t311.5 140q92 0 172.5 -31t138.5 -81l11 96h28v-1423l162 -11l-2 -20h-360l2 20l157 11v532q-145 -108 -313 -108q-216 0 -325 136.5t-109 379.5zM164 500q0 -225 99 -352.5t296 -127.5q104 0 225 50q73 57 86 71v697q-55 60 -136.5 92.5 t-174.5 32.5q-74 0 -133 -26t-131 -77q-131 -147 -131 -360z" />
<glyph unicode="r" horiz-adv-x="825" d="M82 946v25l172 12h37q10 -59 10 -174q79 86 200.5 136.5t254.5 53.5l8 -30l-8 -215l-27 2l-6 207q-138 -12 -241.5 -60.5t-180.5 -144.5v-727l164 -11l-2 -20h-352l2 20l147 11v915h-178z" />
<glyph unicode="s" horiz-adv-x="915" d="M143 86l35 217l29 -2l-21 -231q43 -22 117.5 -36t151.5 -14q133 0 225 50q51 63 51 155q0 72 -54.5 130t-209.5 124q-155 67 -224 126.5t-69 154.5q0 64 29.5 112.5t77.5 75t99 39t103 12.5q85 0 139.5 -10t127.5 -33l4 -22l-27 -195l-33 4l15 187q-97 33 -230 33 q-103 0 -209 -56q-30 -33 -40.5 -64.5t-10.5 -76.5q0 -78 62.5 -133.5t201.5 -118.5q64 -29 100.5 -47.5t78 -46t62 -53.5t34.5 -62t14 -80q0 -114 -81 -177.5t-236 -63.5q-185 0 -305 57z" />
<glyph unicode="t" horiz-adv-x="712" d="M82 958l2 25h203l16 301l25 2v-303h309l-2 -25l-307 -6v-749q0 -81 42.5 -125.5t106.5 -44.5h172l2 -15q-91 -18 -172 -18q-92 0 -142 59t-50 162v731z" />
<glyph unicode="u" horiz-adv-x="1284" d="M102 946v21l166 16h47l9 -63v-564q0 -162 80.5 -249t203.5 -87q143 0 271 60q71 64 120 135v731h-180v21l164 16h51l6 -63v-889l162 -11l-2 -20h-188l-13 156q-63 -79 -163 -125.5t-228 -46.5q-143 0 -234 96t-91 266v600h-181z" />
<glyph unicode="v" horiz-adv-x="1159" d="M10 963l2 20h359l-2 -20l-174 -11l389 -919h8l373 919l-160 11l2 20h342l-2 -20l-137 -11l-392 -952h-65l-403 952z" />
<glyph unicode="w" horiz-adv-x="1605" d="M10 963l2 20h328l-2 -20l-152 -11l320 -913h6l276 715l-67 198l-154 11l2 20h408l-2 -20l-211 -11l315 -913h6l324 913l-166 11l2 20h350l-2 -20l-143 -11l-340 -952h-59l-244 700l-270 -700h-58l-338 952z" />
<glyph unicode="x" horiz-adv-x="1091" d="M31 0l2 20l129 11l348 481l-340 440l-125 11l2 20h322l-2 -20l-140 -11l314 -409l295 409l-146 11l2 20h326l-2 -20l-131 -11l-322 -440l369 -481l129 -11l-2 -20h-330l2 20l152 11l-351 452l-323 -452l162 -11l-2 -20h-338z" />
<glyph unicode="y" horiz-adv-x="1183" d="M10 963l2 20h330l-2 -20l-150 -11l369 -915h31l373 915l-162 11l2 20h371l-3 -20l-163 -11l-451 -1079q-126 -297 -379 -297h-135l-8 14l6 29l10 6l129 -14q116 0 205 71t143 205l47 117l-30 -4l-21 23l-379 929z" />
<glyph unicode="z" horiz-adv-x="1067" d="M133 45l737 901h-673l-2 -291l-31 2l-14 295l6 31h751l6 -45l-733 -901h709l6 299l31 -2l8 -297l-4 -37h-793z" />
<glyph unicode="{" horiz-adv-x="673" d="M143 621v51q46 0 78.5 28.5t32.5 87.5v492q0 103 42 153t114 50h100v-37h-96q-62 0 -90.5 -38t-28.5 -132v-494q0 -60 -31.5 -96.5t-66.5 -36.5v-6q33 0 65.5 -47.5t32.5 -108.5v-497q0 -65 23 -97t79 -32h113v-37h-117q-68 0 -103.5 43.5t-35.5 116.5v495 q0 64 -33.5 103t-77.5 39z" />
<glyph unicode="|" horiz-adv-x="430" d="M195 -143v1679h41v-1679h-41z" />
<glyph unicode="}" horiz-adv-x="673" d="M164 -139h96q62 0 90.5 38t28.5 132v493q0 60 31.5 96.5t66.5 36.5v7q-33 0 -65.5 47t-32.5 108v498q0 65 -23.5 97t-79.5 32h-112v37h117q68 0 103.5 -43.5t35.5 -116.5v-496q0 -64 33 -102.5t77 -38.5v-51q-45 0 -77.5 -28.5t-32.5 -88.5v-491q0 -103 -42 -153 t-114 -50h-100v37z" />
<glyph unicode="~" horiz-adv-x="1191" d="M215 1257q116 140 174 140q45 0 207 -72t207 -72l131 133l29 -14q-43 -58 -92.5 -103.5t-82.5 -45.5q-51 0 -137.5 35.5t-168.5 70.5t-122 35l-116 -123z" />
<glyph unicode="&#xa1;" d="M197 969q0 23 17 40t42 17q23 0 40 -17t17 -40q0 -25 -17 -42.5t-40 -17.5q-25 0 -42 17.5t-17 42.5zM229 -408l2 713l5 404h36l4 -404l3 -713h-50z" />
<glyph unicode="&#xa2;" horiz-adv-x="991" d="M143 502q0 214 112.5 345.5t293.5 149.5v185h41v-183q88 0 173.5 -18t137.5 -49l8 -37l-30 -227q-5 0 -16.5 1t-16.5 1l20 235q-30 19 -117 38.5t-159 19.5v-943q174 0 315 97l17 -29q-74 -52 -152 -77.5t-180 -26.5v-154h-41v154q-193 9 -299.5 146.5t-106.5 371.5z M184 504q0 -219 93.5 -347t271.5 -137v941q-60 -6 -112 -27t-118 -62q-68 -76 -101.5 -163t-33.5 -205z" />
<glyph unicode="&#xa3;" horiz-adv-x="1216" d="M119 0l2 20l203 11v626h-150v37h150v185q0 289 108.5 430t337.5 141q94 0 162 -19.5t143 -58.5l4 -29l-28 -215l-23 2l16 218q-70 32 -130.5 48.5t-143.5 16.5q-167 0 -295 -96q-77 -119 -93.5 -220t-16.5 -403h516v-37h-516v-624h708l12 297l29 -2l4 -328h-999z" />
<glyph unicode="&#xa4;" horiz-adv-x="1204" d="M102 18l197 197q-90 107 -90 270q0 173 92 285l-188 188l26 25l187 -186q104 104 270 104q180 0 287 -104l186 186l21 -20l-187 -187q90 -110 90 -280q0 -169 -84 -277l193 -192l-25 -27l-192 190q-104 -104 -287 -104q-170 0 -279 109l-194 -195zM250 483 q0 -158 99.5 -260t248.5 -102q85 0 146.5 22t117.5 68q90 121 90 283q0 169 -92.5 270.5t-265.5 101.5q-123 0 -232 -73q-112 -136 -112 -310z" />
<glyph unicode="&#xa5;" horiz-adv-x="1382" d="M20 1413l3 21h415l-2 -21l-203 -10l451 -737h4l467 737l-190 10l2 21h395l-2 -21l-162 -10l-496 -785v-587l195 -11l-2 -20h-444l2 20l209 11v592l-478 780zM254 629v37h860v-37h-414l-4 -8v-125h420v-37h-860v37h414v125l-4 8h-412z" />
<glyph unicode="&#xa6;" horiz-adv-x="430" d="M195 -143v768h41v-768h-41zM195 774v762h41v-762h-41z" />
<glyph unicode="&#xa7;" horiz-adv-x="1310" d="M184 563q0 101 47.5 185.5t149.5 183.5q-67 40 -96 93t-29 128q0 82 33.5 141t95 92.5t137.5 48.5t170 15q194 0 375 -66l6 -30l-29 -236q-5 0 -15 1t-15 1l16 232q-125 61 -338 61q-172 0 -323 -70q-39 -45 -55.5 -86.5t-16.5 -97.5q0 -91 53.5 -148t190.5 -102 l364 -118q117 -38 169 -114.5t52 -191.5q0 -110 -48.5 -193.5t-139.5 -162.5q139 -75 139 -223q0 -143 -121.5 -218t-330.5 -75q-194 0 -365 65l-6 33l39 269q4 0 13 -1.5t13 -1.5l-26 -270q145 -57 330 -57q125 0 201.5 20t148.5 68q63 74 63 166q0 98 -55.5 151t-218.5 99 l-338 108q-125 39 -182.5 112.5t-57.5 188.5zM225 565q0 -100 51 -167t166 -103l410 -131q27 -9 51 -21q69 64 110.5 120.5t59.5 119.5q12 46 12 98q0 103 -44 167.5t-154 101.5l-361 120q-68 21 -114 45q-100 -100 -143.5 -179.5t-43.5 -170.5z" />
<glyph unicode="&#xa8;" horiz-adv-x="833" d="M145 1313q0 20 17.5 38.5t38.5 18.5t40 -19t19 -40q0 -20 -18.5 -39t-38.5 -19q-22 0 -40 18.5t-18 41.5zM575 1313q0 20 17.5 38.5t38.5 18.5t40 -19t19 -40q0 -20 -18.5 -39t-38.5 -19q-22 0 -40 18.5t-18 41.5z" />
<glyph unicode="&#xa9;" horiz-adv-x="1665" d="M186 715q0 292 176.5 469.5t468.5 177.5q299 0 473.5 -176.5t174.5 -470.5q0 -288 -176.5 -466.5t-471.5 -178.5q-289 0 -467 179t-178 466zM227 715q0 -272 165.5 -440.5t438.5 -168.5q277 0 442 168t165 441q0 279 -163 444.5t-444 165.5q-276 0 -440 -166.5 t-164 -443.5zM498 702q0 175 95.5 270t246.5 95q138 0 229 -39l6 -18l-14 -148l-29 2l2 137q-72 35 -196 35q-83 0 -174 -43q-121 -109 -121 -291q0 -148 77.5 -233.5t215.5 -85.5q73 0 126.5 12t116.5 45l13 -24q-114 -68 -258 -68q-157 0 -246.5 95t-89.5 259z" />
<glyph unicode="&#xaa;" horiz-adv-x="919" d="M102 473v31l695 2v-31zM119 825q0 94 28 156q178 39 490 53v84q0 120 -54.5 184t-166.5 64q-94 0 -191 -27l-2 -176q-5 0 -15 -1t-15 -1l-15 180l6 23q102 33 232 33q73 0 125 -22t80.5 -62t41.5 -87.5t13 -105.5v-438l135 -8l-2 -19h-162l-10 138q-128 -150 -301 -150 q-105 0 -161 52t-56 130zM158 834q0 -72 46.5 -116t135.5 -44q91 0 167.5 47t129.5 113v172q-322 -16 -459 -52q-20 -58 -20 -120z" />
<glyph unicode="&#xab;" horiz-adv-x="1132" d="M115 475v35q65 67 128 141.5t143 173.5t128 156l29 -20l-174 -218l-215 -251l215 -244l176 -223l-31 -23q-41 50 -124 156.5t-145 179t-130 137.5zM555 475v35q65 67 128 141.5t143 173.5t128 156l29 -20l-174 -218l-215 -251l215 -244l176 -223l-31 -23 q-41 50 -124 156.5t-145 179t-130 137.5z" />
<glyph unicode="&#xac;" horiz-adv-x="1198" d="M143 674v37h830v-437h-41v400h-789z" />
<glyph unicode="&#xad;" horiz-adv-x="911" d="M143 520v41h625v-41h-625z" />
<glyph unicode="&#xae;" horiz-adv-x="1665" d="M186 715q0 292 176.5 469.5t468.5 177.5q299 0 473.5 -176.5t174.5 -470.5q0 -288 -176.5 -466.5t-471.5 -178.5q-289 0 -467 179t-178 466zM227 715q0 -272 165.5 -440.5t438.5 -168.5q277 0 442 168t165 441q0 279 -163 444.5t-444 165.5q-276 0 -440 -166.5 t-164 -443.5zM555 1047l2 22h285q111 0 172 -55t61 -150q0 -79 -50 -128.5t-130 -63.5q33 -69 88.5 -153t95.5 -124l72 -6l-2 -22h-96q-48 51 -107 139t-92 162h-158v-273l97 -6l-2 -22h-230v22l94 6v645zM696 696h129q99 0 155 44t56 120q0 82 -53 130t-154 48h-133v-342z " />
<glyph unicode="&#xaf;" horiz-adv-x="1030" d="M172 1268v37h672v-37h-672z" />
<glyph unicode="&#xb0;" horiz-adv-x="808" d="M113 1118q0 122 84.5 207.5t205.5 85.5t207 -85.5t86 -207.5q0 -121 -85.5 -206t-207.5 -85q-121 0 -205.5 84.5t-84.5 206.5zM154 1118q0 -114 74.5 -184t177.5 -70q93 0 190 66q59 95 59 186q0 106 -74 182t-175 76q-81 0 -175 -55q-42 -49 -59.5 -93t-17.5 -108z" />
<glyph unicode="&#xb1;" horiz-adv-x="952" d="M123 41v41h706v-41h-706zM123 612v37h334v334h37v-334h335v-37h-335v-336h-37v336h-334z" />
<glyph unicode="&#xb2;" horiz-adv-x="774" d="M100 653q49 34 65.5 45.5t68.5 49t76.5 57.5t71 59t71 66t58 66t50 71t29 69t12.5 72q0 95 -62.5 146t-181.5 51q-80 0 -194 -37l-6 -160l-25 2l-8 160l2 19q105 45 235 45q134 0 206.5 -58.5t72.5 -165.5q0 -232 -500 -561v-4h486l8 182l24 -2l3 -211h-560z" />
<glyph unicode="&#xb3;" horiz-adv-x="753" d="M113 659l12 25q91 -49 192 -49q57 0 99.5 10t63.5 21.5t50 33.5q43 57 43 129q0 87 -74 139t-196 52l-2 22q112 3 186 39q64 67 64 144q0 72 -54 126t-157 54q-81 0 -184 -21l-6 -153l-27 2l-4 145l6 25q95 31 219 31q114 0 177 -61t63 -146q0 -66 -44 -123t-110 -70v-6 q72 -16 125 -66.5t53 -132.5q0 -97 -74.5 -161t-216.5 -64q-114 0 -204 55z" />
<glyph unicode="&#xb4;" horiz-adv-x="1126" d="M387 1155l248 322l49 -11l-260 -321z" />
<glyph unicode="&#xb5;" horiz-adv-x="1284" d="M102 946v21l166 16h47l9 -65v-562q0 -162 80.5 -249t203.5 -87q143 0 271 60q71 64 120 135v731h-180v21l164 16h51l6 -63v-889l162 -11l-2 -20h-188l-13 156q-63 -79 -163 -125.5t-228 -46.5q-95 0 -169 43.5t-115 124.5v-592l163 -11l-2 -20h-352l2 20l148 11v1386 h-181z" />
<glyph unicode="&#xb6;" horiz-adv-x="1019" d="M123 1092q0 154 93 248t247 94h452l-2 -21l-182 -10v-1372l187 -11v-20h-228v1397h-164v-1397h-233l2 20l190 11v719h-22q-153 0 -246.5 95t-93.5 247z" />
<glyph unicode="&#xb7;" d="M188 442q0 25 17.5 42.5t40.5 17.5q25 0 42 -17.5t17 -42.5q0 -23 -17 -40t-42 -17q-23 0 -40.5 17t-17.5 40z" />
<glyph unicode="&#xb8;" horiz-adv-x="667" d="M242 -152l100 158h45l-100 -151q72 0 115.5 -31t43.5 -76q0 -70 -49 -117t-141 -82l-14 35q164 57 164 160q0 36 -38 57t-112 21z" />
<glyph unicode="&#xb9;" horiz-adv-x="540" d="M72 1358l209 76l24 -2v-791l125 -6l-2 -21h-299l2 21l135 6v754l-186 -62z" />
<glyph unicode="&#xba;" horiz-adv-x="917" d="M127 473v31h661v-31h-661zM127 1020q0 180 95 278.5t249 98.5q138 0 229 -98.5t91 -282.5q0 -173 -81.5 -273t-236.5 -100q-168 0 -257 102.5t-89 274.5zM170 1018q0 -152 77 -247t226 -95q102 0 193 63q46 63 66 122.5t20 156.5q0 161 -81 253.5t-204 92.5 q-58 0 -99 -12.5t-89 -40.5q-58 -62 -83.5 -130.5t-25.5 -162.5z" />
<glyph unicode="&#xbb;" horiz-adv-x="1132" d="M147 958l31 23q40 -48 124 -156t146 -180t130 -137v-35q-65 -67 -128 -141t-144 -174.5t-128 -155.5l-28 21l174 217l215 252l-215 243zM588 958l30 23q40 -48 124 -156t146 -180t130 -137v-35q-65 -67 -128 -141t-144 -174.5t-128 -155.5l-28 21l174 217l215 252 l-215 243z" />
<glyph unicode="&#xbc;" horiz-adv-x="1527" d="M72 1358l209 76l24 -2v-791l125 -6l-2 -21h-299l2 21l135 6v754l-186 -62zM313 -31l680 1512l33 -17l-678 -1509zM868 238q29 88 94 282.5t99 298.5h35v-14l-193 -569h357v204l10 95h26v-299h144v-29h-144v-180l121 -7l-2 -20h-280l2 20l123 7v180h-388z" />
<glyph unicode="&#xbd;" horiz-adv-x="1603" d="M72 1358l209 76l24 -2v-791l125 -6l-2 -21h-299l2 21l135 6v754l-186 -62zM313 -31l680 1512l33 -17l-678 -1509zM930 39q49 34 65.5 45.5t68.5 49t76.5 57.5t71 59t71 66t58 66t50 71t29 69t12.5 72q0 95 -62.5 146t-181.5 51q-81 0 -195 -37l-6 -160l-24 2l-9 160l2 18 q105 45 236 45q134 0 206 -58t72 -165q0 -233 -499 -561v-4h485l8 182l25 -2l2 -211h-559z" />
<glyph unicode="&#xbe;" horiz-adv-x="1630" d="M113 659l12 25q91 -49 192 -49q57 0 99.5 10t63.5 21.5t50 33.5q43 57 43 129q0 87 -74 139t-196 52l-2 22q112 3 186 39q64 67 64 144q0 72 -54 126t-157 54q-81 0 -184 -21l-6 -153l-27 2l-4 145l6 25q95 31 219 31q114 0 177 -61t63 -146q0 -66 -44 -123t-110 -70v-6 q72 -16 125 -66.5t53 -132.5q0 -97 -74.5 -161t-216.5 -64q-114 0 -204 55zM481 -31l680 1512l33 -17l-678 -1509zM971 238q28 84 93 279.5t99 301.5h35v-14l-192 -569h356v204l10 95h27v-299h143v-29h-143v-180l121 -7l-2 -20h-281l2 20l123 7v180h-387z" />
<glyph unicode="&#xbf;" horiz-adv-x="837" d="M98 125q0 69 110.5 137t373.5 160q20 23 20 72q3 95 -37 206l37 15q43 -122 43 -228q0 -33 -17 -62.5t-46 -39.5q-328 -122 -428 -207q-15 -30 -15 -69q0 -94 27.5 -179.5t78.5 -153t132 -107.5t180 -40q97 0 152 9l4 215h28l19 -234q-92 -27 -203 -27q-218 0 -338.5 143 t-120.5 390zM459 969q0 23 17 40t42 17q23 0 40 -17t17 -40q0 -25 -17 -42.5t-40 -17.5q-25 0 -42 17.5t-17 42.5z" />
<glyph unicode="&#xc0;" horiz-adv-x="1490" d="M20 0l3 20l159 11l527 1403h67l531 -1401l163 -13l-2 -20h-409l2 20l203 11l-158 415h-727l-156 -415l205 -11l-2 -20h-406zM391 483h701l-347 918h-10zM535 1917l49 10l247 -321l-36 -11z" />
<glyph unicode="&#xc1;" horiz-adv-x="1490" d="M20 0l3 20l159 11l527 1403h67l531 -1401l163 -13l-2 -20h-409l2 20l203 11l-158 415h-727l-156 -415l205 -11l-2 -20h-406zM391 483h701l-347 918h-10zM662 1606l247 321l49 -10l-260 -322z" />
<glyph unicode="&#xc2;" horiz-adv-x="1490" d="M20 0l3 20l159 11l527 1403h67l531 -1401l163 -13l-2 -20h-409l2 20l203 11l-158 415h-727l-156 -415l205 -11l-2 -20h-406zM391 483h701l-347 918h-10zM473 1606l248 321h41l248 -321l-37 -11l-232 287l-231 -287z" />
<glyph unicode="&#xc3;" horiz-adv-x="1490" d="M20 0l3 20l159 11l527 1403h67l531 -1401l163 -13l-2 -20h-409l2 20l203 11l-158 415h-727l-156 -415l205 -11l-2 -20h-406zM369 1708q115 139 174 139q45 0 206.5 -71.5t206.5 -71.5l131 133l29 -14q-44 -59 -92.5 -104.5t-81.5 -45.5q-51 0 -137.5 35.5t-168.5 71 t-122 35.5l-117 -123zM391 483h701l-347 918h-10z" />
<glyph unicode="&#xc4;" horiz-adv-x="1490" d="M20 0l3 20l159 11l527 1403h67l531 -1401l163 -13l-2 -20h-409l2 20l203 11l-158 415h-727l-156 -415l205 -11l-2 -20h-406zM391 483h701l-347 918h-10zM475 1763q0 20 17 39t38 19t40.5 -19.5t19.5 -40.5q0 -20 -19 -38.5t-39 -18.5q-22 0 -39.5 18t-17.5 41zM905 1763 q0 20 17.5 39t38.5 19t40 -19.5t19 -40.5q0 -20 -18.5 -38.5t-38.5 -18.5q-22 0 -40 18t-18 41z" />
<glyph unicode="&#xc5;" horiz-adv-x="1490" d="M20 0l3 20l159 11l527 1403h67l531 -1401l163 -13l-2 -20h-409l2 20l203 11l-158 415h-727l-156 -415l205 -11l-2 -20h-406zM391 483h701l-347 918h-10zM573 1778q0 70 48.5 119t119.5 49t119.5 -49t48.5 -119t-48.5 -119t-119.5 -49t-119.5 49t-48.5 119zM610 1776 q0 -54 39 -92.5t92 -38.5t92 38.5t39 92.5q0 50 -39.5 90.5t-91.5 40.5q-53 0 -92 -38.5t-39 -92.5z" />
<glyph unicode="&#xc6;" horiz-adv-x="1869" d="M10 0l2 20l160 11l539 1403h1015l-6 -332l-24 2l-13 297h-634v-660h442l18 191l25 -2v-398l-25 3l-18 174h-442v-676h669l11 305l24 -2l4 -336h-944l2 20l193 11v436h-629l-166 -436l205 -11l-2 -20h-406zM393 504h615v897h-271z" />
<glyph unicode="&#xc7;" horiz-adv-x="1406" d="M143 707q0 180 50 323t138.5 234t207.5 138.5t260 47.5q147 0 247 -17.5t197 -56.5l6 -30l-14 -283l-29 2l2 272q-152 76 -407 76q-177 0 -361 -96q-131 -112 -193.5 -256t-62.5 -354q0 -320 160 -503.5t447 -183.5q146 0 253 26t226 93l14 -30q-114 -68 -222.5 -95.5 t-248.5 -29.5l-96 -148q73 0 116.5 -31t43.5 -75q0 -70 -49 -117t-142 -82l-14 35q164 57 164 160q0 77 -150 77l-14 27l96 154q-292 8 -458.5 200t-166.5 523z" />
<glyph unicode="&#xc8;" horiz-adv-x="1202" d="M143 1413l2 21h914l-6 -332l-25 2l-12 297h-635v-660h442l19 191l24 -2v-398l-24 3l-19 174h-442v-676h670l10 305l24 -2l5 -336h-945l2 20l193 11v1372zM479 1917l49 10l248 -321l-37 -11z" />
<glyph unicode="&#xc9;" horiz-adv-x="1202" d="M143 1413l2 21h914l-6 -332l-25 2l-12 297h-635v-660h442l19 191l24 -2v-398l-24 3l-19 174h-442v-676h670l10 305l24 -2l5 -336h-945l2 20l193 11v1372zM606 1606l248 321l49 -10l-260 -322z" />
<glyph unicode="&#xca;" horiz-adv-x="1202" d="M143 1413l2 21h914l-6 -332l-25 2l-12 297h-635v-660h442l19 191l24 -2v-398l-24 3l-19 174h-442v-676h670l10 305l24 -2l5 -336h-945l2 20l193 11v1372zM418 1606l248 321h41l247 -321l-36 -11l-232 287l-231 -287z" />
<glyph unicode="&#xcb;" horiz-adv-x="1202" d="M143 1413l2 21h914l-6 -332l-25 2l-12 297h-635v-660h442l19 191l24 -2v-398l-24 3l-19 174h-442v-676h670l10 305l24 -2l5 -336h-945l2 20l193 11v1372zM420 1763q0 20 17 39t38 19t40.5 -19.5t19.5 -40.5q0 -20 -19 -38.5t-39 -18.5q-22 0 -39.5 18t-17.5 41zM850 1763 q0 20 17 39t38 19t40.5 -19.5t19.5 -40.5q0 -20 -19 -38.5t-39 -18.5q-22 0 -39.5 18t-17.5 41z" />
<glyph unicode="&#xcc;" horiz-adv-x="770" d="M164 1413l2 21h430l-2 -21l-191 -10v-1372l203 -11l-2 -20h-438l2 20l190 11v1372zM174 1917l49 10l248 -321l-37 -11z" />
<glyph unicode="&#xcd;" horiz-adv-x="770" d="M164 1413l2 21h430l-2 -21l-191 -10v-1372l203 -11l-2 -20h-438l2 20l190 11v1372zM301 1606l248 321l49 -10l-260 -322z" />
<glyph unicode="&#xce;" horiz-adv-x="770" d="M113 1606l247 321h41l248 -321l-37 -11l-231 287l-231 -287zM164 1413l2 21h430l-2 -21l-191 -10v-1372l203 -11l-2 -20h-438l2 20l190 11v1372z" />
<glyph unicode="&#xcf;" horiz-adv-x="770" d="M115 1763q0 20 17 39t38 19t40 -19.5t19 -40.5q0 -20 -18.5 -38.5t-38.5 -18.5q-22 0 -39.5 18t-17.5 41zM164 1413l2 21h430l-2 -21l-191 -10v-1372l203 -11l-2 -20h-438l2 20l190 11v1372zM545 1763q0 20 17 39t38 19t40 -19.5t19 -40.5q0 -20 -18.5 -38.5t-38.5 -18.5 q-22 0 -39.5 18t-17.5 41z" />
<glyph unicode="&#xd0;" horiz-adv-x="1521" d="M102 0l2 20l203 11v676h-201v34h201v662l-190 10l2 21h485q371 0 572.5 -185t201.5 -530q0 -339 -181.5 -529t-532.5 -190h-562zM348 37q50 -6 316 -6q178 0 292 42t215 130q57 75 90.5 139.5t54.5 159t21 217.5q0 339 -190.5 510.5t-560.5 171.5q-175 0 -238 -8v-652 h535v-34h-535v-670z" />
<glyph unicode="&#xd1;" horiz-adv-x="1771" d="M143 1413l2 21h248l1028 -1371v1340l-196 10l2 21h432l-2 -21l-195 -10v-1403h-39l-1032 1372v-1341l219 -11l-2 -20h-461l3 20l200 11v1372zM537 1708q115 139 174 139q45 0 206.5 -71.5t206.5 -71.5l131 133l29 -14q-44 -59 -92.5 -104.5t-81.5 -45.5 q-51 0 -137.5 35.5t-168.5 71t-122 35.5l-117 -123z" />
<glyph unicode="&#xd2;" horiz-adv-x="1626" d="M143 698q0 169 49.5 310.5t137 238t209 150t264.5 53.5q163 0 292.5 -54t214 -151.5t129 -231.5t44.5 -296q0 -348 -180.5 -540.5t-497.5 -192.5q-139 0 -260.5 50.5t-210.5 141.5t-140 226t-51 296zM184 696q0 -147 48.5 -273t131.5 -213t197.5 -136t243.5 -49 q152 0 262.5 42t212.5 130q79 113 120.5 235t41.5 283q0 155 -41.5 282t-121 219t-202.5 142.5t-278 50.5q-124 0 -221.5 -36.5t-194.5 -112.5q-94 -113 -146.5 -246t-52.5 -318zM592 1917l49 10l248 -321l-37 -11z" />
<glyph unicode="&#xd3;" horiz-adv-x="1626" d="M143 698q0 169 49.5 310.5t137 238t209 150t264.5 53.5q163 0 292.5 -54t214 -151.5t129 -231.5t44.5 -296q0 -348 -180.5 -540.5t-497.5 -192.5q-139 0 -260.5 50.5t-210.5 141.5t-140 226t-51 296zM184 696q0 -147 48.5 -273t131.5 -213t197.5 -136t243.5 -49 q152 0 262.5 42t212.5 130q79 113 120.5 235t41.5 283q0 155 -41.5 282t-121 219t-202.5 142.5t-278 50.5q-124 0 -221.5 -36.5t-194.5 -112.5q-94 -113 -146.5 -246t-52.5 -318zM719 1606l248 321l49 -10l-260 -322z" />
<glyph unicode="&#xd4;" horiz-adv-x="1626" d="M143 698q0 169 49.5 310.5t137 238t209 150t264.5 53.5q163 0 292.5 -54t214 -151.5t129 -231.5t44.5 -296q0 -348 -180.5 -540.5t-497.5 -192.5q-139 0 -260.5 50.5t-210.5 141.5t-140 226t-51 296zM184 696q0 -147 48.5 -273t131.5 -213t197.5 -136t243.5 -49 q152 0 262.5 42t212.5 130q79 113 120.5 235t41.5 283q0 155 -41.5 282t-121 219t-202.5 142.5t-278 50.5q-124 0 -221.5 -36.5t-194.5 -112.5q-94 -113 -146.5 -246t-52.5 -318zM530 1606l248 321h41l248 -321l-37 -11l-231 287l-232 -287z" />
<glyph unicode="&#xd5;" horiz-adv-x="1626" d="M143 698q0 169 49.5 310.5t137 238t209 150t264.5 53.5q163 0 292.5 -54t214 -151.5t129 -231.5t44.5 -296q0 -348 -180.5 -540.5t-497.5 -192.5q-139 0 -260.5 50.5t-210.5 141.5t-140 226t-51 296zM184 696q0 -147 48.5 -273t131.5 -213t197.5 -136t243.5 -49 q152 0 262.5 42t212.5 130q79 113 120.5 235t41.5 283q0 155 -41.5 282t-121 219t-202.5 142.5t-278 50.5q-124 0 -221.5 -36.5t-194.5 -112.5q-94 -113 -146.5 -246t-52.5 -318zM426 1708q115 139 174 139q45 0 207 -71.5t207 -71.5l131 133l29 -14q-43 -58 -92.5 -104 t-82.5 -46q-51 0 -137.5 35.5t-168.5 71t-122 35.5l-116 -123z" />
<glyph unicode="&#xd6;" horiz-adv-x="1626" d="M143 698q0 169 49.5 310.5t137 238t209 150t264.5 53.5q163 0 292.5 -54t214 -151.5t129 -231.5t44.5 -296q0 -348 -180.5 -540.5t-497.5 -192.5q-139 0 -260.5 50.5t-210.5 141.5t-140 226t-51 296zM184 696q0 -147 48.5 -273t131.5 -213t197.5 -136t243.5 -49 q152 0 262.5 42t212.5 130q79 113 120.5 235t41.5 283q0 155 -41.5 282t-121 219t-202.5 142.5t-278 50.5q-124 0 -221.5 -36.5t-194.5 -112.5q-94 -113 -146.5 -246t-52.5 -318zM532 1763q0 20 17.5 39t38.5 19t40 -19.5t19 -40.5q0 -20 -18.5 -38.5t-38.5 -18.5 q-22 0 -40 18t-18 41zM963 1763q0 20 17 39t38 19t40 -19.5t19 -40.5q0 -20 -18.5 -38.5t-38.5 -18.5q-22 0 -39.5 18t-17.5 41z" />
<glyph unicode="&#xd7;" horiz-adv-x="952" d="M213 289l236 235l-236 238l27 24l235 -235l238 237l24 -26l-237 -238l237 -235l-24 -27l-238 238l-235 -236z" />
<glyph unicode="&#xd8;" horiz-adv-x="1626" d="M143 698q0 169 49.5 310.5t137 238t209 150t264.5 53.5q259 0 432 -137l170 248l33 -23l-172 -250q107 -98 162 -244t55 -327q0 -348 -180.5 -540.5t-497.5 -192.5q-206 0 -365 104l-143 -209l-35 25l144 209q-123 93 -193 244t-70 341zM184 696q0 -175 65.5 -315.5 t182.5 -230.5l778 1130q-160 129 -411 129q-124 0 -221.5 -36.5t-194.5 -112.5q-94 -113 -146.5 -246t-52.5 -318zM467 125q145 -100 338 -100q152 0 262.5 42t212.5 130q79 113 120.5 235t41.5 283q0 350 -201 536z" />
<glyph unicode="&#xd9;" horiz-adv-x="1579" d="M135 1413l2 21h400l-2 -21l-175 -10v-846q0 -138 22 -235t73.5 -166.5t139 -102.5t216.5 -33q215 0 344 109q52 77 74 172t22 256v846l-174 10l2 21h387l-2 -21l-176 -10v-862q0 -114 -13 -198t-45 -154t-86 -113.5t-137 -67.5t-196 -24q-137 0 -232.5 36t-152 109 t-82 173.5t-25.5 238.5v862zM602 1917l49 10l248 -321l-37 -11z" />
<glyph unicode="&#xda;" horiz-adv-x="1579" d="M135 1413l2 21h400l-2 -21l-175 -10v-846q0 -138 22 -235t73.5 -166.5t139 -102.5t216.5 -33q215 0 344 109q52 77 74 172t22 256v846l-174 10l2 21h387l-2 -21l-176 -10v-862q0 -114 -13 -198t-45 -154t-86 -113.5t-137 -67.5t-196 -24q-137 0 -232.5 36t-152 109 t-82 173.5t-25.5 238.5v862zM729 1606l248 321l49 -10l-260 -322z" />
<glyph unicode="&#xdb;" horiz-adv-x="1579" d="M135 1413l2 21h400l-2 -21l-175 -10v-846q0 -138 22 -235t73.5 -166.5t139 -102.5t216.5 -33q215 0 344 109q52 77 74 172t22 256v846l-174 10l2 21h387l-2 -21l-176 -10v-862q0 -114 -13 -198t-45 -154t-86 -113.5t-137 -67.5t-196 -24q-137 0 -232.5 36t-152 109 t-82 173.5t-25.5 238.5v862zM541 1606l247 321h41l248 -321l-37 -11l-231 287l-231 -287z" />
<glyph unicode="&#xdc;" horiz-adv-x="1579" d="M135 1413l2 21h400l-2 -21l-175 -10v-846q0 -138 22 -235t73.5 -166.5t139 -102.5t216.5 -33q215 0 344 109q52 77 74 172t22 256v846l-174 10l2 21h387l-2 -21l-176 -10v-862q0 -114 -13 -198t-45 -154t-86 -113.5t-137 -67.5t-196 -24q-137 0 -232.5 36t-152 109 t-82 173.5t-25.5 238.5v862zM543 1763q0 20 17 39t38 19t40 -19.5t19 -40.5q0 -20 -18.5 -38.5t-38.5 -18.5q-22 0 -39.5 18t-17.5 41zM973 1763q0 20 17 39t38 19t40 -19.5t19 -40.5q0 -20 -18.5 -38.5t-38.5 -18.5q-22 0 -39.5 18t-17.5 41z" />
<glyph unicode="&#xdd;" horiz-adv-x="1382" d="M20 1413l3 21h415l-2 -21l-203 -10l451 -737h4l467 737l-190 10l2 21h395l-2 -21l-162 -10l-496 -785v-587l195 -11l-2 -20h-444l2 20l209 11v592l-478 780zM618 1606l248 321l49 -10l-260 -322z" />
<glyph unicode="&#xde;" horiz-adv-x="1239" d="M143 1413l2 21h430l-2 -21l-194 -10v-266h317q197 0 308.5 -109t111.5 -299q0 -216 -109 -313t-345 -97h-283v-288l207 -11l-2 -20h-439l2 20l191 11v1372zM379 356h307q172 0 293 70q50 61 72 130.5t22 172.5q0 176 -99.5 273.5t-285.5 97.5h-309v-744z" />
<glyph unicode="&#xdf;" horiz-adv-x="1359" d="M82 958l2 25h207v168q0 180 112.5 271t313.5 91q178 0 277.5 -114.5t99.5 -343.5q0 -17 -3 -26.5t-13.5 -15.5t-19.5 -8.5t-32 -7.5q-78 -16 -113 -24t-84 -25t-90 -39q-32 -37 -41.5 -67.5t-9.5 -75.5q0 -78 62.5 -133.5t201.5 -118.5q64 -29 100.5 -47.5t78 -46 t62 -53.5t34.5 -62t14 -80q0 -114 -81 -177.5t-236 -63.5q-186 0 -306 57l-6 45l35 217l29 -2l-21 -231q43 -22 117.5 -36t151.5 -14q133 0 225 50q51 63 51 155q0 72 -54.5 130t-209.5 124q-155 67 -224 126.5t-69 154.5q0 45 11 81t36 62t49 43.5t69 33.5t74.5 24.5 t86.5 22.5t86 22q0 198 -91 316t-249 118q-90 0 -157.5 -18t-135.5 -60q-48 -56 -69 -113.5t-21 -140.5v-1151h-197l2 20l154 11v915z" />
<glyph unicode="&#xe0;" horiz-adv-x="1132" d="M113 227q0 120 39 209q242 54 655 72v115q0 162 -74.5 252t-226.5 90q-128 0 -260 -37l-2 -242l-33 -2l-18 242l6 28q144 45 307 45q342 0 342 -372v-596l182 -11l-2 -20h-211l-10 190q-75 -89 -178 -147.5t-230 -58.5q-140 0 -213 69t-73 174zM154 238q0 -100 62.5 -160 t184.5 -60q127 0 231.5 66.5t174.5 159.5v229q-152 -6 -340.5 -24t-284.5 -43q-28 -78 -28 -168zM295 1466l49 11l248 -322l-37 -10z" />
<glyph unicode="&#xe1;" horiz-adv-x="1132" d="M113 227q0 120 39 209q242 54 655 72v115q0 162 -74.5 252t-226.5 90q-128 0 -260 -37l-2 -242l-33 -2l-18 242l6 28q144 45 307 45q342 0 342 -372v-596l182 -11l-2 -20h-211l-10 190q-75 -89 -178 -147.5t-230 -58.5q-140 0 -213 69t-73 174zM154 238q0 -100 62.5 -160 t184.5 -60q127 0 231.5 66.5t174.5 159.5v229q-152 -6 -340.5 -24t-284.5 -43q-28 -78 -28 -168zM422 1155l248 322l49 -11l-260 -321z" />
<glyph unicode="&#xe2;" horiz-adv-x="1132" d="M113 227q0 120 39 209q242 54 655 72v115q0 162 -74.5 252t-226.5 90q-128 0 -260 -37l-2 -242l-33 -2l-18 242l6 28q144 45 307 45q342 0 342 -372v-596l182 -11l-2 -20h-211l-10 190q-75 -89 -178 -147.5t-230 -58.5q-140 0 -213 69t-73 174zM154 238q0 -100 62.5 -160 t184.5 -60q127 0 231.5 66.5t174.5 159.5v229q-152 -6 -340.5 -24t-284.5 -43q-28 -78 -28 -168zM233 1155l248 322h41l248 -322l-37 -10l-231 287l-232 -287z" />
<glyph unicode="&#xe3;" horiz-adv-x="1132" d="M113 227q0 120 39 209q242 54 655 72v115q0 162 -74.5 252t-226.5 90q-128 0 -260 -37l-2 -242l-33 -2l-18 242l6 28q144 45 307 45q342 0 342 -372v-596l182 -11l-2 -20h-211l-10 190q-75 -89 -178 -147.5t-230 -58.5q-140 0 -213 69t-73 174zM129 1257q116 140 174 140 q45 0 207 -72t207 -72l131 133l29 -14q-43 -58 -92.5 -103.5t-82.5 -45.5q-51 0 -137.5 35.5t-168.5 70.5t-122 35l-116 -123zM154 238q0 -100 62.5 -160t184.5 -60q127 0 231.5 66.5t174.5 159.5v229q-152 -6 -340.5 -24t-284.5 -43q-28 -78 -28 -168z" />
<glyph unicode="&#xe4;" horiz-adv-x="1132" d="M113 227q0 120 39 209q242 54 655 72v115q0 162 -74.5 252t-226.5 90q-128 0 -260 -37l-2 -242l-33 -2l-18 242l6 28q144 45 307 45q342 0 342 -372v-596l182 -11l-2 -20h-211l-10 190q-75 -89 -178 -147.5t-230 -58.5q-140 0 -213 69t-73 174zM154 238q0 -100 62.5 -160 t184.5 -60q127 0 231.5 66.5t174.5 159.5v229q-152 -6 -340.5 -24t-284.5 -43q-28 -78 -28 -168zM236 1313q0 20 17 38.5t38 18.5t40 -19t19 -40q0 -20 -18.5 -39t-38.5 -19q-22 0 -39.5 18.5t-17.5 41.5zM666 1313q0 20 17 38.5t38 18.5t40 -19t19 -40q0 -20 -18.5 -39 t-38.5 -19q-22 0 -39.5 18.5t-17.5 41.5z" />
<glyph unicode="&#xe5;" horiz-adv-x="1132" d="M113 227q0 120 39 209q242 54 655 72v115q0 162 -74.5 252t-226.5 90q-128 0 -260 -37l-2 -242l-33 -2l-18 242l6 28q144 45 307 45q342 0 342 -372v-596l182 -11l-2 -20h-211l-10 190q-75 -89 -178 -147.5t-230 -58.5q-140 0 -213 69t-73 174zM154 238q0 -100 62.5 -160 t184.5 -60q127 0 231.5 66.5t174.5 159.5v229q-152 -6 -340.5 -24t-284.5 -43q-28 -78 -28 -168zM334 1327q0 71 49 119.5t119 48.5t119 -48.5t49 -119.5t-49 -119.5t-119 -48.5t-119 48.5t-49 119.5zM371 1325q0 -54 39 -92.5t92 -38.5t92 38.5t39 92.5q0 50 -39.5 90.5 t-91.5 40.5q-53 0 -92 -38.5t-39 -92.5z" />
<glyph unicode="&#xe6;" horiz-adv-x="1736" d="M113 227q0 120 39 209q242 54 655 72v115q0 165 -74.5 253.5t-226.5 88.5q-128 0 -260 -37l-2 -242l-33 -2l-18 242l6 28q144 45 307 45q62 0 112 -12q196 -49 224 -274q40 108 116.5 178.5t180.5 95.5q53 12 110 12q180 0 277.5 -118.5t97.5 -341.5l-12 -54l-764 -10 q6 -211 116 -333t296 -122q185 0 339 107l17 -27q-135 -116 -356 -116q-144 0 -247.5 66t-156.5 188q-77 -101 -198.5 -177.5t-258.5 -76.5q-140 0 -213 69t-73 174zM154 238q0 -100 62.5 -160t184.5 -60q89 0 181 43.5t154 98.5t106 114q-32 95 -35 199q-152 -6 -340.5 -24 t-284.5 -43q-28 -78 -28 -168zM848 512l737 14q0 211 -89 323t-247 114q-126 0 -254 -78q-144 -158 -147 -373z" />
<glyph unicode="&#xe7;" horiz-adv-x="1024" d="M123 502q0 228 127 362.5t325 134.5q87 0 170.5 -18t135.5 -49l8 -37l-31 -227l-33 2l21 235q-30 19 -115.5 38.5t-152.5 19.5q-77 0 -140.5 -21.5t-138.5 -69.5q-68 -76 -101.5 -163t-33.5 -205q0 -227 100.5 -355.5t290.5 -128.5q99 0 177 23t153 74l16 -29 q-131 -94 -303 -102l-86 -131q72 0 116 -31t44 -76q0 -70 -49 -117t-142 -82l-14 35q164 57 164 160q0 36 -38 57t-112 21l-14 26l86 136q-204 0 -317 139t-113 379z" />
<glyph unicode="&#xe8;" horiz-adv-x="1052" d="M123 498q0 225 122 363t320 138q180 0 277.5 -118.5t97.5 -341.5l-12 -54l-764 -10q6 -211 115.5 -333t295.5 -122t340 107l17 -27q-135 -116 -357 -116q-211 0 -331.5 139.5t-120.5 374.5zM164 512l737 14q0 211 -89 323t-247 114q-126 0 -254 -78q-144 -158 -147 -373z M354 1466l49 11l248 -322l-37 -10z" />
<glyph unicode="&#xe9;" horiz-adv-x="1052" d="M123 498q0 225 122 363t320 138q180 0 277.5 -118.5t97.5 -341.5l-12 -54l-764 -10q6 -211 115.5 -333t295.5 -122t340 107l17 -27q-135 -116 -357 -116q-211 0 -331.5 139.5t-120.5 374.5zM164 512l737 14q0 211 -89 323t-247 114q-126 0 -254 -78q-144 -158 -147 -373z M481 1155l248 322l49 -11l-260 -321z" />
<glyph unicode="&#xea;" horiz-adv-x="1052" d="M123 498q0 225 122 363t320 138q180 0 277.5 -118.5t97.5 -341.5l-12 -54l-764 -10q6 -211 115.5 -333t295.5 -122t340 107l17 -27q-135 -116 -357 -116q-211 0 -331.5 139.5t-120.5 374.5zM164 512l737 14q0 211 -89 323t-247 114q-126 0 -254 -78q-144 -158 -147 -373z M293 1155l248 322h41l247 -322l-36 -10l-232 287l-231 -287z" />
<glyph unicode="&#xeb;" horiz-adv-x="1052" d="M123 498q0 225 122 363t320 138q180 0 277.5 -118.5t97.5 -341.5l-12 -54l-764 -10q6 -211 115.5 -333t295.5 -122t340 107l17 -27q-135 -116 -357 -116q-211 0 -331.5 139.5t-120.5 374.5zM164 512l737 14q0 211 -89 323t-247 114q-126 0 -254 -78q-144 -158 -147 -373z M295 1313q0 20 17 38.5t38 18.5q22 0 41 -19t19 -40q0 -20 -19 -39t-39 -19q-22 0 -39.5 18.5t-17.5 41.5zM725 1313q0 20 17 38.5t38 18.5q22 0 41 -19t19 -40q0 -20 -19 -39t-39 -19q-22 0 -39.5 18.5t-17.5 41.5z" />
<glyph unicode="&#xec;" horiz-adv-x="598" d="M94 1466l49 11l248 -322l-37 -10zM123 963l2 20h201l6 -43v-909l164 -11l-2 -20h-355l2 20l150 11v921z" />
<glyph unicode="&#xed;" horiz-adv-x="598" d="M123 963l2 20h201l6 -43v-909l164 -11l-2 -20h-355l2 20l150 11v921zM221 1155l248 322l49 -11l-260 -321z" />
<glyph unicode="&#xee;" horiz-adv-x="598" d="M33 1155l248 322h41l247 -322l-37 -10l-231 287l-231 -287zM123 963l2 20h201l6 -43v-909l164 -11l-2 -20h-355l2 20l150 11v921z" />
<glyph unicode="&#xef;" horiz-adv-x="598" d="M35 1313q0 20 17 38.5t38 18.5q22 0 41 -19t19 -40q0 -20 -19 -39t-39 -19q-22 0 -39.5 18.5t-17.5 41.5zM123 963l2 20h201l6 -43v-909l164 -11l-2 -20h-355l2 20l150 11v921zM465 1313q0 20 17 38.5t38 18.5q22 0 41 -19t19 -40q0 -20 -19 -39t-39 -19 q-22 0 -39.5 18.5t-17.5 41.5z" />
<glyph unicode="&#xf0;" horiz-adv-x="1128" d="M123 492q0 242 126 374.5t329 132.5q247 0 374 -194q-34 274 -174 465l-342 -92l-10 36l326 89q-79 102 -222 200l54 19q129 -102 211 -207l233 63l10 -37l-219 -59q187 -275 187 -672q0 -308 -113.5 -467t-325.5 -159q-215 0 -329.5 139t-114.5 369zM168 489 q0 -136 43.5 -240t135 -166.5t220.5 -62.5q65 0 132.5 22.5t119.5 57.5q142 164 142 510q0 42 -5 129q-26 40 -50.5 71t-59 61t-73 49t-90.5 31t-112 12q-79 0 -136 -18t-120 -58q-76 -78 -111.5 -173.5t-35.5 -224.5z" />
<glyph unicode="&#xf1;" horiz-adv-x="1243" d="M82 946v25l172 12h37l10 -65v-113q61 97 144.5 145.5t199.5 48.5q361 0 361 -381v-587l176 -11l-2 -20h-215v614q0 347 -320 347q-101 0 -196 -43q-92 -76 -148 -185v-702l164 -11l-2 -20h-352l2 20l147 11v915h-178zM264 1257q116 140 174 140q45 0 207 -72t207 -72 l131 133l29 -14q-43 -58 -92 -103.5t-82 -45.5q-51 0 -137.5 35.5t-168.5 70.5t-122 35l-117 -123z" />
<glyph unicode="&#xf2;" horiz-adv-x="1124" d="M123 492q0 242 126 374.5t329 132.5q87 0 163 -32.5t134.5 -95t92 -162t33.5 -224.5q0 -232 -107.5 -366.5t-313.5 -134.5q-223 0 -340 138.5t-117 369.5zM168 489q0 -209 105.5 -339t306.5 -130q133 0 260 86q64 85 91 166t27 215q0 221 -110.5 348.5t-276.5 127.5 q-79 0 -136 -18t-120 -58q-76 -78 -111.5 -173.5t-35.5 -224.5zM367 1466l49 11l248 -322l-37 -10z" />
<glyph unicode="&#xf3;" horiz-adv-x="1124" d="M123 492q0 242 126 374.5t329 132.5q87 0 163 -32.5t134.5 -95t92 -162t33.5 -224.5q0 -232 -107.5 -366.5t-313.5 -134.5q-223 0 -340 138.5t-117 369.5zM168 489q0 -209 105.5 -339t306.5 -130q133 0 260 86q64 85 91 166t27 215q0 221 -110.5 348.5t-276.5 127.5 q-79 0 -136 -18t-120 -58q-76 -78 -111.5 -173.5t-35.5 -224.5zM494 1155l247 322l50 -11l-261 -321z" />
<glyph unicode="&#xf4;" horiz-adv-x="1124" d="M123 492q0 242 126 374.5t329 132.5q87 0 163 -32.5t134.5 -95t92 -162t33.5 -224.5q0 -232 -107.5 -366.5t-313.5 -134.5q-223 0 -340 138.5t-117 369.5zM168 489q0 -209 105.5 -339t306.5 -130q133 0 260 86q64 85 91 166t27 215q0 221 -110.5 348.5t-276.5 127.5 q-79 0 -136 -18t-120 -58q-76 -78 -111.5 -173.5t-35.5 -224.5zM305 1155l248 322h41l248 -322l-37 -10l-232 287l-231 -287z" />
<glyph unicode="&#xf5;" horiz-adv-x="1124" d="M123 492q0 242 126 374.5t329 132.5q87 0 163 -32.5t134.5 -95t92 -162t33.5 -224.5q0 -232 -107.5 -366.5t-313.5 -134.5q-223 0 -340 138.5t-117 369.5zM168 489q0 -209 105.5 -339t306.5 -130q133 0 260 86q64 85 91 166t27 215q0 221 -110.5 348.5t-276.5 127.5 q-79 0 -136 -18t-120 -58q-76 -78 -111.5 -173.5t-35.5 -224.5zM201 1257q116 140 174 140q45 0 206.5 -72t206.5 -72l132 133l28 -14q-43 -58 -92 -103.5t-82 -45.5q-51 0 -137.5 35.5t-168.5 70.5t-122 35l-117 -123z" />
<glyph unicode="&#xf6;" horiz-adv-x="1124" d="M123 492q0 242 126 374.5t329 132.5q87 0 163 -32.5t134.5 -95t92 -162t33.5 -224.5q0 -232 -107.5 -366.5t-313.5 -134.5q-223 0 -340 138.5t-117 369.5zM168 489q0 -209 105.5 -339t306.5 -130q133 0 260 86q64 85 91 166t27 215q0 221 -110.5 348.5t-276.5 127.5 q-79 0 -136 -18t-120 -58q-76 -78 -111.5 -173.5t-35.5 -224.5zM307 1313q0 20 17 38.5t38 18.5q22 0 41 -19t19 -40q0 -20 -18.5 -39t-38.5 -19q-22 0 -40 18.5t-18 41.5zM737 1313q0 20 17.5 38.5t38.5 18.5t40 -19t19 -40q0 -20 -18.5 -39t-38.5 -19q-22 0 -40 18.5 t-18 41.5z" />
<glyph unicode="&#xf7;" horiz-adv-x="952" d="M123 502v41h706v-41h-706zM418 176q0 25 17 42.5t40 17.5q25 0 42.5 -17.5t17.5 -42.5q0 -23 -17.5 -40t-42.5 -17q-23 0 -40 17t-17 40zM418 868q0 25 17 42.5t40 17.5q25 0 42.5 -17.5t17.5 -42.5q0 -23 -17.5 -40t-42.5 -17q-23 0 -40 17t-17 40z" />
<glyph unicode="&#xf8;" horiz-adv-x="1124" d="M123 492q0 242 126 374.5t329 132.5q158 0 268 -98l123 178l32 -22l-127 -185q127 -140 127 -387q0 -232 -107.5 -366.5t-313.5 -134.5q-161 0 -267 71l-102 -149l-35 24l105 150q-158 134 -158 412zM168 489q0 -247 137 -372l514 747q-107 99 -248 99q-79 0 -136 -18 t-120 -58q-76 -78 -111.5 -173.5t-35.5 -224.5zM338 90q95 -70 242 -70q133 0 260 86q64 85 91 166t27 215q0 218 -110 347z" />
<glyph unicode="&#xf9;" horiz-adv-x="1284" d="M102 946v21l166 16h47l9 -63v-564q0 -162 80.5 -249t203.5 -87q143 0 271 60q71 64 120 135v731h-180v21l164 16h51l6 -63v-889l162 -11l-2 -20h-188l-13 156q-63 -79 -163 -125.5t-228 -46.5q-143 0 -234 96t-91 266v600h-181zM459 1466l49 11l248 -322l-37 -10z" />
<glyph unicode="&#xfa;" horiz-adv-x="1284" d="M102 946v21l166 16h47l9 -63v-564q0 -162 80.5 -249t203.5 -87q143 0 271 60q71 64 120 135v731h-180v21l164 16h51l6 -63v-889l162 -11l-2 -20h-188l-13 156q-63 -79 -163 -125.5t-228 -46.5q-143 0 -234 96t-91 266v600h-181zM586 1155l248 322l49 -11l-260 -321z" />
<glyph unicode="&#xfb;" horiz-adv-x="1284" d="M102 946v21l166 16h47l9 -63v-564q0 -162 80.5 -249t203.5 -87q143 0 271 60q71 64 120 135v731h-180v21l164 16h51l6 -63v-889l162 -11l-2 -20h-188l-13 156q-63 -79 -163 -125.5t-228 -46.5q-143 0 -234 96t-91 266v600h-181zM397 1155l248 322h41l248 -322l-37 -10 l-231 287l-232 -287z" />
<glyph unicode="&#xfc;" horiz-adv-x="1284" d="M102 946v21l166 16h47l9 -63v-564q0 -162 80.5 -249t203.5 -87q143 0 271 60q71 64 120 135v731h-180v21l164 16h51l6 -63v-889l162 -11l-2 -20h-188l-13 156q-63 -79 -163 -125.5t-228 -46.5q-143 0 -234 96t-91 266v600h-181zM399 1313q0 20 17.5 38.5t38.5 18.5 t40 -19t19 -40q0 -20 -18.5 -39t-38.5 -19q-22 0 -40 18.5t-18 41.5zM829 1313q0 20 17.5 38.5t38.5 18.5t40 -19t19 -40q0 -20 -18.5 -39t-38.5 -19q-22 0 -40 18.5t-18 41.5z" />
<glyph unicode="&#xfd;" horiz-adv-x="1183" d="M10 963l2 20h330l-2 -20l-150 -11l369 -915h31l373 915l-162 11l2 20h371l-3 -20l-163 -11l-451 -1079q-126 -297 -379 -297h-135l-8 14l6 29l10 6l129 -14q116 0 205 71t143 205l47 117l-30 -4l-21 23l-379 929zM496 1155l247 322l50 -11l-261 -321z" />
<glyph unicode="&#xfe;" horiz-adv-x="1183" d="M82 1561v24l172 12h37l10 -65v-696q131 163 358 163q61 0 117.5 -16.5t109 -53t91 -90.5t61.5 -134.5t23 -178.5q0 -254 -105.5 -398t-298.5 -144q-222 0 -356 104v-528l164 -11l-2 -20h-352l2 20l147 11v2001h-178zM301 133q129 -113 354 -113q72 0 127 18.5t111 63.5 q66 82 96.5 174.5t30.5 241.5q0 97 -21.5 175t-57 127.5t-84 82.5t-98.5 46.5t-104 13.5q-133 0 -243 -60q-67 -58 -111 -125v-645z" />
<glyph unicode="&#xff;" horiz-adv-x="1183" d="M10 963l2 20h330l-2 -20l-150 -11l369 -915h31l373 915l-162 11l2 20h371l-3 -20l-163 -11l-451 -1079q-126 -297 -379 -297h-135l-8 14l6 29l10 6l129 -14q116 0 205 71t143 205l47 117l-30 -4l-21 23l-379 929zM309 1313q0 20 17.5 38.5t38.5 18.5t40 -19t19 -40 q0 -20 -18.5 -39t-38.5 -19q-22 0 -40 18.5t-18 41.5zM739 1313q0 20 17.5 38.5t38.5 18.5t40 -19t19 -40q0 -20 -18.5 -39t-38.5 -19q-22 0 -40 18.5t-18 41.5z" />
<glyph unicode="&#x152;" horiz-adv-x="1937" d="M158 698q0 343 180.5 547.5t480.5 204.5q115 0 291 -16h684l-6 -332l-25 2l-12 297h-639v-660h447l18 191l25 -2v-398l-25 3l-18 174h-447v-676h674l10 305l25 -2l4 -336h-719q-128 -16 -301 -16q-139 0 -258.5 50.5t-205 142t-134.5 226t-49 295.5zM199 696 q0 -196 78.5 -349.5t216.5 -237.5t311 -84q27 0 72 -0.5t70 -0.5t59.5 1t64.5 4v1366q-191 14 -254 14q-133 0 -231.5 -36t-194.5 -111q-92 -110 -142 -244t-50 -322z" />
<glyph unicode="&#x153;" horiz-adv-x="1888" d="M123 492q0 242 126 374.5t329 132.5q143 0 252 -85t149 -246q42 154 153.5 242.5t268.5 88.5q180 0 277.5 -118.5t97.5 -341.5l-13 -54l-764 -10q0 -69 17 -135t51.5 -124t83 -101.5t115.5 -69t145 -25.5q186 0 340 107l16 -27q-135 -116 -356 -116q-165 0 -276 86 t-154 239q-36 -155 -137.5 -240t-263.5 -85q-223 0 -340 138.5t-117 369.5zM168 489q0 -209 105.5 -339t306.5 -130q133 0 260 86q64 85 91 166t27 215q0 221 -112 348.5t-275 127.5q-79 0 -136 -18t-120 -58q-76 -78 -111.5 -173.5t-35.5 -224.5zM999 512l738 14 q0 211 -89 323t-247 114q-126 0 -254 -78q-135 -143 -148 -373z" />
<glyph unicode="&#x178;" horiz-adv-x="1382" d="M20 1413l3 21h415l-2 -21l-203 -10l451 -737h4l467 737l-190 10l2 21h395l-2 -21l-162 -10l-496 -785v-587l195 -11l-2 -20h-444l2 20l209 11v592l-478 780zM432 1763q0 20 17 39t38 19t40.5 -19.5t19.5 -40.5q0 -20 -19 -38.5t-39 -18.5q-22 0 -39.5 18t-17.5 41z M862 1763q0 20 17.5 39t38.5 19t40 -19.5t19 -40.5q0 -20 -18.5 -38.5t-38.5 -18.5q-22 0 -40 18t-18 41z" />
<glyph unicode="&#x2c6;" horiz-adv-x="989" d="M225 1155l248 322h41l248 -322l-37 -10l-231 287l-232 -287z" />
<glyph unicode="&#x2dc;" horiz-adv-x="1191" d="M215 1257q116 140 174 140q45 0 207 -72t207 -72l131 133l29 -14q-43 -58 -92.5 -103.5t-82.5 -45.5q-51 0 -137.5 35.5t-168.5 70.5t-122 35l-116 -123z" />
<glyph unicode="&#x2000;" horiz-adv-x="973" />
<glyph unicode="&#x2001;" horiz-adv-x="1946" />
<glyph unicode="&#x2002;" horiz-adv-x="973" />
<glyph unicode="&#x2003;" horiz-adv-x="1946" />
<glyph unicode="&#x2004;" horiz-adv-x="648" />
<glyph unicode="&#x2005;" horiz-adv-x="486" />
<glyph unicode="&#x2006;" horiz-adv-x="324" />
<glyph unicode="&#x2007;" horiz-adv-x="324" />
<glyph unicode="&#x2008;" horiz-adv-x="243" />
<glyph unicode="&#x2009;" horiz-adv-x="389" />
<glyph unicode="&#x200a;" horiz-adv-x="108" />
<glyph unicode="&#x2010;" horiz-adv-x="911" d="M143 520v41h625v-41h-625z" />
<glyph unicode="&#x2011;" horiz-adv-x="911" d="M143 520v41h625v-41h-625z" />
<glyph unicode="&#x2012;" horiz-adv-x="911" d="M143 520v41h625v-41h-625z" />
<glyph unicode="&#x2013;" horiz-adv-x="1157" d="M143 520v41h871v-41h-871z" />
<glyph unicode="&#x2014;" horiz-adv-x="1443" d="M143 520v41h1157v-41h-1157z" />
<glyph unicode="&#x2018;" d="M203 1376q0 34 28.5 84.5t71.5 95.5l27 -26q-52 -60 -68 -105q23 0 40 -17t17 -40q0 -25 -17 -42t-40 -17q-25 0 -42 18.5t-17 48.5z" />
<glyph unicode="&#x2019;" d="M178 1214q52 60 68 105q-23 0 -40.5 17t-17.5 40q0 25 17.5 42.5t40.5 17.5q25 0 42 -19t17 -49q0 -34 -28.5 -84.5t-71.5 -95.5z" />
<glyph unicode="&#x201a;" d="M178 -104q53 60 68 104q-23 0 -40.5 17t-17.5 40q0 25 17.5 42.5t40.5 17.5q25 0 42 -19t17 -49q0 -34 -28.5 -84.5t-71.5 -95.5z" />
<glyph unicode="&#x201c;" horiz-adv-x="694" d="M178 1380q0 33 29 84.5t72 96.5l26 -27q-51 -58 -67 -104q23 0 40 -17.5t17 -40.5q0 -25 -17 -42t-40 -17q-25 0 -42.5 18.5t-17.5 48.5zM375 1380q0 34 28.5 85.5t71.5 95.5l27 -27q-53 -60 -68 -104q23 0 40.5 -17.5t17.5 -40.5q0 -24 -17 -41.5t-41 -17.5 q-25 0 -42 18.5t-17 48.5z" />
<glyph unicode="&#x201d;" horiz-adv-x="694" d="M178 1212q52 60 68 105q-23 0 -40.5 17t-17.5 40q0 25 17.5 42.5t40.5 17.5q25 0 42 -19t17 -49q0 -34 -28.5 -84.5t-71.5 -95.5zM375 1212q51 58 67 105q-23 0 -40 17t-17 40q0 25 17 42.5t40 17.5q25 0 42.5 -19t17.5 -49q0 -33 -29 -84t-72 -96z" />
<glyph unicode="&#x201e;" horiz-adv-x="694" d="M178 -104q53 60 68 104q-23 0 -40.5 17t-17.5 40q0 25 17.5 42.5t40.5 17.5q25 0 42 -19t17 -49q0 -34 -28.5 -84.5t-71.5 -95.5zM375 -104q51 58 67 104q-23 0 -40 17t-17 40q0 25 17 42.5t40 17.5q25 0 42.5 -19t17.5 -49q0 -33 -29 -84t-72 -96z" />
<glyph unicode="&#x2022;" horiz-adv-x="610" d="M221 459q0 32 21.5 55t52.5 23q32 0 55 -23t23 -55q0 -30 -23 -52t-55 -22q-30 0 -52 22t-22 52z" />
<glyph unicode="&#x2026;" horiz-adv-x="985" d="M184 57q0 25 17.5 42.5t40.5 17.5q25 0 42 -17.5t17 -42.5q0 -23 -17 -40t-42 -17q-23 0 -40.5 17t-17.5 40zM434 57q0 25 17.5 42.5t40.5 17.5q25 0 42 -17.5t17 -42.5q0 -23 -17 -40t-42 -17q-23 0 -40.5 17t-17.5 40zM684 57q0 25 17 42.5t40 17.5q25 0 42.5 -17.5 t17.5 -42.5q0 -23 -17.5 -40t-42.5 -17q-23 0 -40 17t-17 40z" />
<glyph unicode="&#x202f;" horiz-adv-x="389" />
<glyph unicode="&#x2039;" horiz-adv-x="692" d="M115 475v35q65 67 128 141.5t143 173.5t128 156l29 -20l-174 -218l-215 -251l215 -244l176 -223l-31 -23q-41 50 -124 156.5t-145 179t-130 137.5z" />
<glyph unicode="&#x203a;" horiz-adv-x="692" d="M147 958l31 23q40 -48 124 -156t146 -180t130 -137v-35q-65 -67 -128 -141t-144 -174.5t-128 -155.5l-28 21l174 217l215 252l-215 243z" />
<glyph unicode="&#x205f;" horiz-adv-x="486" />
<glyph unicode="&#x20ac;" horiz-adv-x="1507" d="M31 563v41h217q-4 33 -4 103q0 59 2 88h-215v41h219q17 149 73 266.5t141.5 193t196 115t238.5 39.5q147 0 247 -17.5t197 -56.5l7 -30l-15 -283l-28 2l2 272q-152 76 -408 76q-176 0 -360 -96q-110 -93 -171.5 -209t-78.5 -272h610v-41h-614q-2 -29 -2 -88q0 -37 4 -103 h612v-41h-608q34 -257 189.5 -400t408.5 -143q146 0 253 26t226 93l14 -30q-118 -70 -230 -97.5t-263 -27.5q-268 0 -436 152.5t-203 426.5h-221z" />
<glyph unicode="&#x2122;" horiz-adv-x="1890" d="M68 1434h637l-5 -191l-28 2l-6 158h-258v-701l114 -6v-22h-272v22l115 6v701h-259l-6 -158l-28 -2zM795 674l2 22l94 6l63 703l-92 6l2 23h252l-2 -23l-94 -6l285 -660h2l274 660l-80 6l2 23h219l-2 -23l-80 -6l66 -703l92 -6v-22h-229l2 22l92 6l-59 676l-279 -684h-47 l-293 684l-55 -676l94 -6l-2 -22h-227z" />
<glyph unicode="&#x25fc;" horiz-adv-x="983" d="M0 0v983h983v-983h-983z" />
<glyph unicode="&#xfb01;" horiz-adv-x="1335" d="M82 958l2 25h207v168q0 183 87.5 284t239.5 101q124 0 228 -35l14 -37l-18 -194l-29 2l12 201q-101 32 -207 32q-107 0 -212 -80q-37 -49 -55.5 -109.5t-18.5 -164.5v-168h309l-2 -25l-307 -12v-915l205 -11l-2 -20h-400l2 20l154 11v915zM860 963l2 20h201l6 -43v-909 l164 -11l-2 -20h-354l2 20l149 11v921zM973 1319q0 20 17 38.5t38 18.5t40 -19t19 -40q0 -20 -18.5 -38.5t-38.5 -18.5q-22 0 -39.5 18t-17.5 41z" />
<glyph unicode="&#xfb02;" horiz-adv-x="1339" d="M82 958l2 25h207v168q0 184 107.5 286.5t297.5 102.5q246 0 353 -86l-21 -22q-127 77 -332 77q-85 0 -149 -23t-141 -81q-74 -98 -74 -254v-168h309l-2 -25l-307 -12v-915l205 -11l-2 -20h-400l2 20l154 11v915zM852 0l2 20l164 11v1566h35l6 -51v-1515l178 -11l-2 -20 h-383z" />
<glyph unicode="&#xfb03;" horiz-adv-x="2174" d="M82 958l2 25h207v168q0 184 80 280.5t231 96.5q115 0 219 -35l15 -37l-19 -194l-29 2l13 200q-104 33 -199 33q-110 0 -207 -74q-36 -64 -49.5 -121t-13.5 -151v-168h659v115q0 191 118.5 308.5t311.5 117.5q71 0 132.5 -15t102.5 -38.5t71 -52t43.5 -54.5t13.5 -47 q0 -20 -19 -38.5t-39 -18.5q-22 0 -39.5 18t-17.5 41q0 18 14.5 36t34.5 21q-33 44 -87.5 71.5t-102.5 36.5t-98 9q-98 0 -166 -26.5t-136 -75.5q-48 -62 -72 -129.5t-24 -167.5v-111h731l6 -43v-909l164 -11l-2 -20h-354l2 20l150 11v915h-697v-915l205 -11l-2 -20h-399 l2 20l153 11v915h-659v-915l205 -11l-2 -20h-400l2 20l154 11v915z" />
<glyph unicode="&#xfb04;" horiz-adv-x="2039" d="M82 958l2 25h207v168q0 184 80 280.5t231 96.5q115 0 219 -35l15 -37l-19 -194l-29 2l13 200q-104 33 -199 33q-110 0 -207 -74q-36 -64 -49.5 -121t-13.5 -151v-168h659v162q0 186 106 290.5t300 104.5q198 0 321 -63v120h35l6 -51v-1515l178 -11l-2 -20h-383l2 20 l164 11v1407q-135 71 -321 71q-91 0 -156 -26t-135 -78q-38 -51 -56 -110t-18 -160v-152h309l-2 -25l-307 -12v-915l205 -11l-2 -20h-399l2 20l153 11v915h-659v-915l205 -11l-2 -20h-400l2 20l154 11v915z" />
</font>
</defs>
</svg>
